<?xml version="1.0" encoding="utf-8"?>
<!-- Generator: Adobe Illustrator 22.0.1, SVG Export Plug-In . SVG Version: 6.00 Build 0)  -->
<svg version="1.1" id="Layer_1" xmlns="http://www.w3.org/2000/svg" xmlns:xlink="http://www.w3.org/1999/xlink" x="0px" y="0px"
	 viewBox="0 0 69.1 71.7" style="enable-background:new 0 0 69.1 71.7;" xml:space="preserve">
<style type="text/css">
	.st0{fill:url(#SVGID_1_);}
	.st1{fill:url(#SVGID_2_);}
</style>
<g>
	<g>
		
			<linearGradient id="SVGID_1_" gradientUnits="userSpaceOnUse" x1="2.4991" y1="295.5156" x2="68.6509" y2="295.5156" gradientTransform="matrix(1 0 0 1 0 -260.2354)">
			<stop  offset="0" style="stop-color:#F15E60"/>
			<stop  offset="1" style="stop-color:#8C3A92"/>
		</linearGradient>
		<path class="st0" d="M63.5,69.6c-1.4,0-2.7-0.5-3.7-1.6L3.9,9.7C2,7.7,2,4.4,4.1,2.4s5.3-1.9,7.3,0.2l55.8,58.3
			c2,2,1.9,5.3-0.1,7.3C66.1,69.1,64.8,69.6,63.5,69.6z"/>
	</g>
	<g>
		
			<linearGradient id="SVGID_2_" gradientUnits="userSpaceOnUse" x1="2.5353" y1="295.5531" x2="68.6509" y2="295.5531" gradientTransform="matrix(1 0 0 1 0 -260.2354)">
			<stop  offset="0" style="stop-color:#F15E60"/>
			<stop  offset="1" style="stop-color:#8C3A92"/>
		</linearGradient>
		<path class="st1" d="M7.7,69.6c-1.3,0-2.6-0.5-3.6-1.4c-2-2-2.1-5.2-0.2-7.3L59.8,2.6c2-2,5.2-2.1,7.3-0.2c2,2,2.1,5.2,0.1,7.3
			L11.4,68C10.4,69,9,69.6,7.7,69.6z"/>
	</g>
</g>
</svg>
