<?xml version="1.0" encoding="utf-8"?>
<!-- Generator: Adobe Illustrator 22.0.1, SVG Export Plug-In . SVG Version: 6.00 Build 0)  -->
<svg version="1.1" id="Layer_1" xmlns="http://www.w3.org/2000/svg" xmlns:xlink="http://www.w3.org/1999/xlink" x="0px" y="0px"
	 viewBox="0 0 221.6 118.6" style="enable-background:new 0 0 221.6 118.6;" xml:space="preserve">
<style type="text/css">
	.st0{fill:#212121;}
</style>
<g>
	<g>
		<polygon class="st0" points="99,74.2 94.2,69.6 98.7,64.8 93.9,60.2 98.5,55.3 108.2,64.5 		"/>
	</g>
	<g>
		
			<rect x="71.6" y="86.4" transform="matrix(0.6863 -0.7273 0.7273 0.6863 -40.2486 86.1946)" class="st0" width="16.3" height="6.7"/>
	</g>
	<g>
		<polygon class="st0" points="56.2,119.6 46.5,110.4 51.1,105.6 56,110.1 60.5,105.3 65.4,109.9 		"/>
	</g>
	<g>
		
			<rect x="27.6" y="83" transform="matrix(0.6862 -0.7274 0.7274 0.6862 -56.6027 51.1456)" class="st0" width="6.7" height="16.3"/>
	</g>
	<g>
		<polygon class="st0" points="10.9,76.8 1.2,67.6 10.3,57.9 15.2,62.5 10.6,67.4 15.5,72 		"/>
	</g>
	<g>
		
			<rect x="21.4" y="39.1" transform="matrix(0.6863 -0.7273 0.7273 0.6863 -21.5572 34.8156)" class="st0" width="16.3" height="6.7"/>
	</g>
	<g>
		<polygon class="st0" points="48.8,26.9 43.9,22.3 53.1,12.6 62.8,21.7 58.2,26.6 53.4,22 		"/>
	</g>
	<g>
		<rect x="75" y="32.8" transform="matrix(0.6862 -0.7274 0.7274 0.6862 -5.2189 69.8392)" class="st0" width="6.7" height="16.3"/>
	</g>
</g>
<g>
	<polygon class="st0" points="221.6,37.1 185.5,37.1 185.5,1 175.9,1 175.9,37.1 139.8,37.1 139.8,46.7 175.9,46.7 175.9,82.8 
		185.5,82.8 185.5,46.7 221.6,46.7 	"/>
</g>
</svg>
