<?xml version="1.0" encoding="utf-8"?>
<!-- Generator: Adobe Illustrator 16.0.0, SVG Export Plug-In . SVG Version: 6.00 Build 0)  -->
<!DOCTYPE svg PUBLIC "-//W3C//DTD SVG 1.1//EN" "http://www.w3.org/Graphics/SVG/1.1/DTD/svg11.dtd">
<svg version="1.1" id="Layer_1" xmlns="http://www.w3.org/2000/svg" xmlns:xlink="http://www.w3.org/1999/xlink" x="0px" y="0px"
	 width="468.865px" height="467.938px" viewBox="0 0 468.865 467.938" enable-background="new 0 0 468.865 467.938"
	 xml:space="preserve">
<g>
	<g>
		<g>
			<g>
				
					<linearGradient id="SVGID_1_" gradientUnits="userSpaceOnUse" x1="2629.2344" y1="839.3047" x2="2806.688" y2="661.8511" gradientTransform="matrix(0 1 -1 0 1007.873 -2484.4492)">
					<stop  offset="0" style="stop-color:#FED307"/>
					<stop  offset="1" style="stop-color:#F99D1C"/>
				</linearGradient>
				<circle fill="url(#SVGID_1_)" cx="245.785" cy="222.002" r="164.087"/>
			</g>
		</g>
	</g>
	<g>
		<path fill="#212121" d="M123.145,225.288c2.805,3.072,5.802,5.959,8.944,8.682h140.073c3.144-2.723,6.141-5.609,8.945-8.682
			H123.145z"/>
		<path fill="#212121" d="M119.914,84.696h164.424c-2.542-3.045-5.26-5.936-8.117-8.682H128.03
			C125.174,78.761,122.456,81.651,119.914,84.696z"/>
		<path fill="#212121" d="M244.378,54.841c-12.963-5.576-27.243-8.682-42.252-8.682c-15.01,0-29.29,3.105-42.252,8.682H244.378z"/>
		<path fill="#212121" d="M103.847,195.435c1.276,2.963,2.673,5.865,4.2,8.68h188.157c1.527-2.814,2.924-5.717,4.201-8.68H103.847z"
			/>
		<path fill="#212121" d="M169.818,255.144c10.196,3.227,21.048,4.979,32.308,4.979s22.111-1.752,32.307-4.979H169.818z"/>
		<path fill="#212121" d="M95.89,165.579c0.339,2.932,0.778,5.83,1.351,8.682h209.771c0.571-2.852,1.012-5.75,1.35-8.682H95.89z"/>
		<path fill="#212121" d="M106.149,105.868c-1.394,2.828-2.656,5.727-3.802,8.682h199.557c-1.146-2.955-2.409-5.854-3.802-8.682
			H106.149z"/>
		<path fill="#212121" d="M96.578,135.724c-0.467,2.857-0.812,5.754-1.05,8.682h213.195c-0.24-2.928-0.584-5.824-1.05-8.682H96.578z
			"/>
	</g>
</g>
</svg>
