<?xml version="1.0" encoding="utf-8"?>
<!-- Generator: Adobe Illustrator 22.0.1, SVG Export Plug-In . SVG Version: 6.00 Build 0)  -->
<svg version="1.1" id="Layer_1" xmlns="http://www.w3.org/2000/svg" xmlns:xlink="http://www.w3.org/1999/xlink" x="0px" y="0px"
	 viewBox="0 0 201.3 659.4" style="enable-background:new 0 0 201.3 659.4;" xml:space="preserve">
<style type="text/css">
	.st0{clip-path:url(#SVGID_2_);}
	.st1{fill:#009CC6;}
	.st2{fill:#B84B26;}
</style>
<g>
	<g>
		<defs>
			<rect id="SVGID_1_" x="-56.9" y="-23.3" width="258.1" height="682.5"/>
		</defs>
		<clipPath id="SVGID_2_">
			<use xlink:href="#SVGID_1_"  style="overflow:visible;"/>
		</clipPath>
		<g class="st0">
			<path class="st1" d="M89.6,620.5c6.3,10.5,16.8,22,28.6,18.5c9.2-2.7,13.3-13.1,16.1-22.3c9.5-30.4,19-60.8,28.5-91.2
				c2.8-8.8,6.6-18.9,15.4-21.8c13-4.3,24.1,9.9,30.4,22c52,100.2,98.6,206.6,179.9,285c11.9,11.5,30.4,22.8,43.6,12.8
				c11.5-8.6,9.3-26.2,5.2-40c-17.9-60.1-48-115.4-69.6-174.1c-10.7-29.1-19.6-59.1-22.9-90c-1-9.4-6.3-35.3,0.5-43.2
				c10.7-12.8,19.5,6.5,33.9,2.6c6.9-1.9,10.8-9.6,10.5-16.7c-0.3-7.1-3.9-13.6-7.8-19.6c-29.5-45.9-77.2-76.8-112.2-118.7
				c-34.1-40.9-41.6-84.9-61.1-132.1c-19.6-47.4-36.1-95.9-54.9-143.9c-4.8-12.3-10.3-25-20-33.9C124,5,108.6,0.8,97.2,7.6
				c-6.7,4-11,11-14.8,17.8c-52.1,94-61.1,212.3-55.9,318C31.1,436.1,40.8,539.5,89.6,620.5z"/>
			<path class="st2" d="M21.2,601.7c4.1,11.6,12.2,24.9,24.4,23.8c9.5-0.9,15.6-10.3,20.2-18.6c15.3-27.9,30.7-55.9,46-83.8
				c4.5-8.1,10.2-17.2,19.4-18.3c13.6-1.6,21.7,14.5,25.5,27.6c31.2,108.5,55.9,222,120,315c9.4,13.6,25.3,28.3,40.3,21.2
				c13-6.1,14.3-23.9,13-38.1c-5.7-62.4-24.3-122.7-33.8-184.5c-4.7-30.6-7.5-61.8-4.6-92.7c0.9-9.4,0.8-35.8,9-42.3
				c13.1-10.4,17.9,10.2,32.7,9.3c7.1-0.5,12.5-7.3,13.6-14.3c1.1-7-1.2-14.1-3.8-20.7c-19.9-50.8-60.5-90.6-86.5-138.5
				c-25.4-46.8-24-91.4-33.8-141.6c-9.8-50.3-16.4-101.2-25.4-152c-2.3-13.1-5.1-26.5-12.9-37.2C176.6,5.2,162.3-2,149.8,2.4
				c-7.4,2.6-13,8.6-18,14.5C62.1,98.8,29.9,212.9,14.2,317.6C0.3,409.4-10.6,512.7,21.2,601.7z"/>
		</g>
	</g>
</g>
</svg>
