<?xml version="1.0" encoding="utf-8"?>
<!-- Generator: Adobe Illustrator 22.0.1, SVG Export Plug-In . SVG Version: 6.00 Build 0)  -->
<svg version="1.1" id="Layer_1" xmlns="http://www.w3.org/2000/svg" xmlns:xlink="http://www.w3.org/1999/xlink" x="0px" y="0px"
	 viewBox="0 0 238.3 490" style="enable-background:new 0 0 238.3 490;" xml:space="preserve">
<style type="text/css">
	.st0{clip-path:url(#SVGID_2_);}
	.st1{fill:#CC2027;}
	.st2{fill:#F3F3F3;}
</style>
<g>
	<g>
		<defs>
			<rect id="SVGID_1_" x="-694.4" y="112.3" width="156.9" height="250"/>
		</defs>
		<clipPath id="SVGID_2_">
			<use xlink:href="#SVGID_1_"  style="overflow:visible;"/>
		</clipPath>
		<g class="st0">
			<path class="st1" d="M-102.2-221.9c0.9-0.6,1.8-1.3,2.7-1.9c-50.3,45.5-103.4,88-164.4,117.8c-35.4,17.3-72.2,31.7-107,50
				c-12.8,6.7-26.8,23.3-16,33c4.5,4,11.2,3.9,16.6,6.4c9.9,4.5,13.9,17.3,11.7,27.9c-2.2,10.7-9.3,19.6-16.5,27.8
				c-46.5,52.5-110.8,88.9-179.8,101.8c-27.9,5.2-60.6,6-85.3,21.6c-48.3,30.4,45.2,51.8,65.6,54c66.8,7.4,134.2,10.1,201.4,8
				c12.5-0.4,30,4.6,27.5,16.8c-0.8,3.9-3.7,6.9-6.7,9.5c-18.4,16.3-41.9,24.6-64,34.3c-11,4.8-21.9,10-32,16.6
				c-4.3,2.8-14.3,9-13.5,15.2c1,8.1,17.9,8.1,24,9.1c23,3.7,46.5,2.6,69.3-2.1c46.5-9.7,89.8-34.2,124.1-66.9
				c58.5-55.8,94.1-132.1,113.3-210.6C-112.2-32.2-105.1-141.1-102.2-221.9z"/>
		</g>
	</g>
</g>
<g id="XMLID_117_">
	<rect id="XMLID_124_" x="4.2" y="7.7" class="st2" width="16.3" height="475.6"/>
	<rect id="XMLID_123_" x="39.3" y="7.7" class="st2" width="16.3" height="475.6"/>
	<rect id="XMLID_122_" x="74.5" y="7.7" class="st2" width="16.3" height="475.6"/>
	<rect id="XMLID_121_" x="109.7" y="7.7" class="st2" width="16.3" height="475.6"/>
	<rect id="XMLID_120_" x="144.9" y="7.7" class="st2" width="16.3" height="474"/>
	<rect id="XMLID_119_" x="180.1" y="7.7" class="st2" width="16.3" height="474"/>
	<rect id="XMLID_118_" x="215.3" y="7.7" class="st2" width="16.3" height="474"/>
</g>
</svg>
