<?xml version="1.0" encoding="utf-8"?>
<!-- Generator: Adobe Illustrator 16.0.0, SVG Export Plug-In . SVG Version: 6.00 Build 0)  -->
<!DOCTYPE svg PUBLIC "-//W3C//DTD SVG 1.1//EN" "http://www.w3.org/Graphics/SVG/1.1/DTD/svg11.dtd">
<svg version="1.1" id="Layer_1" xmlns="http://www.w3.org/2000/svg" xmlns:xlink="http://www.w3.org/1999/xlink" x="0px" y="0px"
	 width="472px" height="474.441px" viewBox="0 0 472 474.441" enable-background="new 0 0 472 474.441" xml:space="preserve">
<g>
	<defs>
		<rect id="SVGID_172_" x="131.434" y="116.614" width="156.947" height="249.953"/>
	</defs>
	<clipPath id="SVGID_1_">
		<use xlink:href="#SVGID_172_"  overflow="visible"/>
	</clipPath>
	<g clip-path="url(#SVGID_1_)">
		<path fill="#CC2027" d="M723.636-217.585c0.892-0.641,1.782-1.283,2.668-1.932c-50.272,45.506-103.442,88.023-164.354,117.824
			c-35.38,17.314-72.155,31.734-107.036,50.029c-12.808,6.717-26.803,23.348-15.998,32.961c4.475,3.982,11.195,3.893,16.643,6.379
			c9.914,4.533,13.92,17.258,11.677,27.928c-2.241,10.666-9.274,19.635-16.505,27.795
			c-46.527,52.477-110.846,88.895-179.781,101.785c-27.928,5.221-60.57,6.018-85.287,21.555
			c-48.328,30.377,45.213,51.779,65.6,54.041c66.816,7.404,134.16,10.096,201.355,8.041c12.457-0.383,30.043,4.635,27.476,16.832
			c-0.812,3.85-3.728,6.881-6.677,9.492c-18.363,16.256-41.871,24.578-63.99,34.254c-11.027,4.822-21.936,9.953-31.986,16.619
			c-4.265,2.836-14.26,9.027-13.513,15.215c0.979,8.051,17.856,8.107,23.979,9.092c22.965,3.689,46.523,2.609,69.254-2.131
			c46.521-9.703,89.83-34.217,124.078-66.902c58.467-55.791,94.115-132.121,113.266-210.637
			C713.656-27.854,720.742-136.819,723.636-217.585z"/>
		<path fill="#CC2027" d="M635.945-144.153c0.797-0.756,1.594-1.514,2.391-2.266c-43.814,51.75-90.893,100.926-147.32,138.527
			c-32.787,21.836-67.325,40.998-99.482,63.744c-11.808,8.352-23.482,26.686-11.5,34.785c4.962,3.359,11.608,2.379,17.339,4.125
			c10.433,3.182,16.079,15.262,15.27,26.135c-0.815,10.875-6.593,20.691-12.681,29.734c-39.18,58.174-98.113,102.777-164.74,124.674
			c-26.992,8.869-59.24,13.977-81.688,32.648c-43.883,36.5,51.67,45.342,72.175,44.885c67.21-1.496,134.315-7.734,200.647-18.664
			c12.293-2.023,30.392,0.625,29.459,13.047c-0.295,3.928-2.785,7.318-5.361,10.299c-16.049,18.541-38.252,29.898-58.897,42.414
			c-10.294,6.236-20.425,12.77-29.503,20.705c-3.86,3.375-12.947,10.832-11.386,16.867c2.032,7.854,18.772,5.68,24.97,5.844
			c23.254,0.619,46.466-3.566,68.367-11.273c44.83-15.77,84.51-45.799,114.138-82.725c50.575-63.037,75.81-143.414,84.41-223.77
			C651.15,45.226,643.762-63.718,635.945-144.153z"/>
	</g>
</g>
</svg>
