<?xml version="1.0" encoding="utf-8"?>
<!-- Generator: Adobe Illustrator 16.0.0, SVG Export Plug-In . SVG Version: 6.00 Build 0)  -->
<!DOCTYPE svg PUBLIC "-//W3C//DTD SVG 1.1//EN" "http://www.w3.org/Graphics/SVG/1.1/DTD/svg11.dtd">
<svg version="1.1" id="Layer_1" xmlns="http://www.w3.org/2000/svg" xmlns:xlink="http://www.w3.org/1999/xlink" x="0px" y="0px"
	 width="468.865px" height="467.938px" viewBox="0 0 468.865 467.938" enable-background="new 0 0 468.865 467.938"
	 xml:space="preserve">
<g id="XMLID_87_">
	<linearGradient id="XMLID_118_" gradientUnits="userSpaceOnUse" x1="309.353" y1="224.3564" x2="323.0542" y2="224.3564">
		<stop  offset="0" style="stop-color:#FED307"/>
		<stop  offset="1" style="stop-color:#F99D1C"/>
	</linearGradient>
	<polygon id="XMLID_96_" fill="url(#XMLID_118_)" points="314.15,224.355 309.353,229.154 313.806,233.605 318.603,228.809 
		323.054,224.355 318.603,219.904 313.806,215.107 309.353,219.559 	"/>
	<linearGradient id="XMLID_119_" gradientUnits="userSpaceOnUse" x1="291.8315" y1="224.3564" x2="305.5347" y2="224.3564">
		<stop  offset="0" style="stop-color:#FED307"/>
		<stop  offset="1" style="stop-color:#F99D1C"/>
	</linearGradient>
	<polygon id="XMLID_95_" fill="url(#XMLID_119_)" points="296.628,224.355 291.832,229.154 296.285,233.605 301.082,228.809 
		305.535,224.355 301.082,219.904 296.285,215.107 291.832,219.559 	"/>
	<linearGradient id="XMLID_120_" gradientUnits="userSpaceOnUse" x1="274.312" y1="224.3564" x2="288.0132" y2="224.3564">
		<stop  offset="0" style="stop-color:#FED307"/>
		<stop  offset="1" style="stop-color:#F99D1C"/>
	</linearGradient>
	<polygon id="XMLID_94_" fill="url(#XMLID_120_)" points="279.109,224.355 274.312,229.154 278.763,233.605 283.56,228.809 
		288.013,224.355 283.56,219.904 278.763,215.107 274.312,219.559 	"/>
	<linearGradient id="XMLID_121_" gradientUnits="userSpaceOnUse" x1="256.7905" y1="224.3564" x2="270.4917" y2="224.3564">
		<stop  offset="0" style="stop-color:#FED307"/>
		<stop  offset="1" style="stop-color:#F99D1C"/>
	</linearGradient>
	<polygon id="XMLID_93_" fill="url(#XMLID_121_)" points="261.587,224.355 256.791,229.154 261.244,233.605 266.041,228.809 
		270.492,224.355 266.041,219.904 261.244,215.107 256.791,219.559 	"/>
	<linearGradient id="XMLID_122_" gradientUnits="userSpaceOnUse" x1="239.269" y1="224.3564" x2="252.9722" y2="224.3564">
		<stop  offset="0" style="stop-color:#FED307"/>
		<stop  offset="1" style="stop-color:#F99D1C"/>
	</linearGradient>
	<polygon id="XMLID_92_" fill="url(#XMLID_122_)" points="244.068,224.355 239.269,229.154 243.722,233.605 248.519,228.809 
		252.972,224.355 248.519,219.904 243.722,215.107 239.269,219.559 	"/>
	<linearGradient id="XMLID_123_" gradientUnits="userSpaceOnUse" x1="221.7495" y1="224.3564" x2="235.4507" y2="224.3564">
		<stop  offset="0" style="stop-color:#FED307"/>
		<stop  offset="1" style="stop-color:#F99D1C"/>
	</linearGradient>
	<polygon id="XMLID_91_" fill="url(#XMLID_123_)" points="226.546,224.355 221.75,229.154 226.203,233.605 231,228.809 
		235.451,224.355 231,219.904 226.203,215.107 221.75,219.559 	"/>
	<linearGradient id="XMLID_124_" gradientUnits="userSpaceOnUse" x1="204.228" y1="224.3564" x2="217.9312" y2="224.3564">
		<stop  offset="0" style="stop-color:#FED307"/>
		<stop  offset="1" style="stop-color:#F99D1C"/>
	</linearGradient>
	<polygon id="XMLID_90_" fill="url(#XMLID_124_)" points="209.025,224.355 204.228,229.154 208.681,233.605 213.478,228.809 
		217.931,224.355 213.478,219.904 208.681,215.107 204.228,219.559 	"/>
	<linearGradient id="XMLID_125_" gradientUnits="userSpaceOnUse" x1="186.7085" y1="224.3564" x2="200.4097" y2="224.3564">
		<stop  offset="0" style="stop-color:#FED307"/>
		<stop  offset="1" style="stop-color:#F99D1C"/>
	</linearGradient>
	<polygon id="XMLID_89_" fill="url(#XMLID_125_)" points="191.505,224.355 186.708,229.154 191.16,233.605 195.957,228.809 
		200.41,224.355 195.957,219.904 191.16,215.107 186.708,219.559 	"/>
	<linearGradient id="XMLID_126_" gradientUnits="userSpaceOnUse" x1="169.187" y1="224.3564" x2="182.8901" y2="224.3564">
		<stop  offset="0" style="stop-color:#FED307"/>
		<stop  offset="1" style="stop-color:#F99D1C"/>
	</linearGradient>
	<polygon id="XMLID_88_" fill="url(#XMLID_126_)" points="173.984,224.355 169.187,229.154 173.64,233.605 178.437,228.809 
		182.89,224.355 178.437,219.904 173.64,215.107 169.187,219.559 	"/>
</g>
</svg>
