<?xml version="1.0" encoding="utf-8"?>
<!-- Generator: Adobe Illustrator 22.0.1, SVG Export Plug-In . SVG Version: 6.00 Build 0)  -->
<svg version="1.1" id="Layer_1" xmlns="http://www.w3.org/2000/svg" xmlns:xlink="http://www.w3.org/1999/xlink" x="0px" y="0px"
	 viewBox="0 0 404 904.3" style="enable-background:new 0 0 404 904.3;" xml:space="preserve">
<style type="text/css">
	.st0{clip-path:url(#SVGID_2_);}
	.st1{fill:#009CC6;}
	.st2{fill:#00B3DD;}
	.st3{fill:#FEFBEB;}
</style>
<g>
	<g>
		<defs>
			<rect id="SVGID_1_" x="-61.8" y="-15.4" width="465.7" height="941"/>
		</defs>
		<clipPath id="SVGID_2_">
			<use xlink:href="#SVGID_1_"  style="overflow:visible;"/>
		</clipPath>
		<g class="st0">
			<path class="st1" d="M49.5,426.2c-4.1,14.5-5.6,33.5,7.4,41.1c10.1,5.9,22.9,0.8,33.4-4.2c35.1-17,70.3-33.9,105.4-50.9
				c10.2-4.9,22.4-9.9,32.4-4.4c14.7,8,11.4,29.8,5.8,45.7c-46.1,130.4-102.2,261.2-104.2,399.5c-0.3,20.3,5.1,46.2,25.1,49.8
				c17.3,3.1,31.2-13.7,40-28.8c38.7-66.3,63-139.6,97.5-208c17.1-33.9,36.4-67,61.3-95.8c7.6-8.8,26.3-35.1,39-35.8
				c20.4-1.1,10.5,22.9,26.1,32.5c7.4,4.6,17.6,1.6,23.7-4.7c6.1-6.2,8.9-14.9,11-23.3c16.3-64.8,4-133.3,12.2-199.7
				c8-64.7,41-108.3,67-165.3c26-57.2,55.5-112.6,82.7-169.6c7-14.7,13.7-30.1,13.5-46.3c-0.2-16.2-9.3-33.5-24.9-38
				c-9.2-2.7-19-0.7-28.3,1.7c-127.7,32.1-241,123.1-331.1,216.2C165.4,219.5,81,314.7,49.5,426.2z"/>
			<path class="st2" d="M9,349.3C2.1,362.7-3.1,381,8.1,391c8.7,7.8,22.2,5.4,33.6,2.5c37.8-9.7,75.6-19.4,113.4-29
				c11-2.8,23.9-5.2,32.6,2.1c12.9,10.8,5.2,31.5-3.4,45.9C113.4,531.1,32.6,648.2,3.2,783.4c-4.3,19.8-4.1,46.3,14.7,53.7
				c16.3,6.5,33.3-7.2,44.9-20.4c51-57.4,89.4-124.4,136.6-184.6c23.4-29.9,48.9-58.5,79.1-81.8c9.1-7.1,32.7-29.2,45.3-27.4
				c20.2,3,5.8,24.5,19.1,37c6.4,5.9,17,5,24.2,0.1c7.2-4.9,11.6-12.9,15.4-20.7c28.8-60.3,30.3-129.9,51.4-193.3
				c20.6-61.9,61.6-98,98.3-148.8C569.2,146.4,609,98,647,47.4c9.7-13,19.4-26.8,22.4-42.7c3-16-2.5-34.7-16.9-42.2
				c-8.5-4.5-18.5-4.4-28.1-4c-131.5,6.3-260.5,73-367.3,146.5C163.5,169.6,61.9,246.3,9,349.3z"/>
			<path class="st3" d="M14.7,801.1c-0.5,5.6-0.1,11.7,3.5,16c3.8,4.5,10.5,5.8,16.1,4.2c5.6-1.6,10.3-5.7,13.8-10.4
				c1.3-1.8,2.6-3.9,2.7-6.1c0.1-2.3-1.3-4.7-3.6-5.1c-1.1-0.2-2.2,0.2-3.2,0.5c-4,1.3-8,2.6-12,4c-4.8-8,5.1-32.7-6.4-29.4
				C16.9,777.5,15.4,793.8,14.7,801.1z"/>
		</g>
	</g>
</g>
</svg>
