<?xml version="1.0" encoding="utf-8"?>
<!-- Generator: Adobe Illustrator 16.0.0, SVG Export Plug-In . SVG Version: 6.00 Build 0)  -->
<!DOCTYPE svg PUBLIC "-//W3C//DTD SVG 1.1//EN" "http://www.w3.org/Graphics/SVG/1.1/DTD/svg11.dtd">
<svg version="1.1" id="Layer_1" xmlns="http://www.w3.org/2000/svg" xmlns:xlink="http://www.w3.org/1999/xlink" x="0px" y="0px"
	 width="472px" height="474.441px" viewBox="0 0 472 474.441" enable-background="new 0 0 472 474.441" xml:space="preserve">
<g>
	<linearGradient id="SVGID_1_" gradientUnits="userSpaceOnUse" x1="207.3555" y1="188.165" x2="264.6445" y2="188.165">
		<stop  offset="0" style="stop-color:#F15E60"/>
		<stop  offset="1" style="stop-color:#8C3A92"/>
	</linearGradient>
	<path fill="url(#SVGID_1_)" d="M235.998,216.809c-15.793,0-28.643-12.854-28.643-28.645c0-15.793,12.85-28.643,28.643-28.643
		c15.795,0,28.646,12.85,28.646,28.643C264.645,203.955,251.793,216.809,235.998,216.809z M235.998,166.158
		c-12.133,0-22.006,9.871-22.006,22.006c0,12.137,9.873,22.008,22.006,22.008c12.137,0,22.008-9.871,22.008-22.008
		C258.006,176.029,248.135,166.158,235.998,166.158z"/>
</g>
</svg>
