<?xml version="1.0" encoding="utf-8"?>
<!-- Generator: Adobe Illustrator 16.0.0, SVG Export Plug-In . SVG Version: 6.00 Build 0)  -->
<!DOCTYPE svg PUBLIC "-//W3C//DTD SVG 1.1//EN" "http://www.w3.org/Graphics/SVG/1.1/DTD/svg11.dtd">
<svg version="1.1" id="Layer_1" xmlns="http://www.w3.org/2000/svg" xmlns:xlink="http://www.w3.org/1999/xlink" x="0px" y="0px"
	 width="250px" height="171.333px" viewBox="0 0 250 171.333" enable-background="new 0 0 250 171.333" xml:space="preserve">
<g>
	<g>
		<path fill="#FFFFFF" d="M207.664,28.203H10.495c0,0-7.646,0.482-7.646,10.949c0,10.469,0,122.379,0,122.379
			s0.482,6.68,10.951,6.68c10.467,0,164.802,0,164.802,0s34.296,1.93,40.976-14.736c6.682-16.666,27.136-124.309,27.136-124.309
			L207.664,28.203z"/>
		<path fill="#EF4023" d="M192.169,117.732l8.678-79.338H18c-2.893,0-5.233,2.48-5.233,5.512v109.568c0,3.029,2.341,5.51,5.233,5.51
			h168.384c9.851,0.207,26.032-3.582,27.478-20.455C213.861,138.461,216.272,119.178,192.169,117.732z"/>
		<path fill="#EF4023" d="M202.43,29.926H12.422c-4.199,0-7.575,3.373-7.575,7.574v122.654c0,4.201,2.895,6.818,7.094,6.818h156.605
			c16.323,0,32.782,0.137,43.388-7.301c14.876-10.469,12.672-45.246-14.118-45.727l12.19-111.912c0,0,42.698-5.924,38.084,30.508
			c-4.75,37.604-20.798,112.049-27.961,123.205c-6.404,9.986-13.499,14.326-51.375,14.326H11.459c0,0-9.918,0.48-9.918-9.918
			s0-122.791,0-122.791s-0.55-11.088,10.881-11.088c11.432,0,190.491,0,190.491,0L202.43,29.926z"/>
		<g>
			<path fill="#FFFFFF" d="M70.478,91.355h-5.646v-7.094l-8.263-15.289h5.716l5.372,9.711l5.301-9.711h5.716l-8.126,15.152v7.23
				H70.478z"/>
			<path fill="#FFFFFF" d="M102.02,80.129c0,6.543-5.164,11.502-12.121,11.502c-6.885,0-12.053-4.889-12.053-11.502
				c0-6.541,5.168-11.361,12.053-11.361C96.855,68.834,102.02,73.656,102.02,80.129z M83.633,80.199c0,3.787,2.893,6.68,6.336,6.68
				c3.441,0,6.197-2.893,6.197-6.68c0-3.789-2.756-6.611-6.197-6.611C86.525,73.588,83.633,76.41,83.633,80.199z"/>
			<path fill="#FFFFFF" d="M125.436,81.99c0,5.92-3.926,9.641-10.194,9.641c-6.265,0-10.329-3.721-10.329-9.641V69.043h5.717V81.99
				c0,3.029,1.928,4.889,4.684,4.889c2.686,0,4.477-1.859,4.477-4.889V69.043h5.646V81.99z"/>
			<path fill="#FFFFFF" d="M139.276,85.088h-0.136h-4.339v6.268h-5.717V68.973h9.987c5.924,0,9.297,2.824,9.297,7.783
				c0,3.443-1.447,5.854-4.063,7.162l4.683,7.369h-6.474L139.276,85.088z M139.141,80.611c2.479,0,3.926-1.24,3.926-3.58
				c0-2.342-1.446-3.514-3.926-3.514h-4.339v7.094H139.141z"/>
			<path fill="#FFFFFF" d="M57.877,116.424v8.332H35.355V94.592h9.986v21.9h12.535V116.424z"/>
			<path fill="#FFFFFF" d="M71.029,120.418l-1.582,4.27H59.184l12.741-30.164h10.261l12.261,30.164H83.839l-1.514-4.27H71.029z
				 M76.815,104.439l-3.169,8.814h6.268L76.815,104.439z"/>
			<path fill="#FFFFFF" d="M111.87,94.523c7.298,0,11.982,3.029,11.982,7.645c0,2.961-1.998,5.51-5.097,6.473
				c3.649,0.828,5.992,3.857,5.992,7.645c0,5.166-4.752,8.471-12.121,8.471H96.579V94.592h15.291V94.523z M106.566,106.162h4.752
				c1.377,0,2.272-0.895,2.272-2.205c0-1.307-0.896-2.135-2.272-2.135h-4.752V106.162z M106.566,117.387h4.752
				c1.857,0,3.029-0.963,3.029-2.41c0-1.309-1.239-2.203-3.029-2.203h-4.752V117.387z"/>
			<path fill="#FFFFFF" d="M137.832,102.1v3.719h14.117v7.574h-14.117v3.719h15.909v7.576h-25.964V94.523h25.619v7.576H137.832z"/>
			<path fill="#FFFFFF" d="M181.15,116.424v8.332h-22.589V94.592h9.984v21.9h12.604V116.424z"/>
			<path fill="#FFFFFF" d="M78.537,151.479v-8.68h-9.299v8.68h-5.715v-22.383h5.715v9.229h9.299v-9.229h5.714v22.383H78.537z"/>
			<path fill="#FFFFFF" d="M94.72,133.572v4.406h10.675v4.477H94.72v4.477h12.189v4.477H89.074v-22.383h17.492v4.477H94.72V133.572z
				"/>
			<path fill="#FFFFFF" d="M121.026,145.143h-0.137h-4.338v6.266h-5.718v-22.381h9.988c5.923,0,9.296,2.822,9.296,7.781
				c0,3.443-1.447,5.854-4.063,7.162l4.685,7.369h-6.474L121.026,145.143z M120.89,140.732c2.479,0,3.927-1.238,3.927-3.58
				s-1.447-3.512-3.927-3.512h-4.338v7.092H120.89z"/>
			<path fill="#FFFFFF" d="M139.761,133.572v4.406h10.674v4.477h-10.674v4.477h12.188v4.477h-17.835v-22.383h17.492v4.477h-11.846
				V133.572z"/>
		</g>
		<g>
			<path fill="#FFFFFF" d="M28.264,51.824v1.723c0,2.064-1.035,3.236-3.031,3.236h-0.965v4.889h-2.065V48.656h3.03
				C27.229,48.656,28.264,49.76,28.264,51.824z M24.199,50.516v4.408h0.965c0.619,0,1.032-0.275,1.032-1.24v-1.928
				c0-0.895-0.347-1.24-1.032-1.24H24.199L24.199,50.516z"/>
			<path fill="#FFFFFF" d="M40.797,61.604c-0.139-0.344-0.207-0.549-0.207-1.584v-2.066c0-1.24-0.413-1.652-1.309-1.652h-0.688
				v5.303h-2.067V48.656h3.099c2.135,0,3.029,0.965,3.029,2.961v1.033c0,1.309-0.411,2.205-1.307,2.617
				c1.034,0.414,1.378,1.445,1.378,2.756v1.996c0,0.621,0,1.104,0.206,1.584H40.797z M38.523,50.516v3.994h0.828
				c0.756,0,1.238-0.344,1.238-1.377v-1.309c0-0.895-0.343-1.309-1.033-1.309H38.523z"/>
			<path fill="#FFFFFF" d="M51.334,48.656h2.065v13.016h-2.065V48.656z"/>
			<path fill="#FFFFFF" d="M65.245,59.262l1.584-10.605h1.859l-1.999,13.016H63.66l-1.997-13.016h2.066L65.245,59.262z"/>
			<path fill="#FFFFFF" d="M83.15,61.604h-2.064l-0.346-2.342h-2.479l-0.346,2.342h-1.858l2.066-13.016h2.963L83.15,61.604z
				 M78.467,57.541h1.997l-0.963-6.611L78.467,57.541z"/>
			<path fill="#FFFFFF" d="M90.105,48.656h6.335v1.859h-2.133v11.156h-2.066V50.516h-2.136V48.656L90.105,48.656z"/>
			<path fill="#FFFFFF" d="M106.703,54.098h2.825v1.859h-2.825v3.787h3.513v1.859h-5.577V48.656h5.577v1.859h-3.513V54.098z"/>
			<path fill="#FFFFFF" d="M129.016,48.656h2.066v11.156h3.375v1.859h-5.441V48.656z"/>
			<path fill="#FFFFFF" d="M149.333,61.604h-2.065l-0.346-2.342h-2.479l-0.344,2.342h-1.859l2.066-13.016h2.962L149.333,61.604z
				 M144.647,57.541h1.999l-0.963-6.611L144.647,57.541z"/>
			<path fill="#FFFFFF" d="M163.727,51.617V52.1c0,1.309-0.413,2.205-1.31,2.617c1.104,0.414,1.516,1.447,1.516,2.756v1.033
				c0,1.996-1.032,3.098-3.099,3.098h-3.236V48.656h3.1C162.762,48.656,163.727,49.621,163.727,51.617z M159.594,50.516v3.443h0.827
				c0.758,0,1.238-0.344,1.238-1.377v-0.758c0-0.895-0.345-1.309-1.031-1.309H159.594z M159.594,55.818v3.994h1.171
				c0.689,0,1.034-0.344,1.034-1.307v-1.104c0-1.238-0.413-1.584-1.309-1.584H159.594z"/>
			<path fill="#FFFFFF" d="M174.471,54.098h2.823v1.859h-2.823v3.787h3.513v1.859h-5.579V48.656h5.579v1.859h-3.513V54.098z"/>
			<path fill="#FFFFFF" d="M186.658,48.656h2.066v11.156h3.376v1.859h-5.442V48.656z"/>
		</g>
	</g>
</g>
</svg>
