<?xml version="1.0" encoding="utf-8"?>
<!-- Generator: Adobe Illustrator 16.0.0, SVG Export Plug-In . SVG Version: 6.00 Build 0)  -->
<!DOCTYPE svg PUBLIC "-//W3C//DTD SVG 1.1//EN" "http://www.w3.org/Graphics/SVG/1.1/DTD/svg11.dtd">
<svg version="1.1" id="Layer_1" xmlns="http://www.w3.org/2000/svg" xmlns:xlink="http://www.w3.org/1999/xlink" x="0px" y="0px"
	 width="472px" height="474.441px" viewBox="0 0 472 474.441" enable-background="new 0 0 472 474.441" xml:space="preserve">
<g>
	<g>
		<linearGradient id="SVGID_1_" gradientUnits="userSpaceOnUse" x1="218.8315" y1="132.916" x2="256.897" y2="132.916">
			<stop  offset="0" style="stop-color:#F15E60"/>
			<stop  offset="1" style="stop-color:#8C3A92"/>
		</linearGradient>
		<path fill="url(#SVGID_1_)" d="M256.897,132.919c0,10.51-8.524,19.027-19.033,19.027s-19.032-8.518-19.032-19.027
			c0-10.514,8.523-19.033,19.032-19.033S256.897,122.405,256.897,132.919z"/>
	</g>
	<g>
		<linearGradient id="SVGID_3_" gradientUnits="userSpaceOnUse" x1="218.8315" y1="195.25" x2="256.897" y2="195.25">
			<stop  offset="0" style="stop-color:#F15E60"/>
			<stop  offset="1" style="stop-color:#8C3A92"/>
		</linearGradient>
		<path fill="url(#SVGID_3_)" d="M256.897,195.249c0,10.516-8.524,19.033-19.033,19.033s-19.032-8.518-19.032-19.033
			c0-10.508,8.523-19.031,19.032-19.031S256.897,184.741,256.897,195.249z"/>
	</g>
	<g>
		<linearGradient id="SVGID_4_" gradientUnits="userSpaceOnUse" x1="218.8315" y1="257.5879" x2="256.897" y2="257.5879">
			<stop  offset="0" style="stop-color:#F15E60"/>
			<stop  offset="1" style="stop-color:#8C3A92"/>
		</linearGradient>
		<path fill="url(#SVGID_4_)" d="M256.897,257.589c0,10.508-8.524,19.031-19.033,19.031s-19.032-8.523-19.032-19.031
			c0-10.51,8.523-19.033,19.032-19.033S256.897,247.079,256.897,257.589z"/>
	</g>
	<g>
		<linearGradient id="SVGID_6_" gradientUnits="userSpaceOnUse" x1="218.8315" y1="319.9238" x2="256.897" y2="319.9238">
			<stop  offset="0" style="stop-color:#F15E60"/>
			<stop  offset="1" style="stop-color:#8C3A92"/>
		</linearGradient>
		<path fill="url(#SVGID_6_)" d="M256.897,319.925c0,10.508-8.524,19.031-19.033,19.031s-19.032-8.523-19.032-19.031
			c0-10.516,8.523-19.033,19.032-19.033S256.897,309.409,256.897,319.925z"/>
	</g>
</g>
</svg>
