<?xml version="1.0" encoding="utf-8"?>
<!-- Generator: Adobe Illustrator 22.0.1, SVG Export Plug-In . SVG Version: 6.00 Build 0)  -->
<svg version="1.1" id="Layer_1" xmlns="http://www.w3.org/2000/svg" xmlns:xlink="http://www.w3.org/1999/xlink" x="0px" y="0px"
	 viewBox="0 0 330.2 346" style="enable-background:new 0 0 330.2 346;" xml:space="preserve">
<style type="text/css">
	.st0{fill:url(#SVGID_1_);}
	.st1{fill:#212121;}
</style>
<g>
	<g>
		<g>
			
				<linearGradient id="SVGID_1_" gradientUnits="userSpaceOnUse" x1="8053.1597" y1="3408.1213" x2="8230.6133" y2="3585.5752" gradientTransform="matrix(0 1 1 0 -3319.95 -7948.9951)">
				<stop  offset="0" style="stop-color:#FED307"/>
				<stop  offset="1" style="stop-color:#F99D1C"/>
			</linearGradient>
			<circle class="st0" cx="165.4" cy="181.4" r="164.1"/>
		</g>
	</g>
</g>
<g>
	<path class="st1" d="M42.7,184.7c2.8,3.1,5.8,6,8.9,8.7h140.1c3.1-2.7,6.1-5.6,8.9-8.7H42.7z"/>
	<path class="st1" d="M39.5,44.1h164.4c-2.5-3-5.3-5.9-8.1-8.7H47.6C44.8,38.1,42.1,41,39.5,44.1z"/>
	<path class="st1" d="M164,14.2c-13-5.6-27.2-8.7-42.3-8.7c-15,0-29.3,3.1-42.3,8.7H164z"/>
	<path class="st1" d="M23.5,154.8c1.3,3,2.7,5.9,4.2,8.7h188.2c1.5-2.8,2.9-5.7,4.2-8.7H23.5z"/>
	<path class="st1" d="M89.4,214.5c10.2,3.2,21,5,32.3,5s22.1-1.8,32.3-5H89.4z"/>
	<path class="st1" d="M15.5,125c0.3,2.9,0.8,5.8,1.4,8.7h209.8c0.6-2.9,1-5.8,1.4-8.7H15.5z"/>
	<path class="st1" d="M25.8,65.2c-1.4,2.8-2.7,5.7-3.8,8.7h199.6c-1.1-3-2.4-5.9-3.8-8.7C217.7,65.2,25.8,65.2,25.8,65.2z"/>
	<path class="st1" d="M16.2,95.1c-0.5,2.9-0.8,5.8-1.1,8.7h213.2c-0.2-2.9-0.6-5.8-1-8.7H16.2z"/>
</g>
</svg>
