<?xml version="1.0" encoding="utf-8"?>
<!-- Generator: Adobe Illustrator 22.0.1, SVG Export Plug-In . SVG Version: 6.00 Build 0)  -->
<svg version="1.1" id="Layer_1" xmlns="http://www.w3.org/2000/svg" xmlns:xlink="http://www.w3.org/1999/xlink" x="0px" y="0px"
	 viewBox="0 0 468.9 467.9" style="enable-background:new 0 0 468.9 467.9;" xml:space="preserve">
<style type="text/css">
	.st0{fill:url(#SVGID_1_);}
	.st1{fill:url(#SVGID_2_);}
	.st2{fill:url(#SVGID_3_);}
	.st3{fill:url(#SVGID_4_);}
	.st4{fill:url(#SVGID_5_);}
	.st5{fill:url(#SVGID_6_);}
</style>
<g>
	<g>
		<g>
			
				<linearGradient id="SVGID_1_" gradientUnits="userSpaceOnUse" x1="320.8415" y1="332.8818" x2="363.532" y2="332.8818" gradientTransform="matrix(1 0 0 -1 0 470)">
				<stop  offset="0" style="stop-color:#F15E60"/>
				<stop  offset="1" style="stop-color:#8C3A92"/>
			</linearGradient>
			<path class="st0" d="M360.2,159.2c-0.9,0-1.7-0.3-2.4-1l-36.1-37.6c-1.3-1.3-1.2-3.4,0.1-4.7c1.3-1.3,3.4-1.2,4.7,0.1l36.1,37.6
				c1.3,1.3,1.2,3.4-0.1,4.7C361.9,158.9,361,159.2,360.2,159.2z"/>
		</g>
		<g>
			
				<linearGradient id="SVGID_2_" gradientUnits="userSpaceOnUse" x1="320.8422" y1="332.882" x2="363.5312" y2="332.882" gradientTransform="matrix(1 0 0 -1 0 470)">
				<stop  offset="0" style="stop-color:#F15E60"/>
				<stop  offset="1" style="stop-color:#8C3A92"/>
			</linearGradient>
			<path class="st1" d="M324.2,159.2c-0.8,0-1.7-0.3-2.3-0.9c-1.3-1.3-1.4-3.4-0.1-4.7l36.1-37.6c1.3-1.3,3.4-1.4,4.7-0.1
				c1.3,1.3,1.4,3.4,0.1,4.7l-36.1,37.6C325.9,158.9,325,159.2,324.2,159.2z"/>
		</g>
	</g>
	<g>
		
			<linearGradient id="SVGID_3_" gradientUnits="userSpaceOnUse" x1="216.049" y1="246.312" x2="235.501" y2="246.312" gradientTransform="matrix(1 0 0 -1 0 470)">
			<stop  offset="0" style="stop-color:#F15E60"/>
			<stop  offset="1" style="stop-color:#8C3A92"/>
		</linearGradient>
		<path class="st2" d="M235.5,223.7c0,5.4-4.4,9.7-9.7,9.7c-5.4,0-9.7-4.4-9.7-9.7c0-5.4,4.4-9.7,9.7-9.7
			C231.1,214,235.5,218.3,235.5,223.7z"/>
	</g>
	<g>
		
			<linearGradient id="SVGID_4_" gradientUnits="userSpaceOnUse" x1="216.049" y1="214.459" x2="235.501" y2="214.459" gradientTransform="matrix(1 0 0 -1 0 470)">
			<stop  offset="0" style="stop-color:#F15E60"/>
			<stop  offset="1" style="stop-color:#8C3A92"/>
		</linearGradient>
		<circle class="st3" cx="225.8" cy="255.5" r="9.7"/>
	</g>
	<g>
		
			<linearGradient id="SVGID_5_" gradientUnits="userSpaceOnUse" x1="216.049" y1="182.605" x2="235.501" y2="182.605" gradientTransform="matrix(1 0 0 -1 0 470)">
			<stop  offset="0" style="stop-color:#F15E60"/>
			<stop  offset="1" style="stop-color:#8C3A92"/>
		</linearGradient>
		<circle class="st4" cx="225.8" cy="287.4" r="9.7"/>
	</g>
	<g>
		
			<linearGradient id="SVGID_6_" gradientUnits="userSpaceOnUse" x1="216.049" y1="150.752" x2="235.501" y2="150.752" gradientTransform="matrix(1 0 0 -1 0 470)">
			<stop  offset="0" style="stop-color:#F15E60"/>
			<stop  offset="1" style="stop-color:#8C3A92"/>
		</linearGradient>
		<circle class="st5" cx="225.8" cy="319.2" r="9.7"/>
	</g>
</g>
</svg>
