<?xml version="1.0" encoding="utf-8"?>
<!-- Generator: Adobe Illustrator 22.0.1, SVG Export Plug-In . SVG Version: 6.00 Build 0)  -->
<svg version="1.1" id="Layer_1" xmlns="http://www.w3.org/2000/svg" xmlns:xlink="http://www.w3.org/1999/xlink" x="0px" y="0px"
	 viewBox="0 0 208.7 181.9" style="enable-background:new 0 0 208.7 181.9;" xml:space="preserve">
<style type="text/css">
	.st0{fill:#F06597;}
</style>
<g>
	<path class="st0" d="M164.6,139.5c-3.7,3.7-9.8,3.7-13.6-0.1c-3.8-3.8-3.8-9.8-0.1-13.6c3.7-3.7,9.8-3.7,13.6,0.1
		C168.3,129.7,168.3,135.8,164.6,139.5z"/>
	<path class="st0" d="M103.6,139.5c-3.7,3.7-9.8,3.7-13.6-0.1c-3.8-3.8-3.8-9.8-0.1-13.6c3.7-3.7,9.8-3.7,13.6,0.1
		C107.3,129.7,107.3,135.8,103.6,139.5z"/>
	<path class="st0" d="M42.5,139.5c-3.7,3.7-9.8,3.7-13.6-0.1c-3.8-3.8-3.8-9.8-0.1-13.6c3.7-3.7,9.8-3.7,13.6,0.1
		C46.2,129.7,46.3,135.8,42.5,139.5z"/>
	<path class="st0" d="M201.2,179.2c-3.7,3.7-9.8,3.7-13.6-0.1c-3.8-3.8-3.8-9.8-0.1-13.6c3.7-3.7,9.8-3.7,13.6,0.1
		C204.9,169.4,205,175.5,201.2,179.2z"/>
	<path class="st0" d="M140.2,179.2c-3.7,3.7-9.8,3.7-13.6-0.1c-3.8-3.8-3.8-9.8-0.1-13.6c3.7-3.7,9.8-3.7,13.6,0.1
		C143.9,169.4,143.9,175.5,140.2,179.2z"/>
	<path class="st0" d="M79.2,179.2c-3.7,3.7-9.8,3.7-13.6-0.1c-3.8-3.8-3.8-9.8-0.1-13.6c3.7-3.7,9.8-3.7,13.6,0.1
		C82.8,169.4,82.9,175.5,79.2,179.2z"/>
	<path class="st0" d="M18.1,179.2c-3.7,3.7-9.8,3.7-13.6-0.1c-3.8-3.8-3.8-9.8-0.1-13.6c3.7-3.7,9.8-3.7,13.6,0.1
		C21.8,169.4,21.8,175.5,18.1,179.2z"/>
	<path class="st0" d="M164.6,63.2c-3.7,3.7-9.8,3.7-13.6-0.1c-3.8-3.8-3.8-9.8-0.1-13.6c3.7-3.7,9.8-3.7,13.6,0.1
		C168.3,53.4,168.3,59.5,164.6,63.2z"/>
	<path class="st0" d="M103.6,63.2c-3.7,3.7-9.8,3.7-13.6-0.1c-3.8-3.8-3.8-9.8-0.1-13.6c3.7-3.7,9.8-3.7,13.6,0.1
		C107.3,53.4,107.3,59.5,103.6,63.2z"/>
	<path class="st0" d="M42.5,63.2c-3.7,3.7-9.8,3.7-13.6-0.1c-3.8-3.8-3.8-9.8-0.1-13.6c3.7-3.7,9.8-3.7,13.6,0.1
		C46.2,53.4,46.3,59.5,42.5,63.2z"/>
	<path class="st0" d="M201.2,102.9c-3.7,3.7-9.8,3.7-13.6-0.1c-3.8-3.8-3.8-9.8-0.1-13.6c3.7-3.7,9.8-3.7,13.6,0.1
		C204.9,93.1,205,99.2,201.2,102.9z"/>
	<path class="st0" d="M140.2,102.9c-3.7,3.7-9.8,3.7-13.6-0.1c-3.8-3.8-3.8-9.8-0.1-13.6c3.7-3.7,9.8-3.7,13.6,0.1
		C143.9,93.1,143.9,99.2,140.2,102.9z"/>
	<path class="st0" d="M79.2,102.9c-3.7,3.7-9.8,3.7-13.6-0.1c-3.8-3.8-3.8-9.8-0.1-13.6c3.7-3.7,9.8-3.7,13.6,0.1
		C82.8,93.1,82.9,99.2,79.2,102.9z"/>
	<path class="st0" d="M18.1,102.9c-3.7,3.7-9.8,3.7-13.6-0.1C0.8,99,0.7,93,4.5,89.2c3.7-3.7,9.8-3.7,13.6,0.1
		C21.8,93.1,21.8,99.2,18.1,102.9z"/>
	<path class="st0" d="M201.2,17.4c-3.7,3.7-9.8,3.7-13.6-0.1c-3.8-3.8-3.8-9.8-0.1-13.6c3.7-3.7,9.8-3.7,13.6,0.1
		C204.9,7.6,205,13.7,201.2,17.4z"/>
	<path class="st0" d="M140.2,17.4c-3.7,3.7-9.8,3.7-13.6-0.1c-3.8-3.8-3.8-9.8-0.1-13.6c3.7-3.7,9.8-3.7,13.6,0.1
		C143.9,7.6,143.9,13.7,140.2,17.4z"/>
	<path class="st0" d="M79.2,17.4c-3.7,3.7-9.8,3.7-13.6-0.1c-3.8-3.8-3.8-9.8-0.1-13.6c3.7-3.7,9.8-3.7,13.6,0.1
		C82.8,7.6,82.9,13.7,79.2,17.4z"/>
	<path class="st0" d="M18.1,17.4c-3.7,3.7-9.8,3.7-13.6-0.1C0.8,13.6,0.7,7.5,4.5,3.8S14.3,0.1,18,3.9C21.8,7.6,21.8,13.7,18.1,17.4
		z"/>
</g>
</svg>
