<?xml version="1.0" encoding="utf-8"?>
<!-- Generator: Adobe Illustrator 22.0.1, SVG Export Plug-In . SVG Version: 6.00 Build 0)  -->
<svg version="1.1" id="Layer_1" xmlns="http://www.w3.org/2000/svg" xmlns:xlink="http://www.w3.org/1999/xlink" x="0px" y="0px"
	 viewBox="0 0 350.9 252.3" style="enable-background:new 0 0 350.9 252.3;" xml:space="preserve">
<style type="text/css">
	.st0{fill:#212121;}
	.st1{fill:#FFFFFF;stroke:#000000;stroke-width:7;stroke-miterlimit:10;}
	.st2{fill:#F06597;}
</style>
<g>
	<polygon class="st0" points="39.4,253.4 32.9,208.1 73.2,213.8 67.3,172.9 107.7,178.4 101.9,137.6 142.7,142.7 136.8,101.8 
		182.1,107.2 181.3,113.8 144.6,109.4 150.4,150.3 109.6,145.2 115.5,186.1 75.1,180.6 80.9,221.6 40.7,215.9 45.9,252.4 	"/>
</g>
<g>
	<polygon class="st0" points="6.5,220.4 0,175.2 40.3,180.9 34.4,140 74.8,145.5 69,104.7 109.8,109.8 103.9,68.9 149.2,74.3 
		148.4,80.8 111.7,76.4 117.5,117.4 76.7,112.3 82.6,153.2 42.1,147.7 48,188.6 7.8,182.9 13,219.5 	"/>
</g>
<circle class="st1" cx="290.2" cy="60.1" r="55.8"/>
<path class="st2" d="M343.1,95.5c0,29.2-23.7,52.9-52.9,52.9c-29.2,0-52.9-23.7-52.9-52.9c0-29.2,23.7-52.9,52.9-52.9
	C319.5,42.6,343.1,66.3,343.1,95.5z"/>
</svg>
