<?xml version="1.0" encoding="utf-8"?>
<!-- Generator: Adobe Illustrator 16.0.0, SVG Export Plug-In . SVG Version: 6.00 Build 0)  -->
<!DOCTYPE svg PUBLIC "-//W3C//DTD SVG 1.1//EN" "http://www.w3.org/Graphics/SVG/1.1/DTD/svg11.dtd">
<svg version="1.1" id="Layer_1" xmlns="http://www.w3.org/2000/svg" xmlns:xlink="http://www.w3.org/1999/xlink" x="0px" y="0px"
	 width="468.865px" height="467.938px" viewBox="0 0 468.865 467.938" enable-background="new 0 0 468.865 467.938"
	 xml:space="preserve">
<g id="XMLID_97_">
	<polygon id="XMLID_106_" fill="#F2778E" points="251.923,182.146 256.722,186.942 261.173,182.489 256.376,177.692 
		251.923,173.241 247.472,177.692 242.675,182.489 247.126,186.942 	"/>
	<polygon id="XMLID_105_" fill="#F2778E" points="251.923,199.667 256.722,204.464 261.173,200.011 256.376,195.214 
		251.923,190.761 247.472,195.214 242.675,200.011 247.126,204.464 	"/>
	<polygon id="XMLID_104_" fill="#F2778E" points="251.923,217.187 256.722,221.983 261.173,217.532 256.376,212.735 
		251.923,208.282 247.472,212.735 242.675,217.532 247.126,221.983 	"/>
	<polygon id="XMLID_103_" fill="#F2778E" points="251.923,234.708 256.722,239.505 261.173,235.052 256.376,230.255 
		251.923,225.804 247.472,230.255 242.675,235.052 247.126,239.505 	"/>
	<polygon id="XMLID_102_" fill="#F2778E" points="251.923,252.228 256.722,257.026 261.173,252.573 256.376,247.776 
		251.923,243.323 247.472,247.776 242.675,252.573 247.126,257.026 	"/>
	<polygon id="XMLID_101_" fill="#F2778E" points="251.923,269.749 256.722,274.546 261.173,270.093 256.376,265.296 
		251.923,260.845 247.472,265.296 242.675,270.093 247.126,274.546 	"/>
	<polygon id="XMLID_100_" fill="#F2778E" points="251.923,287.271 256.722,292.067 261.173,287.614 256.376,282.817 
		251.923,278.364 247.472,282.817 242.675,287.614 247.126,292.067 	"/>
	<polygon id="XMLID_99_" fill="#F2778E" points="251.923,304.79 256.722,309.587 261.173,305.136 256.376,300.339 251.923,295.886 
		247.472,300.339 242.675,305.136 247.126,309.587 	"/>
	<polygon id="XMLID_98_" fill="#F2778E" points="251.923,322.312 256.722,327.108 261.173,322.655 256.376,317.858 251.923,313.405 
		247.472,317.858 242.675,322.655 247.126,327.108 	"/>
</g>
</svg>
