<?xml version="1.0" encoding="utf-8"?>
<!-- Generator: Adobe Illustrator 22.0.1, SVG Export Plug-In . SVG Version: 6.00 Build 0)  -->
<svg version="1.1" id="Layer_1" xmlns="http://www.w3.org/2000/svg" xmlns:xlink="http://www.w3.org/1999/xlink" x="0px" y="0px"
	 viewBox="0 0 67.2 124.4" style="enable-background:new 0 0 67.2 124.4;" xml:space="preserve">
<style type="text/css">
	.st0{fill:#023D50;}
</style>
<g>
	<g>
		<path class="st0" d="M33.1,124.5L2,93.4c-1.3-1.3-1.3-3.4,0-4.7c1.3-1.3,3.4-1.3,4.7,0l26.4,26.4l27.5-27.5c1.3-1.3,3.4-1.3,4.7,0
			c1.3,1.3,1.3,3.4,0,4.7L33.1,124.5z"/>
	</g>
	<g>
		<path class="st0" d="M33.1,96.3L2,65.1c-1.3-1.3-1.3-3.4,0-4.7c1.3-1.3,3.4-1.3,4.7,0l26.4,26.4l27.5-27.5c1.3-1.3,3.4-1.3,4.7,0
			s1.3,3.4,0,4.7L33.1,96.3z"/>
	</g>
	<g>
		<path class="st0" d="M33.1,68L2,36.9c-1.3-1.3-1.3-3.4,0-4.7c1.3-1.3,3.4-1.3,4.7,0l26.4,26.4l27.5-27.5c1.3-1.3,3.4-1.3,4.7,0
			c1.3,1.3,1.3,3.4,0,4.7L33.1,68z"/>
	</g>
	<g>
		<path class="st0" d="M33.1,39.8L2,8.7C0.7,7.4,0.7,5.3,2,4c1.3-1.3,3.4-1.3,4.7,0l26.4,26.4L60.6,2.9c1.3-1.3,3.4-1.3,4.7,0
			s1.3,3.4,0,4.7L33.1,39.8z"/>
	</g>
</g>
</svg>
