<?xml version="1.0" encoding="utf-8"?>
<!-- Generator: Adobe Illustrator 16.0.0, SVG Export Plug-In . SVG Version: 6.00 Build 0)  -->
<!DOCTYPE svg PUBLIC "-//W3C//DTD SVG 1.1//EN" "http://www.w3.org/Graphics/SVG/1.1/DTD/svg11.dtd">
<svg version="1.1" id="Layer_1" xmlns="http://www.w3.org/2000/svg" xmlns:xlink="http://www.w3.org/1999/xlink" x="0px" y="0px"
	 width="468.865px" height="467.938px" viewBox="0 0 468.865 467.938" enable-background="new 0 0 468.865 467.938"
	 xml:space="preserve">
<g>
	<path fill="#004356" d="M280.174,199.762c0,30.959-25.095,56.051-56.052,56.051c-30.958,0-56.052-25.092-56.052-56.051
		c0-30.957,25.094-56.051,56.052-56.051C255.079,143.711,280.174,168.805,280.174,199.762z"/>
</g>
<g>
	<path fill="#212121" d="M191.425,354.332c2.805,3.072,5.802,5.959,8.944,8.682h140.073c3.144-2.723,6.141-5.609,8.945-8.682
		H191.425z"/>
	<path fill="#212121" d="M188.194,213.738h164.424c-2.542-3.045-5.26-5.936-8.117-8.682h-148.19
		C193.454,207.803,190.736,210.693,188.194,213.738z"/>
	<path fill="#212121" d="M312.658,183.885c-12.963-5.578-27.243-8.682-42.252-8.682c-15.01,0-29.29,3.104-42.252,8.682H312.658z"/>
	<path fill="#212121" d="M172.127,324.479c1.276,2.963,2.673,5.865,4.2,8.68h188.157c1.527-2.814,2.924-5.717,4.201-8.68H172.127z"
		/>
	<path fill="#212121" d="M238.099,384.188c10.196,3.227,21.048,4.979,32.308,4.979s22.111-1.752,32.307-4.979H238.099z"/>
	<path fill="#212121" d="M164.17,294.623c0.339,2.932,0.778,5.83,1.351,8.682h209.771c0.571-2.852,1.012-5.75,1.35-8.682H164.17z"/>
	<path fill="#212121" d="M174.43,234.91c-1.394,2.828-2.656,5.727-3.802,8.682h199.557c-1.146-2.955-2.409-5.854-3.802-8.682H174.43
		z"/>
	<path fill="#212121" d="M164.858,264.768c-0.467,2.855-0.812,5.752-1.05,8.682h213.195c-0.24-2.93-0.584-5.826-1.05-8.682H164.858z
		"/>
</g>
</svg>
