<?xml version="1.0" encoding="utf-8"?>
<!-- Generator: Adobe Illustrator 16.0.0, SVG Export Plug-In . SVG Version: 6.00 Build 0)  -->
<!DOCTYPE svg PUBLIC "-//W3C//DTD SVG 1.1//EN" "http://www.w3.org/Graphics/SVG/1.1/DTD/svg11.dtd">
<svg version="1.1" id="Layer_1" xmlns="http://www.w3.org/2000/svg" xmlns:xlink="http://www.w3.org/1999/xlink" x="0px" y="0px"
	 width="468.865px" height="467.938px" viewBox="0 0 468.865 467.938" enable-background="new 0 0 468.865 467.938"
	 xml:space="preserve">
<g>
	<path fill="#EF4023" d="M296.732,235.178c-3.726,3.727-9.798,3.691-13.565-0.076c-3.764-3.768-3.8-9.844-0.074-13.568
		c3.727-3.727,9.804-3.697,13.568,0.076C300.429,225.371,300.458,231.447,296.732,235.178z"/>
	<path fill="#EF4023" d="M235.688,235.178c-3.727,3.727-9.798,3.691-13.565-0.076c-3.765-3.768-3.801-9.844-0.075-13.568
		c3.727-3.727,9.805-3.697,13.568,0.076C239.384,225.371,239.414,231.447,235.688,235.178z"/>
	<path fill="#EF4023" d="M174.644,235.178c-3.727,3.727-9.798,3.691-13.565-0.076c-3.765-3.768-3.8-9.844-0.074-13.568
		c3.726-3.727,9.804-3.697,13.567,0.076C178.339,225.371,178.369,231.447,174.644,235.178z"/>
	<path fill="#EF4023" d="M333.359,274.857c-3.726,3.727-9.798,3.689-13.565-0.078c-3.764-3.768-3.8-9.842-0.074-13.568
		c3.727-3.725,9.804-3.695,13.568,0.078C337.056,265.051,337.085,271.125,333.359,274.857z"/>
	<path fill="#EF4023" d="M272.315,274.857c-3.727,3.727-9.799,3.689-13.566-0.078c-3.764-3.768-3.8-9.842-0.074-13.568
		c3.727-3.725,9.804-3.695,13.568,0.078C276.011,265.051,276.04,271.125,272.315,274.857z"/>
	<path fill="#EF4023" d="M211.271,274.857c-3.727,3.727-9.798,3.689-13.565-0.078c-3.765-3.768-3.8-9.842-0.075-13.568
		c3.727-3.725,9.805-3.695,13.568,0.078C214.966,265.051,214.996,271.125,211.271,274.857z"/>
	<path fill="#EF4023" d="M150.226,274.857c-3.727,3.727-9.797,3.689-13.564-0.078c-3.766-3.768-3.801-9.842-0.075-13.568
		c3.726-3.725,9.804-3.695,13.567,0.078C153.921,265.051,153.952,271.125,150.226,274.857z"/>
	<path fill="#EF4023" d="M296.732,158.873c-3.726,3.725-9.798,3.689-13.565-0.078c-3.764-3.768-3.8-9.842-0.074-13.568
		c3.727-3.725,9.804-3.695,13.568,0.078C300.429,149.066,300.458,155.141,296.732,158.873z"/>
	<path fill="#EF4023" d="M235.688,158.873c-3.727,3.725-9.798,3.689-13.565-0.078c-3.765-3.768-3.801-9.842-0.075-13.568
		c3.727-3.725,9.805-3.695,13.568,0.078C239.384,149.066,239.414,155.141,235.688,158.873z"/>
	<path fill="#EF4023" d="M174.644,158.873c-3.727,3.725-9.798,3.689-13.565-0.078c-3.765-3.768-3.8-9.842-0.074-13.568
		c3.726-3.725,9.804-3.695,13.567,0.078C178.339,149.066,178.369,155.141,174.644,158.873z"/>
	<path fill="#EF4023" d="M333.359,198.551c-3.726,3.727-9.798,3.691-13.565-0.076c-3.764-3.768-3.8-9.844-0.074-13.568
		c3.727-3.727,9.804-3.697,13.568,0.076C337.056,188.744,337.085,194.82,333.359,198.551z"/>
	<path fill="#EF4023" d="M272.315,198.551c-3.727,3.727-9.799,3.691-13.566-0.076c-3.764-3.768-3.8-9.844-0.074-13.568
		c3.727-3.727,9.804-3.697,13.568,0.076C276.011,188.744,276.04,194.82,272.315,198.551z"/>
	<path fill="#EF4023" d="M211.271,198.551c-3.727,3.727-9.798,3.691-13.565-0.076c-3.765-3.768-3.8-9.844-0.075-13.568
		c3.727-3.727,9.805-3.697,13.568,0.076C214.966,188.744,214.996,194.82,211.271,198.551z"/>
	<path fill="#EF4023" d="M150.226,198.551c-3.727,3.727-9.797,3.691-13.564-0.076c-3.766-3.768-3.801-9.844-0.075-13.568
		c3.726-3.727,9.804-3.697,13.567,0.076C153.921,188.744,153.952,194.82,150.226,198.551z"/>
	<path fill="#EF4023" d="M333.359,113.09c-3.726,3.725-9.798,3.689-13.565-0.078c-3.764-3.768-3.8-9.842-0.074-13.568
		c3.727-3.727,9.804-3.695,13.568,0.078C337.056,103.283,337.085,109.357,333.359,113.09z"/>
	<path fill="#EF4023" d="M272.315,113.09c-3.727,3.725-9.799,3.689-13.566-0.078c-3.764-3.768-3.8-9.842-0.074-13.568
		c3.727-3.727,9.804-3.695,13.568,0.078C276.011,103.283,276.04,109.357,272.315,113.09z"/>
	<path fill="#EF4023" d="M211.271,113.09c-3.727,3.725-9.798,3.689-13.565-0.078c-3.765-3.768-3.8-9.842-0.075-13.568
		c3.727-3.727,9.805-3.695,13.568,0.078C214.966,103.283,214.996,109.357,211.271,113.09z"/>
	<path fill="#EF4023" d="M150.226,113.09c-3.727,3.725-9.797,3.689-13.564-0.078c-3.766-3.768-3.801-9.842-0.075-13.568
		s9.804-3.695,13.567,0.078C153.921,103.283,153.952,109.357,150.226,113.09z"/>
</g>
</svg>
