<?xml version="1.0" encoding="utf-8"?>
<!-- Generator: Adobe Illustrator 16.0.0, SVG Export Plug-In . SVG Version: 6.00 Build 0)  -->
<!DOCTYPE svg PUBLIC "-//W3C//DTD SVG 1.1//EN" "http://www.w3.org/Graphics/SVG/1.1/DTD/svg11.dtd">
<svg version="1.1" id="Layer_1" xmlns="http://www.w3.org/2000/svg" xmlns:xlink="http://www.w3.org/1999/xlink" x="0px" y="0px"
	 width="472px" height="474.441px" viewBox="0 0 472 474.441" enable-background="new 0 0 472 474.441" xml:space="preserve">
<g id="XMLID_107_">
	<polygon id="XMLID_116_" fill="#F2778E" points="218.831,135.421 226.012,142.599 232.672,135.935 225.495,128.757 
		218.831,122.095 212.169,128.757 204.991,135.935 211.653,142.599 	"/>
	<polygon id="XMLID_115_" fill="#F2778E" points="218.831,161.638 226.012,168.817 232.672,162.155 225.495,154.976 
		218.831,148.312 212.169,154.976 204.991,162.155 211.653,168.817 	"/>
	<polygon id="XMLID_114_" fill="#F2778E" points="218.831,187.856 226.012,195.036 232.672,188.372 225.495,181.194 218.831,174.53 
		212.169,181.194 204.991,188.372 211.653,195.036 	"/>
	<polygon id="XMLID_113_" fill="#F2778E" points="218.831,214.075 226.012,221.253 232.672,214.591 225.495,207.413 
		218.831,200.753 212.169,207.413 204.991,214.591 211.653,221.253 	"/>
	<polygon id="XMLID_112_" fill="#F2778E" points="218.831,240.294 226.012,247.474 232.672,240.81 225.495,233.632 218.831,226.97 
		212.169,233.632 204.991,240.81 211.653,247.474 	"/>
	<polygon id="XMLID_111_" fill="#F2778E" points="218.831,266.513 226.012,273.692 232.672,267.028 225.495,259.851 
		218.831,253.187 212.169,259.851 204.991,267.028 211.653,273.692 	"/>
	<polygon id="XMLID_110_" fill="#F2778E" points="218.831,292.731 226.012,299.911 232.672,293.247 225.495,286.069 
		218.831,279.405 212.169,286.069 204.991,293.247 211.653,299.911 	"/>
	<polygon id="XMLID_109_" fill="#F2778E" points="218.831,318.95 226.012,326.128 232.672,319.466 225.495,312.29 218.831,305.624 
		212.169,312.29 204.991,319.466 211.653,326.128 	"/>
	<polygon id="XMLID_108_" fill="#F2778E" points="218.831,345.169 226.012,352.347 232.672,345.685 225.495,338.507 
		218.831,331.843 212.169,338.507 204.991,345.685 211.653,352.347 	"/>
</g>
</svg>
