<?xml version="1.0" encoding="utf-8"?>
<!-- Generator: Adobe Illustrator 22.0.1, SVG Export Plug-In . SVG Version: 6.00 Build 0)  -->
<svg version="1.1" id="Layer_1" xmlns="http://www.w3.org/2000/svg" xmlns:xlink="http://www.w3.org/1999/xlink" x="0px" y="0px"
	 viewBox="0 0 103.9 77" style="enable-background:new 0 0 103.9 77;" xml:space="preserve">
<style type="text/css">
	.st0{fill:#212121;}
</style>
<g>
	<polygon class="st0" points="50.6,47.3 27.8,47.3 27.8,24.5 21.8,24.5 21.8,47.3 -1,47.3 -1,53.3 21.8,53.3 21.8,76.1 27.8,76.1 
		27.8,53.3 50.6,53.3 	"/>
</g>
<g>
	<g>
		<polygon class="st0" points="72.3,35.2 74.8,34 76,36.5 78.5,35.3 79.8,37.8 74.8,40.2 		"/>
	</g>
	<g>
		<rect x="67.7" y="22" transform="matrix(0.8975 -0.441 0.441 0.8975 -4.1428 33.0655)" class="st0" width="2.8" height="6.8"/>
	</g>
	<g>
		<polygon class="st0" points="60.8,11.9 65.8,9.5 67.1,12 64.6,13.2 65.8,15.7 63.3,16.9 		"/>
	</g>
	<g>
		<rect x="72.2" y="4.8" transform="matrix(0.8972 -0.4417 0.4417 0.8972 5.0355 34.0423)" class="st0" width="6.8" height="2.8"/>
	</g>
	<g>
		<polygon class="st0" points="84.1,0.5 89.1,-2 91.6,3 89.1,4.2 87.9,1.7 85.4,3 		"/>
	</g>
	<g>
		<rect x="93.5" y="9.3" transform="matrix(0.8973 -0.4414 0.4414 0.8973 4.117 43.1753)" class="st0" width="2.8" height="6.8"/>
	</g>
	<g>
		<polygon class="st0" points="98.1,22.5 100.6,21.3 103.1,26.3 98.1,28.7 96.8,26.2 99.3,25 		"/>
	</g>
	<g>
		
			<rect x="84.9" y="30.6" transform="matrix(0.8972 -0.4417 0.4417 0.8972 -5.0481 42.3036)" class="st0" width="6.8" height="2.8"/>
	</g>
</g>
</svg>
