<?xml version="1.0" encoding="utf-8"?>
<!-- Generator: Adobe Illustrator 22.0.1, SVG Export Plug-In . SVG Version: 6.00 Build 0)  -->
<svg version="1.1" id="Layer_1" xmlns="http://www.w3.org/2000/svg" xmlns:xlink="http://www.w3.org/1999/xlink" x="0px" y="0px"
	 viewBox="0 0 50.9 430.1" style="enable-background:new 0 0 50.9 430.1;" xml:space="preserve">
<style type="text/css">
	.st0{fill:#F2778E;}
	.st1{fill:#5D5E5E;}
</style>
<g>
	<polygon id="XMLID_86_" class="st0" points="25.4,307.1 13.7,295.4 2.9,306.3 14.6,318 25.4,328.8 36.3,318 48,306.3 37.1,295.4 	
		"/>
	<polygon id="XMLID_55_" class="st0" points="25.4,258.2 13.7,246.5 2.9,257.4 14.6,269.1 25.4,279.9 36.3,269.1 48,257.4 
		37.1,246.5 	"/>
	<polygon id="XMLID_54_" class="st0" points="25.4,209.3 13.7,197.6 2.9,208.5 14.6,220.2 25.4,231 36.3,220.2 48,208.5 37.1,197.6 
			"/>
	<polygon id="XMLID_53_" class="st0" points="25.4,160.4 13.7,148.7 2.9,159.6 14.6,171.3 25.4,182.1 36.3,171.3 48,159.6 
		37.1,148.7 	"/>
	<polygon id="XMLID_52_" class="st0" points="25.4,111.5 13.7,99.8 2.9,110.7 14.6,122.4 25.4,133.2 36.3,122.4 48,110.7 37.1,99.8 
			"/>
	<polygon id="XMLID_51_" class="st0" points="25.4,62.6 13.7,50.9 2.9,61.8 14.6,73.5 25.4,84.3 36.3,73.5 48,61.8 37.1,50.9 	"/>
	<polygon id="XMLID_50_" class="st0" points="25.4,13.7 13.7,2 2.9,12.9 14.6,24.6 25.4,35.4 36.3,24.6 48,12.9 37.1,2 	"/>
	<polygon id="XMLID_49_" class="st1" points="25.4,400.5 13.7,388.8 2.9,399.6 14.6,411.3 25.4,422.2 36.3,411.3 48,399.6 
		37.1,388.8 	"/>
	<polygon id="XMLID_48_" class="st1" points="25.4,356 13.7,344.3 2.9,355.2 14.6,366.9 25.4,377.7 36.3,366.9 48,355.2 37.1,344.3 
			"/>
</g>
</svg>
