<?xml version="1.0" encoding="utf-8"?>
<!-- Generator: Adobe Illustrator 22.0.1, SVG Export Plug-In . SVG Version: 6.00 Build 0)  -->
<svg version="1.1" id="Layer_1" xmlns="http://www.w3.org/2000/svg" xmlns:xlink="http://www.w3.org/1999/xlink" x="0px" y="0px"
	 viewBox="0 0 156.7 155.4" style="enable-background:new 0 0 156.7 155.4;" xml:space="preserve">
<style type="text/css">
	.st0{fill:#212121;}
</style>
<g>
	<path class="st0" d="M22.6,130.8c2,2.2,4.1,4.2,6.3,6.2h99.3c2.2-1.9,4.4-4,6.3-6.2L22.6,130.8L22.6,130.8z"/>
	<path class="st0" d="M20.3,31.2h116.5C135,29,133.1,27,131,25H26C24,27,22.1,29,20.3,31.2z"/>
	<path class="st0" d="M108.5,10c-9.2-4-19.3-6.2-29.9-6.2c-10.6,0-20.8,2.2-29.9,6.2H108.5z"/>
	<path class="st0" d="M8.9,109.6c0.9,2.1,1.9,4.2,3,6.2h133.3c1.1-2,2.1-4.1,3-6.2H8.9z"/>
	<path class="st0" d="M55.6,151.9c7.2,2.3,14.9,3.5,22.9,3.5s15.7-1.2,22.9-3.5H55.6z"/>
	<path class="st0" d="M3.3,88.5c0.2,2.1,0.6,4.1,1,6.2h148.6c0.4-2,0.7-4.1,1-6.2H3.3z"/>
	<path class="st0" d="M10.5,46.2c-1,2-1.9,4.1-2.7,6.2h141.4c-0.8-2.1-1.7-4.2-2.7-6.2H10.5z"/>
	<path class="st0" d="M3.7,67.3c-0.3,2-0.6,4.1-0.7,6.2h151.1c-0.2-2.1-0.4-4.1-0.7-6.2H3.7z"/>
</g>
</svg>
