<?xml version="1.0" encoding="utf-8"?>
<!-- Generator: Adobe Illustrator 16.0.0, SVG Export Plug-In . SVG Version: 6.00 Build 0)  -->
<!DOCTYPE svg PUBLIC "-//W3C//DTD SVG 1.1//EN" "http://www.w3.org/Graphics/SVG/1.1/DTD/svg11.dtd">
<svg version="1.1" id="Layer_1" xmlns="http://www.w3.org/2000/svg" xmlns:xlink="http://www.w3.org/1999/xlink" x="0px" y="0px"
	 width="468.865px" height="467.938px" viewBox="0 0 468.865 467.938" enable-background="new 0 0 468.865 467.938"
	 xml:space="preserve">
<g>
	<g>
		<path fill="#023D50" d="M221.289,309.053l-31.119-31.115c-1.296-1.297-1.296-3.396,0-4.693c1.297-1.297,3.396-1.297,4.693,0
			l26.426,26.422l27.505-27.504c1.296-1.297,3.396-1.297,4.692,0c1.296,1.295,1.296,3.396,0,4.691L221.289,309.053z"/>
	</g>
	<g>
		<path fill="#023D50" d="M221.289,280.83l-31.119-31.117c-1.296-1.297-1.296-3.396,0-4.693c1.297-1.297,3.396-1.297,4.693,0
			l26.426,26.426l27.505-27.508c1.296-1.297,3.396-1.297,4.692,0c1.296,1.297,1.296,3.396,0,4.691L221.289,280.83z"/>
	</g>
	<g>
		<path fill="#023D50" d="M221.289,252.604l-31.119-31.119c-1.296-1.297-1.296-3.396,0-4.693c1.297-1.295,3.396-1.295,4.693,0
			l26.426,26.426l27.505-27.508c1.296-1.295,3.396-1.295,4.692,0c1.296,1.297,1.296,3.396,0,4.693L221.289,252.604z"/>
	</g>
	<g>
		<path fill="#023D50" d="M221.289,224.379l-31.119-31.115c-1.296-1.297-1.296-3.396,0-4.693c1.297-1.295,3.396-1.295,4.693,0
			l26.426,26.424l27.505-27.506c1.296-1.297,3.396-1.297,4.692,0c1.296,1.297,1.296,3.396,0,4.693L221.289,224.379z"/>
	</g>
</g>
</svg>
