<?xml version="1.0" encoding="utf-8"?>
<!-- Generator: Adobe Illustrator 22.0.1, SVG Export Plug-In . SVG Version: 6.00 Build 0)  -->
<svg version="1.1" id="Layer_1" xmlns="http://www.w3.org/2000/svg" xmlns:xlink="http://www.w3.org/1999/xlink" x="0px" y="0px"
	 viewBox="0 0 159.9 24.9" style="enable-background:new 0 0 159.9 24.9;" xml:space="preserve">
<style type="text/css">
	.st0{fill:url(#XMLID_2_);}
	.st1{fill:url(#XMLID_3_);}
	.st2{fill:url(#XMLID_4_);}
	.st3{fill:url(#XMLID_5_);}
	.st4{fill:url(#XMLID_6_);}
	.st5{fill:url(#XMLID_7_);}
	.st6{fill:url(#XMLID_8_);}
	.st7{fill:url(#XMLID_9_);}
	.st8{fill:url(#XMLID_10_);}
</style>
<g id="XMLID_87_">
	
		<linearGradient id="XMLID_2_" gradientUnits="userSpaceOnUse" x1="144.353" y1="34.644" x2="158.054" y2="34.644" gradientTransform="matrix(1 0 0 -1 0 48)">
		<stop  offset="0" style="stop-color:#FED307"/>
		<stop  offset="1" style="stop-color:#F99D1C"/>
	</linearGradient>
	<polygon id="XMLID_96_" class="st0" points="149.1,13.4 144.4,18.2 148.8,22.6 153.6,17.8 158.1,13.4 153.6,8.9 148.8,4.1 
		144.4,8.6 	"/>
	
		<linearGradient id="XMLID_3_" gradientUnits="userSpaceOnUse" x1="126.832" y1="34.644" x2="140.535" y2="34.644" gradientTransform="matrix(1 0 0 -1 0 48)">
		<stop  offset="0" style="stop-color:#FED307"/>
		<stop  offset="1" style="stop-color:#F99D1C"/>
	</linearGradient>
	<polygon id="XMLID_95_" class="st1" points="131.6,13.4 126.8,18.2 131.3,22.6 136.1,17.8 140.5,13.4 136.1,8.9 131.3,4.1 
		126.8,8.6 	"/>
	
		<linearGradient id="XMLID_4_" gradientUnits="userSpaceOnUse" x1="109.312" y1="34.644" x2="123.013" y2="34.644" gradientTransform="matrix(1 0 0 -1 0 48)">
		<stop  offset="0" style="stop-color:#FED307"/>
		<stop  offset="1" style="stop-color:#F99D1C"/>
	</linearGradient>
	<polygon id="XMLID_94_" class="st2" points="114.1,13.4 109.3,18.2 113.8,22.6 118.6,17.8 123,13.4 118.6,8.9 113.8,4.1 109.3,8.6 
			"/>
	
		<linearGradient id="XMLID_5_" gradientUnits="userSpaceOnUse" x1="91.791" y1="34.644" x2="105.492" y2="34.644" gradientTransform="matrix(1 0 0 -1 0 48)">
		<stop  offset="0" style="stop-color:#FED307"/>
		<stop  offset="1" style="stop-color:#F99D1C"/>
	</linearGradient>
	<polygon id="XMLID_93_" class="st3" points="96.6,13.4 91.8,18.2 96.2,22.6 101,17.8 105.5,13.4 101,8.9 96.2,4.1 91.8,8.6 	"/>
	
		<linearGradient id="XMLID_6_" gradientUnits="userSpaceOnUse" x1="74.269" y1="34.644" x2="87.972" y2="34.644" gradientTransform="matrix(1 0 0 -1 0 48)">
		<stop  offset="0" style="stop-color:#FED307"/>
		<stop  offset="1" style="stop-color:#F99D1C"/>
	</linearGradient>
	<polygon id="XMLID_92_" class="st4" points="79.1,13.4 74.3,18.2 78.7,22.6 83.5,17.8 88,13.4 83.5,8.9 78.7,4.1 74.3,8.6 	"/>
	
		<linearGradient id="XMLID_7_" gradientUnits="userSpaceOnUse" x1="56.75" y1="34.644" x2="70.451" y2="34.644" gradientTransform="matrix(1 0 0 -1 0 48)">
		<stop  offset="0" style="stop-color:#FED307"/>
		<stop  offset="1" style="stop-color:#F99D1C"/>
	</linearGradient>
	<polygon id="XMLID_91_" class="st5" points="61.5,13.4 56.8,18.2 61.2,22.6 66,17.8 70.5,13.4 66,8.9 61.2,4.1 56.8,8.6 	"/>
	
		<linearGradient id="XMLID_8_" gradientUnits="userSpaceOnUse" x1="39.228" y1="34.644" x2="52.931" y2="34.644" gradientTransform="matrix(1 0 0 -1 0 48)">
		<stop  offset="0" style="stop-color:#FED307"/>
		<stop  offset="1" style="stop-color:#F99D1C"/>
	</linearGradient>
	<polygon id="XMLID_90_" class="st6" points="44,13.4 39.2,18.2 43.7,22.6 48.5,17.8 52.9,13.4 48.5,8.9 43.7,4.1 39.2,8.6 	"/>
	
		<linearGradient id="XMLID_9_" gradientUnits="userSpaceOnUse" x1="21.708" y1="34.644" x2="35.41" y2="34.644" gradientTransform="matrix(1 0 0 -1 0 48)">
		<stop  offset="0" style="stop-color:#FED307"/>
		<stop  offset="1" style="stop-color:#F99D1C"/>
	</linearGradient>
	<polygon id="XMLID_89_" class="st7" points="26.5,13.4 21.7,18.2 26.2,22.6 31,17.8 35.4,13.4 31,8.9 26.2,4.1 21.7,8.6 	"/>
	
		<linearGradient id="XMLID_10_" gradientUnits="userSpaceOnUse" x1="4.187" y1="34.644" x2="17.89" y2="34.644" gradientTransform="matrix(1 0 0 -1 0 48)">
		<stop  offset="0" style="stop-color:#FED307"/>
		<stop  offset="1" style="stop-color:#F99D1C"/>
	</linearGradient>
	<polygon id="XMLID_88_" class="st8" points="9,13.4 4.2,18.2 8.6,22.6 13.4,17.8 17.9,13.4 13.4,8.9 8.6,4.1 4.2,8.6 	"/>
</g>
</svg>
