<?xml version="1.0" encoding="utf-8"?>
<!-- Generator: Adobe Illustrator 16.0.0, SVG Export Plug-In . SVG Version: 6.00 Build 0)  -->
<!DOCTYPE svg PUBLIC "-//W3C//DTD SVG 1.1//EN" "http://www.w3.org/Graphics/SVG/1.1/DTD/svg11.dtd">
<svg version="1.1" id="Layer_1" xmlns="http://www.w3.org/2000/svg" xmlns:xlink="http://www.w3.org/1999/xlink" x="0px" y="0px"
	 width="468.865px" height="467.938px" viewBox="0 0 468.865 467.938" enable-background="new 0 0 468.865 467.938"
	 xml:space="preserve">
<g>
	<path fill="#F06597" d="M318.411,311.701c-4.018,4.018-10.564,3.979-14.627-0.08c-4.06-4.062-4.099-10.613-0.081-14.631
		c4.021-4.018,10.571-3.986,14.634,0.08C322.399,301.131,322.432,307.68,318.411,311.701z"/>
	<path fill="#F06597" d="M252.587,311.701c-4.018,4.018-10.564,3.979-14.627-0.08c-4.06-4.062-4.098-10.613-0.08-14.631
		c4.021-4.018,10.57-3.986,14.633,0.08C256.575,301.131,256.607,307.68,252.587,311.701z"/>
	<path fill="#F06597" d="M186.763,311.701c-4.018,4.018-10.564,3.979-14.627-0.08c-4.06-4.062-4.098-10.613-0.08-14.631
		c4.021-4.018,10.57-3.986,14.633,0.08C190.751,301.131,190.783,307.68,186.763,311.701z"/>
	<path fill="#F06597" d="M357.905,354.486c-4.018,4.018-10.564,3.979-14.627-0.08c-4.06-4.062-4.098-10.613-0.08-14.631
		c4.021-4.017,10.57-3.984,14.633,0.081C361.894,343.916,361.927,350.467,357.905,354.486z"/>
	<path fill="#F06597" d="M292.081,354.486c-4.018,4.018-10.564,3.979-14.627-0.08c-4.06-4.062-4.098-10.613-0.08-14.631
		c4.021-4.017,10.57-3.984,14.633,0.081C296.07,343.916,296.103,350.467,292.081,354.486z"/>
	<path fill="#F06597" d="M226.257,354.486c-4.018,4.018-10.564,3.979-14.627-0.08c-4.06-4.062-4.098-10.613-0.08-14.631
		c4.021-4.017,10.57-3.984,14.634,0.081C230.246,343.916,230.278,350.467,226.257,354.486z"/>
	<path fill="#F06597" d="M160.433,354.486c-4.018,4.018-10.564,3.979-14.627-0.08c-4.059-4.062-4.098-10.613-0.08-14.631
		c4.021-4.017,10.571-3.984,14.634,0.081C164.422,343.916,164.454,350.467,160.433,354.486z"/>
	<path fill="#F06597" d="M318.411,229.42c-4.018,4.02-10.564,3.979-14.627-0.08c-4.06-4.062-4.099-10.611-0.081-14.629
		c4.021-4.019,10.571-3.986,14.634,0.08C322.399,218.851,322.432,225.399,318.411,229.42z"/>
	<path fill="#F06597" d="M252.587,229.42c-4.018,4.02-10.564,3.979-14.627-0.08c-4.06-4.062-4.098-10.611-0.08-14.629
		c4.021-4.019,10.57-3.986,14.633,0.08C256.575,218.851,256.607,225.399,252.587,229.42z"/>
	<path fill="#F06597" d="M186.763,229.42c-4.018,4.02-10.564,3.979-14.627-0.08c-4.06-4.062-4.098-10.611-0.08-14.629
		c4.021-4.019,10.57-3.986,14.633,0.08C190.751,218.851,190.783,225.399,186.763,229.42z"/>
	<path fill="#F06597" d="M357.905,272.207c-4.018,4.018-10.564,3.979-14.627-0.08c-4.06-4.062-4.098-10.613-0.08-14.631
		c4.021-4.018,10.57-3.985,14.633,0.08C361.894,261.635,361.927,268.186,357.905,272.207z"/>
	<path fill="#F06597" d="M292.081,272.207c-4.018,4.018-10.564,3.979-14.627-0.08c-4.06-4.062-4.098-10.613-0.08-14.631
		c4.021-4.018,10.57-3.985,14.633,0.08C296.07,261.635,296.103,268.186,292.081,272.207z"/>
	<path fill="#F06597" d="M226.257,272.207c-4.018,4.018-10.564,3.979-14.627-0.08c-4.06-4.062-4.098-10.613-0.08-14.631
		c4.021-4.018,10.57-3.985,14.634,0.08C230.246,261.635,230.278,268.186,226.257,272.207z"/>
	<path fill="#F06597" d="M160.433,272.207c-4.018,4.018-10.564,3.979-14.627-0.08c-4.059-4.062-4.098-10.613-0.08-14.631
		c4.021-4.018,10.571-3.985,14.634,0.08C164.422,261.635,164.454,268.186,160.433,272.207z"/>
	<path fill="#F06597" d="M357.905,180.053c-4.018,4.018-10.564,3.979-14.627-0.08c-4.06-4.062-4.098-10.613-0.08-14.63
		c4.021-4.018,10.57-3.986,14.633,0.08C361.894,169.482,361.927,176.031,357.905,180.053z"/>
	<path fill="#F06597" d="M292.081,180.053c-4.018,4.018-10.564,3.979-14.627-0.08c-4.06-4.062-4.098-10.613-0.08-14.63
		c4.021-4.018,10.57-3.986,14.633,0.08C296.07,169.482,296.103,176.031,292.081,180.053z"/>
	<path fill="#F06597" d="M226.257,180.053c-4.018,4.018-10.564,3.979-14.627-0.08c-4.06-4.062-4.098-10.613-0.08-14.63
		c4.021-4.018,10.57-3.986,14.634,0.08C230.246,169.482,230.278,176.031,226.257,180.053z"/>
	<path fill="#F06597" d="M160.433,180.053c-4.018,4.018-10.564,3.979-14.627-0.08c-4.059-4.062-4.098-10.613-0.08-14.63
		c4.021-4.018,10.571-3.986,14.634,0.08C164.422,169.482,164.454,176.031,160.433,180.053z"/>
</g>
</svg>
