<?xml version="1.0" encoding="utf-8"?>
<!-- Generator: Adobe Illustrator 16.0.0, SVG Export Plug-In . SVG Version: 6.00 Build 0)  -->
<!DOCTYPE svg PUBLIC "-//W3C//DTD SVG 1.1//EN" "http://www.w3.org/Graphics/SVG/1.1/DTD/svg11.dtd">
<svg version="1.1" id="Layer_1" xmlns="http://www.w3.org/2000/svg" xmlns:xlink="http://www.w3.org/1999/xlink" x="0px" y="0px"
	 width="468.865px" height="467.938px" viewBox="0 0 468.865 467.938" enable-background="new 0 0 468.865 467.938"
	 xml:space="preserve">
<g>
	<polygon id="XMLID_86_" fill="#F2778E" points="234.433,328.971 222.735,317.273 211.877,328.131 223.576,339.828 234.433,350.686 
		245.291,339.828 256.988,328.131 246.13,317.273 	"/>
	<polygon id="XMLID_55_" fill="#F2778E" points="234.433,280.07 222.735,268.373 211.877,279.23 223.576,290.928 234.433,301.785 
		245.291,290.928 256.988,279.23 246.13,268.373 	"/>
	<polygon id="XMLID_54_" fill="#F2778E" points="234.433,231.17 222.735,219.473 211.877,230.33 223.576,242.027 234.433,252.885 
		245.291,242.027 256.988,230.33 246.13,219.473 	"/>
	<polygon id="XMLID_53_" fill="#F2778E" points="234.433,182.271 222.735,170.572 211.877,181.43 223.576,193.129 234.433,203.986 
		245.291,193.129 256.988,181.43 246.13,170.572 	"/>
	<polygon id="XMLID_52_" fill="#F2778E" points="234.433,133.371 222.735,121.674 211.877,132.531 223.576,144.229 234.433,155.086 
		245.291,144.229 256.988,132.531 246.13,121.674 	"/>
	<polygon id="XMLID_51_" fill="#F2778E" points="234.433,84.471 222.735,72.773 211.877,83.631 223.576,95.328 234.433,106.186 
		245.291,95.328 256.988,83.631 246.13,72.773 	"/>
	<polygon id="XMLID_50_" fill="#F2778E" points="234.433,35.57 222.735,23.873 211.877,34.73 223.576,46.428 234.433,57.285 
		245.291,46.428 256.988,34.73 246.13,23.873 	"/>
	<polygon id="XMLID_49_" fill="#5D5E5E" points="234.433,422.35 222.735,410.652 211.877,421.51 223.576,433.207 234.433,444.064 
		245.291,433.207 256.988,421.51 246.13,410.652 	"/>
	<polygon id="XMLID_48_" fill="#5D5E5E" points="234.433,377.871 222.735,366.172 211.877,377.029 223.576,388.729 234.433,399.586 
		245.291,388.729 256.988,377.029 246.13,366.172 	"/>
</g>
</svg>
