<?xml version="1.0" encoding="utf-8"?>
<!-- Generator: Adobe Illustrator 22.0.1, SVG Export Plug-In . SVG Version: 6.00 Build 0)  -->
<svg version="1.1" id="Layer_1" xmlns="http://www.w3.org/2000/svg" xmlns:xlink="http://www.w3.org/1999/xlink" x="0px" y="0px"
	 viewBox="0 0 288.9 415.1" style="enable-background:new 0 0 288.9 415.1;" xml:space="preserve">
<style type="text/css">
	.st0{clip-path:url(#SVGID_2_);}
	.st1{fill:#3C5A9B;}
	.st2{fill:#F7DF13;}
</style>
<g>
	<g>
		<defs>
			<rect id="SVGID_1_" x="2" y="-131.1" width="567.4" height="609.1"/>
		</defs>
		<clipPath id="SVGID_2_">
			<use xlink:href="#SVGID_1_"  style="overflow:visible;"/>
		</clipPath>
		<g class="st0">
			<path class="st1" d="M-293.9-247.5c-0.9-0.6-1.8-1.3-2.7-1.9c50.3,45.5,103.4,88,164.4,117.8c35.4,17.3,72.2,31.7,107,50
				c12.8,6.7,26.8,23.3,16,33c-4.5,4-11.2,3.9-16.6,6.4c-9.9,4.5-13.9,17.3-11.7,27.9C-35.2-3.6-28.2,5.3-21,13.5
				C25.6,66,89.9,102.4,158.8,115.3c27.9,5.2,60.6,6,85.3,21.6c48.3,30.4-45.2,51.8-65.6,54c-66.8,7.4-134.2,10.1-201.4,8
				c-12.5-0.4-30,4.6-27.5,16.8c0.8,3.8,3.7,6.9,6.7,9.5c18.4,16.3,41.9,24.6,64,34.3c11,4.8,21.9,10,32,16.6
				c4.3,2.8,14.3,9,13.5,15.2c-1,8.1-17.9,8.1-24,9.1c-23,3.7-46.5,2.6-69.3-2.1c-46.5-9.7-89.8-34.2-124.1-66.9
				c-58.5-55.8-94.1-132.1-113.3-210.6C-283.9-57.8-291-166.7-293.9-247.5z"/>
			<path class="st2" d="M-206.2-174.1c-0.8-0.8-1.6-1.5-2.4-2.3c43.8,51.8,90.9,100.9,147.3,138.5C-28.5-16,6.1,3.2,38.2,25.9
				C50,34.3,61.7,52.6,49.7,60.7c-5,3.4-11.6,2.4-17.3,4.1C22,68,16.3,80.1,17.1,91c0.8,10.9,6.6,20.7,12.7,29.7
				c39.2,58.2,98.1,102.8,164.7,124.7c27,8.9,59.2,14,81.7,32.6c43.9,36.5-51.7,45.3-72.2,44.9c-67.2-1.5-134.3-7.7-200.6-18.7
				c-12.3-2-30.4,0.6-29.5,13c0.3,3.9,2.8,7.3,5.4,10.3c16,18.5,38.3,29.9,58.9,42.4c10.3,6.2,20.4,12.8,29.5,20.7
				c3.9,3.4,12.9,10.8,11.4,16.9c-2,7.9-18.8,5.7-25,5.8c-23.3,0.6-46.5-3.6-68.4-11.3c-44.8-15.8-84.5-45.8-114.1-82.7
				c-50.6-63-75.8-143.4-84.4-223.8C-221.4,15.3-214-93.6-206.2-174.1z"/>
		</g>
	</g>
</g>
</svg>
