<?xml version="1.0" encoding="utf-8"?>
<!-- Generator: Adobe Illustrator 16.0.0, SVG Export Plug-In . SVG Version: 6.00 Build 0)  -->
<!DOCTYPE svg PUBLIC "-//W3C//DTD SVG 1.1//EN" "http://www.w3.org/Graphics/SVG/1.1/DTD/svg11.dtd">
<svg version="1.1" id="Layer_1" xmlns="http://www.w3.org/2000/svg" xmlns:xlink="http://www.w3.org/1999/xlink" x="0px" y="0px"
	 width="1016.162px" height="1014.153px" viewBox="0 0 1016.162 1014.153" enable-background="new 0 0 1016.162 1014.153"
	 xml:space="preserve">
<g>
	<defs>
		<rect id="SVGID_152_" x="203.733" y="216.016" width="434.907" height="582.121"/>
	</defs>
	<clipPath id="SVGID_1_">
		<use xlink:href="#SVGID_152_"  overflow="visible"/>
	</clipPath>
	<g clip-path="url(#SVGID_1_)">
		<path fill="#E55BA0" d="M34.5,116.596c-0.891-0.643-1.781-1.285-2.668-1.933c50.273,45.505,103.442,88.022,164.354,117.825
			c35.38,17.314,72.155,31.732,107.036,50.027c12.809,6.719,26.803,23.35,15.998,32.961c-4.475,3.982-11.194,3.895-16.643,6.379
			c-9.913,4.535-13.919,17.258-11.676,27.93c2.241,10.664,9.274,19.635,16.505,27.793c46.526,52.479,110.845,88.895,179.781,101.787
			c27.927,5.221,60.569,6.018,85.287,21.555c48.327,30.377-45.214,51.777-65.6,54.039c-66.817,7.406-134.161,10.098-201.355,8.041
			c-12.457-0.383-30.044,4.637-27.476,16.832c0.811,3.852,3.728,6.883,6.677,9.492c18.362,16.258,41.87,24.578,63.989,34.256
			c11.027,4.822,21.937,9.951,31.986,16.619c4.266,2.834,14.261,9.027,13.514,15.215c-0.979,8.049-17.856,8.105-23.98,9.092
			c-22.965,3.689-46.522,2.609-69.253-2.131c-46.522-9.703-89.83-34.217-124.078-66.902
			c-58.467-55.791-94.116-132.121-113.266-210.637C44.48,306.324,37.394,197.361,34.5,116.596z"/>
		<path fill="#EB3591" d="M122.19,190.027c-0.797-0.756-1.593-1.516-2.39-2.266c43.814,51.748,90.892,100.926,147.319,138.527
			c32.787,21.834,67.326,40.996,99.482,63.744c11.809,8.352,23.482,26.686,11.5,34.785c-4.961,3.359-11.607,2.377-17.338,4.125
			c-10.434,3.182-16.08,15.262-15.27,26.135c0.814,10.873,6.592,20.691,12.68,29.732c39.18,58.174,98.113,102.777,164.74,124.676
			c26.992,8.869,59.24,13.975,81.688,32.646c43.883,36.5-51.671,45.342-72.175,44.887c-67.211-1.496-134.316-7.734-200.648-18.664
			c-12.293-2.023-30.391,0.625-29.459,13.047c0.295,3.928,2.785,7.318,5.362,10.299c16.048,18.541,38.251,29.898,58.897,42.412
			c10.293,6.236,20.425,12.771,29.502,20.707c3.861,3.375,12.947,10.832,11.387,16.865c-2.033,7.854-18.773,5.68-24.97,5.846
			c-23.255,0.617-46.466-3.568-68.368-11.273c-44.83-15.771-84.51-45.801-114.138-82.725
			c-50.575-63.039-75.809-143.416-84.41-223.771C106.985,379.406,114.375,270.461,122.19,190.027z"/>
	</g>
</g>
</svg>
