<?xml version="1.0" encoding="utf-8"?>
<!-- Generator: Adobe Illustrator 16.0.0, SVG Export Plug-In . SVG Version: 6.00 Build 0)  -->
<!DOCTYPE svg PUBLIC "-//W3C//DTD SVG 1.1//EN" "http://www.w3.org/Graphics/SVG/1.1/DTD/svg11.dtd">
<svg version="1.1" id="Layer_1" xmlns="http://www.w3.org/2000/svg" xmlns:xlink="http://www.w3.org/1999/xlink" x="0px" y="0px"
	 width="1285.599px" height="1200.48px" viewBox="0 0 1285.599 1200.48" enable-background="new 0 0 1285.599 1200.48"
	 xml:space="preserve">
<g>
	<path d="M597.665,159.104c-24.953,0-43.486-19.26-43.486-43.607v-0.243c0-24.104,18.169-43.849,44.214-43.849
		c15.988,0,25.558,5.33,33.431,13.082l-11.87,13.688c-6.541-5.936-13.204-9.569-21.684-9.569c-14.292,0-24.589,11.87-24.589,26.407
		v0.241c0,14.536,10.055,26.649,24.589,26.649c9.691,0,15.627-3.875,22.289-9.932l11.871,11.992
		C623.708,153.289,614.018,159.104,597.665,159.104z"/>
	<path d="M596.566,248.764c-20.106,0-35.006-14.9-35.006-33.556v-0.241c0-18.654,15.02-33.796,35.249-33.796
		c20.107,0,35.007,14.899,35.007,33.554v0.242C631.816,233.621,616.795,248.764,596.566,248.764z M613.646,214.967
		c0-9.568-6.904-17.928-17.08-17.928c-10.538,0-16.836,8.115-16.836,17.686v0.242c0,9.569,6.904,17.927,17.079,17.927
		c10.538,0,16.837-8.114,16.837-17.686V214.967z"/>
	<path d="M587.482,364.292v-88.427h18.411v88.427H587.482z"/>
	<path d="M596.566,454.247c-20.106,0-35.006-14.898-35.006-33.553v-0.243c0-18.653,15.02-33.796,35.249-33.796
		c20.107,0,35.007,14.899,35.007,33.553v0.243C631.816,439.106,616.795,454.247,596.566,454.247z M613.646,420.451
		c0-9.569-6.904-17.928-17.08-17.928c-10.538,0-16.836,8.116-16.836,17.685v0.243c0,9.571,6.904,17.927,17.079,17.927
		c10.538,0,16.837-8.115,16.837-17.684V420.451z"/>
	<path d="M615.282,505.253c-12.234,0-19.745,7.389-19.745,22.894v23.983h-18.412v-64.926h18.412v13.082
		c3.756-8.963,9.812-14.777,20.714-14.293v19.26H615.282z"/>
	<path d="M621.951,643.646v-36.219c0-8.721-3.876-13.203-10.78-13.203s-11.145,4.482-11.145,13.203v36.219h-18.412v-36.219
		c0-8.721-3.877-13.203-10.781-13.203c-6.903,0-11.144,4.482-11.144,13.203v36.219h-18.412v-64.927h18.412v9.206
		c4.24-5.451,9.812-10.416,19.139-10.416c8.479,0,14.899,3.754,18.291,10.295c5.693-6.662,12.478-10.295,21.319-10.295
		c13.689,0,21.925,8.235,21.925,23.861v42.275H621.951z"/>
	<path d="M602.874,742.538v-7.027c-4.482,4.966-10.66,8.237-19.624,8.237c-12.234,0-22.287-7.026-22.287-19.865v-0.243
		c0-14.172,10.779-20.713,26.163-20.713c6.541,0,11.266,1.09,15.868,2.664v-1.09c0-7.631-4.725-11.871-13.93-11.871
		c-7.025,0-11.992,1.333-17.928,3.514l-4.603-14.051c7.146-3.15,14.172-5.209,25.195-5.209c20.107,0,28.949,10.416,28.949,27.98
		v37.674H602.874z M603.236,716.372c-3.149-1.454-7.268-2.424-11.75-2.424c-7.873,0-12.718,3.15-12.718,8.965v0.242
		c0,4.967,4.117,7.873,10.053,7.873c8.602,0,14.415-4.723,14.415-11.386V716.372z"/>
	<path d="M602.623,864.058c-11.264,0-18.895-4.482-18.895-19.502v-30.768h-7.753v-15.746h7.753v-16.596h18.412v16.596h15.262v15.746
		h-15.262v27.74c0,4.238,1.815,6.299,5.934,6.299c3.393,0,6.422-0.849,9.086-2.303v14.777
		C613.284,862.604,608.803,864.058,602.623,864.058z"/>
	<path d="M587.907,928.761v-16.354h19.381v16.354H587.907z M588.392,1000.833v-64.926h18.412v64.926H588.392z"/>
	<path d="M601.232,1106.552c-19.503,0-33.795-15.021-33.795-33.555v-0.242c0-18.533,14.172-33.795,34.037-33.795
		c12.234,0,19.864,4.117,25.922,10.9l-11.265,12.113c-4.119-4.361-8.237-7.146-14.778-7.146c-9.207,0-15.746,8.115-15.746,17.686
		v0.242c0,9.934,6.419,17.928,16.472,17.928c6.179,0,10.418-2.664,14.899-6.904l10.781,10.9
		C621.461,1101.583,614.193,1106.552,601.232,1106.552z"/>
</g>
</svg>
