<?xml version="1.0" encoding="utf-8"?>
<!-- Generator: Adobe Illustrator 22.0.1, SVG Export Plug-In . SVG Version: 6.00 Build 0)  -->
<svg version="1.1" id="Layer_1" xmlns="http://www.w3.org/2000/svg" xmlns:xlink="http://www.w3.org/1999/xlink" x="0px" y="0px"
	 viewBox="0 0 20.7 161" style="enable-background:new 0 0 20.7 161;" xml:space="preserve">
<style type="text/css">
	.st0{fill:#F2778E;}
</style>
<g id="XMLID_97_">
	<polygon id="XMLID_106_" class="st0" points="10.6,14.1 15.4,18.9 19.8,14.5 15,9.7 10.6,5.2 6.1,9.7 1.3,14.5 5.8,18.9 	"/>
	<polygon id="XMLID_105_" class="st0" points="10.6,31.7 15.4,36.5 19.8,32 15,27.2 10.6,22.8 6.1,27.2 1.3,32 5.8,36.5 	"/>
	<polygon id="XMLID_104_" class="st0" points="10.6,49.2 15.4,54 19.8,49.5 15,44.7 10.6,40.3 6.1,44.7 1.3,49.5 5.8,54 	"/>
	<polygon id="XMLID_103_" class="st0" points="10.6,66.7 15.4,71.5 19.8,67.1 15,62.3 10.6,57.8 6.1,62.3 1.3,67.1 5.8,71.5 	"/>
	<polygon id="XMLID_102_" class="st0" points="10.6,84.2 15.4,89 19.8,84.6 15,79.8 10.6,75.3 6.1,79.8 1.3,84.6 5.8,89 	"/>
	<polygon id="XMLID_101_" class="st0" points="10.6,101.7 15.4,106.5 19.8,102.1 15,97.3 10.6,92.8 6.1,97.3 1.3,102.1 5.8,106.5 	
		"/>
	<polygon id="XMLID_100_" class="st0" points="10.6,119.3 15.4,124.1 19.8,119.6 15,114.8 10.6,110.4 6.1,114.8 1.3,119.6 
		5.8,124.1 	"/>
	<polygon id="XMLID_99_" class="st0" points="10.6,136.8 15.4,141.6 19.8,137.1 15,132.3 10.6,127.9 6.1,132.3 1.3,137.1 5.8,141.6 
			"/>
	<polygon id="XMLID_98_" class="st0" points="10.6,154.3 15.4,159.1 19.8,154.7 15,149.9 10.6,145.4 6.1,149.9 1.3,154.7 5.8,159.1 
			"/>
</g>
</svg>
