<?xml version="1.0" encoding="utf-8"?>
<!-- Generator: Adobe Illustrator 22.0.1, SVG Export Plug-In . SVG Version: 6.00 Build 0)  -->
<svg version="1.1" id="Layer_1" xmlns="http://www.w3.org/2000/svg" xmlns:xlink="http://www.w3.org/1999/xlink" x="0px" y="0px"
	 viewBox="0 0 212.1 249.8" style="enable-background:new 0 0 212.1 249.8;" xml:space="preserve">
<style type="text/css">
	.st0{fill:#004356;}
	.st1{fill:#212121;}
</style>
<g>
	<path class="st0" d="M116.4,57.3c0,31-25.1,56.1-56.1,56.1c-31,0-56.1-25.1-56.1-56.1c0-31,25.1-56.1,56.1-56.1
		C91.3,1.3,116.4,26.4,116.4,57.3z"/>
</g>
<g>
	<path class="st1" d="M27.6,211.9c2.8,3.1,5.8,6,8.9,8.7h140.1c3.1-2.7,6.1-5.6,8.9-8.7H27.6z"/>
	<path class="st1" d="M24.4,71.3h164.4c-2.5-3-5.3-5.9-8.1-8.7H32.5C29.6,65.4,26.9,68.3,24.4,71.3z"/>
	<path class="st1" d="M148.8,41.5c-13-5.6-27.2-8.7-42.3-8.7c-15,0-29.3,3.1-42.3,8.7H148.8z"/>
	<path class="st1" d="M8.3,182.1c1.3,3,2.7,5.9,4.2,8.7h188.2c1.5-2.8,2.9-5.7,4.2-8.7H8.3z"/>
	<path class="st1" d="M74.3,241.8c10.2,3.2,21,5,32.3,5s22.1-1.8,32.3-5H74.3z"/>
	<path class="st1" d="M0.4,152.2c0.3,2.9,0.8,5.8,1.4,8.7h209.8c0.6-2.9,1-5.8,1.4-8.7H0.4z"/>
	<path class="st1" d="M10.6,92.5c-1.4,2.8-2.7,5.7-3.8,8.7h199.6c-1.1-3-2.4-5.9-3.8-8.7H10.6z"/>
	<path class="st1" d="M1.1,122.3c-0.5,2.9-0.8,5.8-1.1,8.7h213.2c-0.2-2.9-0.6-5.8-1-8.7H1.1z"/>
</g>
</svg>
