<?xml version="1.0" encoding="utf-8"?>
<!-- Generator: Adobe Illustrator 16.0.0, SVG Export Plug-In . SVG Version: 6.00 Build 0)  -->
<!DOCTYPE svg PUBLIC "-//W3C//DTD SVG 1.1//EN" "http://www.w3.org/Graphics/SVG/1.1/DTD/svg11.dtd">
<svg version="1.1" id="Layer_1" xmlns="http://www.w3.org/2000/svg" xmlns:xlink="http://www.w3.org/1999/xlink" x="0px" y="0px"
	 width="335.933px" height="309.119px" viewBox="0 0 335.933 309.119" enable-background="new 0 0 335.933 309.119"
	 xml:space="preserve">
<g>
	<path fill="#FFFFFF" d="M287.834,164.886c0-6.064,0.156-12.118,0.461-18.155l-25.404,64.562l-62.817-48.072l-29.329,74.519
		l-62.359-48.199L75.939,272l11.877,4.678l26.221-66.642l62.365,48.202l29.354-74.595l62.813,48.065l19.671-49.99
		C287.979,176.12,287.834,170.508,287.834,164.886z"/>
</g>
<g>
	<path fill="#FFFFFF" d="M299.66,73.248l-31.372-23.432l-29.298,74.457l-62.817-48.071l-29.329,74.518l-62.359-48.198
		l-32.447,82.463l11.879,4.676l26.221-66.642l62.364,48.2l29.355-74.594l62.813,48.066l29.373-74.65l22.361,16.703
		C297.402,82.223,298.492,77.725,299.66,73.248z"/>
</g>
</svg>
