<?xml version="1.0" encoding="utf-8"?>
<!-- Generator: Adobe Illustrator 16.0.0, SVG Export Plug-In . SVG Version: 6.00 Build 0)  -->
<!DOCTYPE svg PUBLIC "-//W3C//DTD SVG 1.1//EN" "http://www.w3.org/Graphics/SVG/1.1/DTD/svg11.dtd">
<svg version="1.1" id="Layer_1" xmlns="http://www.w3.org/2000/svg" xmlns:xlink="http://www.w3.org/1999/xlink" x="0px" y="0px"
	 width="419.84px" height="510.352px" viewBox="0 0 419.84 510.352" enable-background="new 0 0 419.84 510.352"
	 xml:space="preserve">
<g>
	<defs>
		<rect id="SVGID_172_" x="-0.001" width="392.239" height="542.919"/>
	</defs>
	<clipPath id="SVGID_2_">
		<use xlink:href="#SVGID_172_"  overflow="visible"/>
	</clipPath>
	<g clip-path="url(#SVGID_2_)">
		<path fill="#201A58" d="M425.24,371.896c-8.437,8.436-22.185,8.358-30.716-0.168c-8.524-8.531-8.606-22.283-0.17-30.721
			c8.442-8.441,22.199-8.371,30.73,0.168C433.615,349.699,433.684,363.456,425.24,371.896z"/>
		<path fill="#201A58" d="M287.014,371.896c-8.437,8.436-22.185,8.358-30.716-0.168c-8.524-8.531-8.604-22.283-0.168-30.721
			c8.443-8.441,22.197-8.371,30.729,0.168C295.389,349.699,295.457,363.456,287.014,371.896z"/>
		<path fill="#201A58" d="M148.787,371.896c-8.437,8.436-22.185,8.358-30.716-0.168c-8.524-8.531-8.604-22.283-0.168-30.721
			c8.443-8.441,22.197-8.371,30.729,0.168C157.162,349.699,157.23,363.456,148.787,371.896z"/>
		<path fill="#201A58" d="M369.949,461.746c-8.437,8.436-22.185,8.354-30.716-0.168c-8.525-8.531-8.604-22.287-0.168-30.725
			c8.442-8.437,22.196-8.371,30.728,0.168C378.326,439.545,378.394,453.301,369.949,461.746z"/>
		<path fill="#201A58" d="M231.723,461.746c-8.437,8.436-22.185,8.354-30.716-0.168c-8.525-8.531-8.604-22.287-0.168-30.725
			c8.442-8.437,22.196-8.371,30.729,0.168C240.1,439.545,240.167,453.301,231.723,461.746z"/>
		<path fill="#201A58" d="M93.496,461.746c-8.437,8.436-22.185,8.354-30.716-0.168c-8.522-8.531-8.604-22.287-0.168-30.725
			c8.442-8.437,22.198-8.371,30.729,0.168C101.873,439.545,101.94,453.301,93.496,461.746z"/>
		<path fill="#201A58" d="M425.24,199.115c-8.437,8.436-22.185,8.354-30.716-0.168c-8.524-8.531-8.606-22.287-0.17-30.725
			c8.442-8.437,22.199-8.366,30.73,0.168C433.615,176.918,433.684,190.67,425.24,199.115z"/>
		<path fill="#201A58" d="M287.014,199.115c-8.437,8.436-22.185,8.354-30.716-0.168c-8.524-8.531-8.604-22.287-0.168-30.725
			c8.443-8.437,22.197-8.366,30.729,0.168C295.389,176.918,295.457,190.67,287.014,199.115z"/>
		<path fill="#201A58" d="M148.787,199.115c-8.437,8.436-22.185,8.354-30.716-0.168c-8.524-8.531-8.604-22.287-0.168-30.725
			c8.443-8.437,22.197-8.366,30.729,0.168C157.162,176.918,157.23,190.67,148.787,199.115z"/>
		<path fill="#201A58" d="M369.949,288.961c-8.437,8.437-22.185,8.358-30.716-0.168c-8.525-8.531-8.604-22.286-0.168-30.725
			c8.442-8.437,22.196-8.367,30.728,0.168C378.326,266.764,378.394,280.52,369.949,288.961z"/>
		<path fill="#201A58" d="M231.723,288.961c-8.437,8.437-22.185,8.358-30.716-0.168c-8.525-8.531-8.604-22.286-0.168-30.725
			c8.442-8.437,22.196-8.367,30.729,0.168C240.1,266.764,240.167,280.52,231.723,288.961z"/>
		<path fill="#201A58" d="M93.496,288.961c-8.437,8.437-22.185,8.358-30.716-0.168c-8.522-8.531-8.604-22.286-0.168-30.725
			c8.442-8.437,22.198-8.367,30.729,0.168C101.873,266.764,101.94,280.52,93.496,288.961z"/>
		<path fill="#201A58" d="M369.949,95.447c-8.437,8.437-22.185,8.354-30.716-0.173c-8.525-8.53-8.604-22.283-0.168-30.72
			c8.442-8.437,22.196-8.371,30.728,0.168C378.326,73.246,378.394,87.002,369.949,95.447z"/>
		<path fill="#201A58" d="M231.723,95.447c-8.437,8.437-22.185,8.354-30.716-0.173c-8.525-8.53-8.604-22.283-0.168-30.72
			c8.442-8.437,22.196-8.371,30.729,0.168C240.1,73.246,240.167,87.002,231.723,95.447z"/>
		<path fill="#201A58" d="M93.496,95.447c-8.437,8.437-22.185,8.354-30.716-0.173c-8.522-8.53-8.604-22.283-0.168-30.72
			c8.442-8.437,22.198-8.371,30.729,0.168C101.873,73.246,101.94,87.002,93.496,95.447z"/>
	</g>
</g>
</svg>
