<?xml version="1.0" encoding="utf-8"?>
<!-- Generator: Adobe Illustrator 16.0.0, SVG Export Plug-In . SVG Version: 6.00 Build 0)  -->
<!DOCTYPE svg PUBLIC "-//W3C//DTD SVG 1.1//EN" "http://www.w3.org/Graphics/SVG/1.1/DTD/svg11.dtd">
<svg version="1.1" id="Layer_1" xmlns="http://www.w3.org/2000/svg" xmlns:xlink="http://www.w3.org/1999/xlink" x="0px" y="0px"
	 width="719.855px" height="661.973px" viewBox="0 0 719.855 661.973" enable-background="new 0 0 719.855 661.973"
	 xml:space="preserve">
<path fill="#484EA1" d="M659.828,325.459c0-24.312,2.48-48.437,7.267-72.018c-4.788-23.59-7.267-47.722-7.267-72.04
	c0-41.741,7.287-82.938,21.076-121.765c-180.027-14.973-331.989,0.132-341.588,91.225
	C315.089,380.811-473.001,607.688,549.86,619.58c38.214,0.445,75.812,1.389,112.761,2.754c-1.85-14.798-2.793-29.751-2.793-44.773
	c0-43.283,7.848-85.975,22.643-126.051C667.676,411.434,659.828,368.742,659.828,325.459z"/>
</svg>
