<?xml version="1.0" encoding="utf-8"?>
<!-- Generator: Adobe Illustrator 16.0.0, SVG Export Plug-In . SVG Version: 6.00 Build 0)  -->
<!DOCTYPE svg PUBLIC "-//W3C//DTD SVG 1.1//EN" "http://www.w3.org/Graphics/SVG/1.1/DTD/svg11.dtd">
<svg version="1.1" id="Layer_1" xmlns="http://www.w3.org/2000/svg" xmlns:xlink="http://www.w3.org/1999/xlink" x="0px" y="0px"
	 width="749.85px" height="1490.221px" viewBox="0 0 749.85 1490.221" enable-background="new 0 0 749.85 1490.221"
	 xml:space="preserve">
<g>
	<path d="M452.195,104.771v-0.422c0-43.122,32.978-76.941,77.789-76.941c30.227,0,49.674,12.683,62.778,30.651l-30.86,23.885
		c-8.455-10.357-18.178-17.334-32.342-17.334c-20.715,0-35.3,17.757-35.3,39.318v0.421c0,22.196,14.585,39.529,35.3,39.529
		c15.432,0,24.52-7.188,33.398-17.968l30.86,21.982c-13.949,19.238-32.763,33.398-65.314,33.398
		C486.228,181.291,452.195,148.95,452.195,104.771z"/>
	<path d="M607.861,839.819v-0.424c0-23.884,17.967-35.935,44.811-35.935c10.57,0,20.927,1.902,27.479,4.438v-1.901
		c0-12.048-7.397-18.813-22.827-18.813c-12.051,0-21.35,2.537-31.708,6.342l-8.244-28.113c12.895-5.285,26.633-8.879,46.292-8.879
		c20.505,0,34.455,4.863,43.544,13.953c8.666,8.453,12.261,20.292,12.261,36.355v65.74h-39.528v-12.049
		c-8.034,8.666-18.813,14.584-33.822,14.584C624.349,875.118,607.861,862.437,607.861,839.819z M680.576,831.152v-5.284
		c-4.229-1.69-9.935-2.96-15.854-2.96c-11.625,0-18.39,5.497-18.39,14.163v0.422c0,7.821,5.919,12.472,14.163,12.472
		C672.33,849.965,680.576,842.567,680.576,831.152z"/>
	<path d="M458.687,1339.556h40.162v23.041c6.553-15.644,17.122-25.788,36.146-24.943v42.277h-3.383
		c-20.927,0-32.764,12.047-32.764,38.257v35.725h-40.162V1339.556z"/>
	<path d="M26.703,1215.912v-0.421c0-33.398,23.885-59.822,57.707-59.822c39.316,0,57.496,28.958,57.496,62.569
		c0,2.538,0,5.495-0.211,8.243h-76.52c3.171,12.473,12.259,18.812,24.73,18.812c9.726,0,17.122-3.592,25.366-11.625l22.195,18.39
		c-10.992,13.952-26.845,23.252-49.462,23.252C52.068,1275.311,26.703,1251.212,26.703,1215.912z M104.49,1205.978
		c-1.479-12.683-9.09-20.715-20.081-20.715c-10.57,0-17.756,8.032-19.87,20.715H104.49z"/>
</g>
</svg>
