<?xml version="1.0" encoding="utf-8"?>
<!-- Generator: Adobe Illustrator 16.0.0, SVG Export Plug-In . SVG Version: 6.00 Build 0)  -->
<!DOCTYPE svg PUBLIC "-//W3C//DTD SVG 1.1//EN" "http://www.w3.org/Graphics/SVG/1.1/DTD/svg11.dtd">
<svg version="1.1" id="Layer_1" xmlns="http://www.w3.org/2000/svg" xmlns:xlink="http://www.w3.org/1999/xlink" x="0px" y="0px"
	 width="371.725px" height="352.539px" viewBox="0 0 371.725 352.539" enable-background="new 0 0 371.725 352.539"
	 xml:space="preserve">
<g>
	<path fill="#212121" d="M83.718,269.153c3.747,4.098,7.75,7.951,11.956,11.602h187.185c4.207-3.65,8.207-7.504,11.953-11.602
		H83.718z"/>
	<path fill="#212121" d="M79.398,81.266h219.737c-3.404-4.073-7.028-7.934-10.844-11.603H90.242
		C86.422,73.332,82.797,77.192,79.398,81.266z"/>
	<path fill="#212121" d="M245.727,41.37c-17.323-7.457-36.402-11.602-56.462-11.602c-20.056,0-39.136,4.145-56.458,11.602H245.727z"
		/>
	<path fill="#212121" d="M57.924,229.251c1.709,3.96,3.577,7.838,5.617,11.607h251.447c2.044-3.77,3.912-7.647,5.621-11.607H57.924z
		"/>
	<path fill="#212121" d="M146.092,309.05c13.625,4.309,28.123,6.649,43.173,6.649s29.551-2.341,43.176-6.649H146.092z"/>
	<path fill="#212121" d="M47.29,189.35c0.457,3.916,1.042,7.796,1.809,11.608h280.335c0.763-3.812,1.352-7.692,1.805-11.608H47.29z"
		/>
	<path fill="#212121" d="M61.003,109.56c-1.86,3.775-3.547,7.648-5.079,11.6h266.685c-1.532-3.951-3.219-7.824-5.079-11.6H61.003z"
		/>
	<path fill="#212121" d="M48.214,149.456c-0.619,3.816-1.08,7.69-1.407,11.6h284.917c-0.328-3.909-0.781-7.783-1.407-11.6H48.214z"
		/>
</g>
</svg>
