<?xml version="1.0" encoding="utf-8"?>
<!-- Generator: Adobe Illustrator 16.0.0, SVG Export Plug-In . SVG Version: 6.00 Build 0)  -->
<!DOCTYPE svg PUBLIC "-//W3C//DTD SVG 1.1//EN" "http://www.w3.org/Graphics/SVG/1.1/DTD/svg11.dtd">
<svg version="1.1" id="Layer_1" xmlns="http://www.w3.org/2000/svg" xmlns:xlink="http://www.w3.org/1999/xlink" x="0px" y="0px"
	 width="288.096px" height="2246.333px" viewBox="0 0 288.096 2246.333" enable-background="new 0 0 288.096 2246.333"
	 xml:space="preserve">
<g>
	<path d="M150.69,736.85v-0.458c0-25.792,19.401-38.801,48.389-38.801c11.412,0,22.599,2.054,29.674,4.792v-2.055
		c0-13.009-7.989-20.315-24.651-20.315c-13.01,0-23.054,2.74-34.238,6.849l-8.902-30.357c13.924-5.707,28.761-9.588,49.988-9.588
		c22.141,0,37.206,5.253,47.021,15.066c9.357,9.131,13.238,21.912,13.238,39.259v70.987h-42.684v-13.01
		c-8.673,9.357-20.314,15.75-36.521,15.75C168.493,774.969,150.69,761.273,150.69,736.85z M229.208,727.491v-5.708
		c-4.564-1.825-10.728-3.193-17.118-3.193c-12.555,0-19.859,5.934-19.859,15.293v0.455c0,8.448,6.391,13.467,15.293,13.467
		C220.308,747.805,229.208,739.816,229.208,727.491z"/>
	<path d="M25.912,43.565h44.281v59.801h56.835V43.565h44.282v159.776h-44.282v-60.714H70.193v60.714H25.912V43.565z"/>
	<path d="M58.912,1360.662h44.966v31.955H58.912V1360.662z M59.824,1403.801h43.14v123.484h-43.14V1403.801z"/>
	<path d="M147.237,2093.438h43.369v24.881c7.075-16.893,18.488-27.848,39.031-26.935v45.651h-3.653
		c-22.596,0-35.377,13.009-35.377,41.312v38.576h-43.369V2093.438z"/>
</g>
</svg>
