<?xml version="1.0" encoding="utf-8"?>
<!-- Generator: Adobe Illustrator 16.0.0, SVG Export Plug-In . SVG Version: 6.00 Build 0)  -->
<!DOCTYPE svg PUBLIC "-//W3C//DTD SVG 1.1//EN" "http://www.w3.org/Graphics/SVG/1.1/DTD/svg11.dtd">
<svg version="1.1" id="Layer_1" xmlns="http://www.w3.org/2000/svg" xmlns:xlink="http://www.w3.org/1999/xlink" x="0px" y="0px"
	 width="545.891px" height="2070.552px" viewBox="0 0 545.891 2070.552" enable-background="new 0 0 545.891 2070.552"
	 xml:space="preserve">
<path fill="#F6EC13" d="M36.042,40.26c9.542,165.334,14.374,330.921,17.106,496.501c2.248,136.264,3.136,272.545,4.077,408.823
	c0.467,67.769,0.946,135.537,1.633,203.305c0.683,67.348,2.122,134.462-2.172,201.731c-4.233,66.323-11.152,132.5-13.467,198.938
	c-2.247,64.507,3.062,128.081,7.561,192.335c3.628,51.817,8.527,104.182,1.677,155.945c-4.888,36.938-8.079,83.989-18.018,124.158
	c600.506-148.561,447.341-385.724,482.569-848.395C541.825,847.689,227.626,325.401,36.042,40.26z"/>
</svg>
