<?xml version="1.0" encoding="utf-8"?>
<!-- Generator: Adobe Illustrator 16.0.0, SVG Export Plug-In . SVG Version: 6.00 Build 0)  -->
<!DOCTYPE svg PUBLIC "-//W3C//DTD SVG 1.1//EN" "http://www.w3.org/Graphics/SVG/1.1/DTD/svg11.dtd">
<svg version="1.1" id="Layer_1" xmlns="http://www.w3.org/2000/svg" xmlns:xlink="http://www.w3.org/1999/xlink" x="0px" y="0px"
	 width="1173.025px" height="1167.091px" viewBox="0 0 1173.025 1167.091" enable-background="new 0 0 1173.025 1167.091"
	 xml:space="preserve">
<path fill="#292771" d="M634.845,509.18C361.599,228.335,178.83,88.295,57.496,39.88c6.466,27.263,9.844,55.339,9.844,83.673
	c0,29.416-3.624,58.559-10.585,86.795c3.015,18.826,4.586,37.941,4.586,57.176c0,31.076-4.059,61.842-11.811,91.562
	c3.827,21.152,5.812,42.705,5.812,64.408c0,18.143-1.382,36.182-4.07,53.97c2.69,17.801,4.07,35.852,4.07,54.008
	c0,14.164-0.839,28.264-2.485,42.231c5.579,25.397,8.484,51.462,8.484,77.745c0,37.895-6.021,75.334-17.443,110.967
	c11.43,35.637,17.443,73.086,17.443,110.988c0,37.9-6.023,75.346-17.448,110.981c11.43,35.632,17.448,73.076,17.448,110.974
	c0,10.105-0.452,20.174-1.293,30.187C361.105,602.93,1946.174,1856.971,634.845,509.18z"/>
</svg>
