<?xml version="1.0" encoding="utf-8"?>
<!-- Generator: Adobe Illustrator 16.0.0, SVG Export Plug-In . SVG Version: 6.00 Build 0)  -->
<!DOCTYPE svg PUBLIC "-//W3C//DTD SVG 1.1//EN" "http://www.w3.org/Graphics/SVG/1.1/DTD/svg11.dtd">
<svg version="1.1" id="Layer_1" xmlns="http://www.w3.org/2000/svg" xmlns:xlink="http://www.w3.org/1999/xlink" x="0px" y="0px"
	 width="528.884px" height="483.399px" viewBox="0 0 528.884 483.399" enable-background="new 0 0 528.884 483.399"
	 xml:space="preserve">
<g>
	<path fill="#F7DF13" d="M404.653,338.104c-8.437,8.436-22.185,8.358-30.716-0.168c-8.524-8.531-8.606-22.283-0.17-30.721
		c8.442-8.441,22.199-8.37,30.73,0.168C413.028,315.906,413.097,329.662,404.653,338.104z"/>
	<path fill="#F7DF13" d="M266.427,338.104c-8.437,8.436-22.185,8.358-30.716-0.168c-8.524-8.531-8.604-22.283-0.168-30.721
		c8.443-8.441,22.197-8.37,30.729,0.168C274.802,315.906,274.87,329.662,266.427,338.104z"/>
	<path fill="#F7DF13" d="M128.2,338.104c-8.437,8.436-22.185,8.358-30.716-0.168c-8.524-8.531-8.604-22.283-0.168-30.721
		c8.443-8.441,22.197-8.37,30.729,0.168C136.575,315.906,136.644,329.662,128.2,338.104z"/>
	<path fill="#F7DF13" d="M487.589,427.953c-8.437,8.437-22.185,8.355-30.716-0.168c-8.525-8.531-8.604-22.287-0.168-30.724
		c8.442-8.437,22.196-8.372,30.728,0.167C495.964,405.752,496.033,419.508,487.589,427.953z"/>
	<path fill="#F7DF13" d="M349.362,427.953c-8.437,8.437-22.185,8.355-30.716-0.168c-8.525-8.531-8.604-22.287-0.168-30.724
		c8.442-8.437,22.196-8.372,30.728,0.167C357.739,405.752,357.807,419.508,349.362,427.953z"/>
	<path fill="#F7DF13" d="M211.136,427.953c-8.437,8.437-22.185,8.355-30.716-0.168c-8.525-8.531-8.604-22.287-0.168-30.724
		c8.442-8.437,22.196-8.372,30.729,0.167C219.513,405.752,219.58,419.508,211.136,427.953z"/>
	<path fill="#F7DF13" d="M72.909,427.953c-8.437,8.437-22.185,8.355-30.716-0.168c-8.522-8.531-8.604-22.287-0.168-30.724
		c8.442-8.437,22.198-8.372,30.729,0.167C81.286,405.752,81.354,419.508,72.909,427.953z"/>
	<path fill="#F7DF13" d="M404.653,165.322c-8.437,8.436-22.185,8.354-30.716-0.168c-8.524-8.531-8.606-22.287-0.17-30.725
		c8.442-8.436,22.199-8.365,30.73,0.168C413.028,143.126,413.097,156.878,404.653,165.322z"/>
	<path fill="#F7DF13" d="M266.427,165.322c-8.437,8.436-22.185,8.354-30.716-0.168c-8.524-8.531-8.604-22.287-0.168-30.725
		c8.443-8.436,22.197-8.365,30.729,0.168C274.802,143.126,274.87,156.878,266.427,165.322z"/>
	<path fill="#F7DF13" d="M128.2,165.322c-8.437,8.436-22.185,8.354-30.716-0.168c-8.524-8.531-8.604-22.287-0.168-30.725
		c8.443-8.436,22.197-8.365,30.729,0.168C136.575,143.126,136.644,156.878,128.2,165.322z"/>
	<path fill="#F7DF13" d="M487.589,255.168c-8.437,8.438-22.185,8.359-30.716-0.168c-8.525-8.531-8.604-22.285-0.168-30.724
		c8.442-8.437,22.196-8.367,30.728,0.168C495.964,232.971,496.033,246.728,487.589,255.168z"/>
	<path fill="#F7DF13" d="M349.362,255.168c-8.437,8.438-22.185,8.359-30.716-0.168c-8.525-8.531-8.604-22.285-0.168-30.724
		c8.442-8.437,22.196-8.367,30.728,0.168C357.739,232.971,357.807,246.728,349.362,255.168z"/>
	<path fill="#F7DF13" d="M211.136,255.168c-8.437,8.438-22.185,8.359-30.716-0.168c-8.525-8.531-8.604-22.285-0.168-30.724
		c8.442-8.437,22.196-8.367,30.729,0.168C219.513,232.971,219.58,246.728,211.136,255.168z"/>
	<path fill="#F7DF13" d="M72.909,255.168c-8.437,8.438-22.185,8.359-30.716-0.168c-8.522-8.531-8.604-22.285-0.168-30.724
		c8.442-8.437,22.198-8.367,30.729,0.168C81.286,232.971,81.354,246.728,72.909,255.168z"/>
	<path fill="#F7DF13" d="M487.589,61.654c-8.437,8.438-22.185,8.355-30.716-0.172c-8.525-8.531-8.604-22.283-0.168-30.721
		c8.442-8.436,22.196-8.371,30.728,0.168C495.964,39.453,496.033,53.21,487.589,61.654z"/>
	<path fill="#F7DF13" d="M349.362,61.654c-8.437,8.438-22.185,8.355-30.716-0.172c-8.525-8.531-8.604-22.283-0.168-30.721
		c8.442-8.436,22.196-8.371,30.728,0.168C357.739,39.453,357.807,53.21,349.362,61.654z"/>
	<path fill="#F7DF13" d="M211.136,61.654c-8.437,8.438-22.185,8.355-30.716-0.172c-8.525-8.531-8.604-22.283-0.168-30.721
		c8.442-8.436,22.196-8.371,30.729,0.168C219.513,39.453,219.58,53.21,211.136,61.654z"/>
	<path fill="#F7DF13" d="M72.909,61.654c-8.437,8.438-22.185,8.355-30.716-0.172c-8.522-8.531-8.604-22.283-0.168-30.721
		c8.442-8.436,22.198-8.371,30.729,0.168C81.286,39.453,81.354,53.21,72.909,61.654z"/>
</g>
</svg>
