<?xml version="1.0" encoding="utf-8"?>
<!-- Generator: Adobe Illustrator 16.0.0, SVG Export Plug-In . SVG Version: 6.00 Build 0)  -->
<!DOCTYPE svg PUBLIC "-//W3C//DTD SVG 1.1//EN" "http://www.w3.org/Graphics/SVG/1.1/DTD/svg11.dtd">
<svg version="1.1" id="Layer_1" xmlns="http://www.w3.org/2000/svg" xmlns:xlink="http://www.w3.org/1999/xlink" x="0px" y="0px"
	 width="802.786px" height="859.662px" viewBox="0 0 802.786 859.662" enable-background="new 0 0 802.786 859.662"
	 xml:space="preserve">
<g>
	<defs>
		<rect id="SVGID_265_" x="75.788" width="726.998" height="964.779"/>
	</defs>
	<clipPath id="SVGID_2_">
		<use xlink:href="#SVGID_265_"  overflow="visible"/>
	</clipPath>
	<g clip-path="url(#SVGID_2_)">
		<g>
			
				<linearGradient id="SVGID_4_" gradientUnits="userSpaceOnUse" x1="-6136.1631" y1="-3293.6494" x2="-5392.0371" y2="-3293.6494" gradientTransform="matrix(0.7875 -0.6163 0.6163 0.7875 6943.3506 -527.7524)">
				<stop  offset="0.0143" style="stop-color:#FFFFFF"/>
				<stop  offset="0.2156" style="stop-color:#FEE98C"/>
				<stop  offset="0.4176" style="stop-color:#FDD5A0"/>
				<stop  offset="0.5865" style="stop-color:#FCC7AB"/>
				<stop  offset="0.6738" style="stop-color:#F9C4AD"/>
				<stop  offset="0.7735" style="stop-color:#F2BDB3"/>
				<stop  offset="0.8792" style="stop-color:#EAB3BC"/>
				<stop  offset="0.9884" style="stop-color:#DEA5C7"/>
				<stop  offset="1" style="stop-color:#DDA3CA"/>
			</linearGradient>
			<path fill="url(#SVGID_4_)" d="M667.257,201.626c126.63,161.803,98.11,395.637-63.698,522.271
				C441.735,850.543,207.893,822.04,81.263,660.238c-126.662-161.843-98.132-395.681,63.691-522.326
				C306.762,11.277,540.596,39.781,667.257,201.626z"/>
			
				<linearGradient id="SVGID_5_" gradientUnits="userSpaceOnUse" x1="-6136.1631" y1="-3293.6494" x2="-5392.0371" y2="-3293.6494" gradientTransform="matrix(0.7875 -0.6163 0.6163 0.7875 6943.3506 -527.7524)">
				<stop  offset="0.0143" style="stop-color:#FFFFFF"/>
				<stop  offset="0.2156" style="stop-color:#FEE98C"/>
				<stop  offset="0.4176" style="stop-color:#FDD5A0"/>
				<stop  offset="0.5865" style="stop-color:#FCC7AB"/>
				<stop  offset="0.6738" style="stop-color:#F9C4AD"/>
				<stop  offset="0.7735" style="stop-color:#F2BDB3"/>
				<stop  offset="0.8792" style="stop-color:#EAB3BC"/>
				<stop  offset="0.9884" style="stop-color:#DEA5C7"/>
				<stop  offset="1" style="stop-color:#DDA3CA"/>
			</linearGradient>
			<path fill="url(#SVGID_5_)" d="M667.257,201.626c126.63,161.803,98.11,395.637-63.698,522.271
				C441.735,850.543,207.893,822.04,81.263,660.238c-126.662-161.843-98.132-395.681,63.691-522.326
				C306.762,11.277,540.596,39.781,667.257,201.626z"/>
		</g>
		<g>
			<defs>
				
					<rect id="SVGID_269_" x="339.877" y="-69.607" transform="matrix(0.7875 -0.6163 0.6163 0.7875 -79.7989 402.1986)" width="406.946" height="772.854"/>
			</defs>
			<clipPath id="SVGID_7_">
				<use xlink:href="#SVGID_269_"  overflow="visible"/>
			</clipPath>
			<g clip-path="url(#SVGID_7_)">
				
					<linearGradient id="SVGID_9_" gradientUnits="userSpaceOnUse" x1="-6136.1631" y1="-3293.6494" x2="-5392.0371" y2="-3293.6494" gradientTransform="matrix(0.7875 -0.6163 0.6163 0.7875 6943.3506 -527.7524)">
					<stop  offset="0.0143" style="stop-color:#FFFFFF"/>
					<stop  offset="0.2156" style="stop-color:#FEE98C"/>
					<stop  offset="0.4176" style="stop-color:#FDD5A0"/>
					<stop  offset="0.5865" style="stop-color:#FCC7AB"/>
					<stop  offset="0.6738" style="stop-color:#F9C4AD"/>
					<stop  offset="0.7735" style="stop-color:#F2BDB3"/>
					<stop  offset="0.8792" style="stop-color:#EAB3BC"/>
					<stop  offset="0.9884" style="stop-color:#DEA5C7"/>
					<stop  offset="1" style="stop-color:#DDA3CA"/>
				</linearGradient>
				<path fill="url(#SVGID_9_)" d="M667.257,201.626c126.63,161.803,98.11,395.637-63.698,522.271
					C441.735,850.543,207.893,822.04,81.263,660.238c-126.662-161.843-98.132-395.681,63.691-522.326
					C306.762,11.277,540.596,39.781,667.257,201.626z"/>
				
					<linearGradient id="SVGID_10_" gradientUnits="userSpaceOnUse" x1="-6136.1631" y1="-3293.6494" x2="-5392.0371" y2="-3293.6494" gradientTransform="matrix(0.7875 -0.6163 0.6163 0.7875 6943.3506 -527.7524)">
					<stop  offset="0.0143" style="stop-color:#FFFFFF"/>
					<stop  offset="0.2156" style="stop-color:#FEE98C"/>
					<stop  offset="0.4176" style="stop-color:#FDD5A0"/>
					<stop  offset="0.5865" style="stop-color:#FCC7AB"/>
					<stop  offset="0.6738" style="stop-color:#F9C4AD"/>
					<stop  offset="0.7735" style="stop-color:#F2BDB3"/>
					<stop  offset="0.8792" style="stop-color:#EAB3BC"/>
					<stop  offset="0.9884" style="stop-color:#DEA5C7"/>
					<stop  offset="1" style="stop-color:#DDA3CA"/>
				</linearGradient>
				<path fill="url(#SVGID_10_)" d="M667.257,201.626c126.63,161.803,98.11,395.637-63.698,522.271
					C441.735,850.543,207.893,822.04,81.263,660.238c-126.662-161.843-98.132-395.681,63.691-522.326
					C306.762,11.277,540.596,39.781,667.257,201.626z"/>
			</g>
		</g>
	</g>
</g>
</svg>
