<?xml version="1.0" encoding="utf-8"?>
<!-- Generator: Adobe Illustrator 22.0.1, SVG Export Plug-In . SVG Version: 6.00 Build 0)  -->
<svg version="1.1" id="Layer_1" xmlns="http://www.w3.org/2000/svg" xmlns:xlink="http://www.w3.org/1999/xlink" x="0px" y="0px"
	 viewBox="0 0 1427.1 1376.2" style="enable-background:new 0 0 1427.1 1376.2;" xml:space="preserve">
<style type="text/css">
	.st0{fill:#F48243;}
</style>
<path class="st0" d="M1131.3,284.6c-349.7-597.1-148.4-129-358.6,366s-680.8,60-680.8,60c-47.2,9.2-88,19.4-123.3,30.4
	c15,40.4,23,83.4,23,127c0,31.5-4.2,62.7-12.1,92.8c0,1.9-0.1,3.9-0.2,5.8c8.1,30.3,12.3,61.7,12.3,93.5c0,27.6-3.2,55-9.3,81.6
	c60,39.2,109.7,64,109.7,64c318,411,435-36,897.1-117.9C1451,1005.9,1481,881.7,1131.3,284.6z"/>
</svg>
