<?xml version="1.0" encoding="utf-8"?>
<!-- Generator: Adobe Illustrator 22.0.1, SVG Export Plug-In . SVG Version: 6.00 Build 0)  -->
<svg version="1.1" id="Layer_1" xmlns="http://www.w3.org/2000/svg" xmlns:xlink="http://www.w3.org/1999/xlink" x="0px" y="0px"
	 viewBox="0 0 333.3 296.9" style="enable-background:new 0 0 333.3 296.9;" xml:space="preserve">
<style type="text/css">
	.st0{fill:#572E8D;}
</style>
<g>
	<path class="st0" d="M266.8,226.5c-6.1,6.1-15.9,6-22-0.1c-6.1-6.1-6.2-16-0.1-22c6.1-6.1,15.9-6,22.1,0.1
		C272.8,210.5,272.8,220.4,266.8,226.5z"/>
	<path class="st0" d="M167.6,226.5c-6.1,6.1-15.9,6-22-0.1c-6.1-6.1-6.2-16-0.1-22c6.1-6.1,15.9-6,22.1,0.1
		C173.6,210.5,173.6,220.4,167.6,226.5z"/>
	<path class="st0" d="M68.4,226.5c-6.1,6.1-15.9,6-22-0.1c-6.1-6.1-6.2-16-0.1-22c6.1-6.1,15.9-6,22.1,0.1
		C74.4,210.5,74.4,220.4,68.4,226.5z"/>
	<path class="st0" d="M326.3,290.9c-6.1,6.1-15.9,6-22-0.1c-6.1-6.1-6.2-16-0.1-22.1c6.1-6.1,15.9-6,22.1,0.1
		C332.3,275,332.4,284.9,326.3,290.9z"/>
	<path class="st0" d="M227.1,290.9c-6.1,6.1-15.9,6-22-0.1c-6.1-6.1-6.2-16-0.1-22.1c6.1-6.1,15.9-6,22.1,0.1
		C233.1,275,233.2,284.9,227.1,290.9z"/>
	<path class="st0" d="M127.9,290.9c-6.1,6.1-15.9,6-22-0.1c-6.1-6.1-6.2-16-0.1-22.1c6.1-6.1,15.9-6,22.1,0.1
		C133.9,275,133.9,284.9,127.9,290.9z"/>
	<path class="st0" d="M28.7,290.9c-6.1,6.1-15.9,6-22-0.1c-6.1-6.1-6.2-16-0.1-22.1c6.1-6.1,15.9-6,22.1,0.1
		C34.7,275,34.7,284.9,28.7,290.9z"/>
	<path class="st0" d="M266.8,102.4c-6.1,6.1-15.9,6-22-0.1c-6.1-6.1-6.2-16-0.1-22.1c6.1-6.1,15.9-6,22.1,0.1
		C272.8,86.5,272.8,96.4,266.8,102.4z"/>
	<path class="st0" d="M167.6,102.4c-6.1,6.1-15.9,6-22-0.1c-6.1-6.1-6.2-16-0.1-22.1c6.1-6.1,15.9-6,22.1,0.1
		C173.6,86.5,173.6,96.4,167.6,102.4z"/>
	<path class="st0" d="M68.4,102.4c-6.1,6.1-15.9,6-22-0.1c-6.1-6.1-6.2-16-0.1-22.1c6.1-6.1,15.9-6,22.1,0.1
		C74.4,86.5,74.4,96.4,68.4,102.4z"/>
	<path class="st0" d="M326.3,166.9c-6.1,6.1-15.9,6-22-0.1c-6.1-6.1-6.2-16-0.1-22.1c6.1-6.1,15.9-6,22.1,0.1
		C332.3,151,332.4,160.9,326.3,166.9z"/>
	<path class="st0" d="M227.1,166.9c-6.1,6.1-15.9,6-22-0.1c-6.1-6.1-6.2-16-0.1-22.1c6.1-6.1,15.9-6,22.1,0.1
		C233.1,151,233.2,160.9,227.1,166.9z"/>
	<path class="st0" d="M127.9,166.9c-6.1,6.1-15.9,6-22-0.1c-6.1-6.1-6.2-16-0.1-22.1c6.1-6.1,15.9-6,22.1,0.1
		C133.9,151,133.9,160.9,127.9,166.9z"/>
	<path class="st0" d="M28.7,166.9c-6.1,6.1-15.9,6-22-0.1c-6.1-6.1-6.2-16-0.1-22.1c6.1-6.1,15.9-6,22.1,0.1
		C34.7,151,34.7,160.9,28.7,166.9z"/>
	<path class="st0" d="M326.3,28c-6.1,6.1-15.9,6-22-0.1c-6.1-6.1-6.2-16-0.1-22c6.1-6.1,15.9-6,22.1,0.1
		C332.3,12.1,332.4,22,326.3,28z"/>
	<path class="st0" d="M227.1,28c-6.1,6.1-15.9,6-22-0.1c-6.1-6.1-6.2-16-0.1-22c6.1-6.1,15.9-6,22.1,0.1
		C233.1,12.1,233.2,22,227.1,28z"/>
	<path class="st0" d="M127.9,28c-6.1,6.1-15.9,6-22-0.1c-6.1-6.1-6.2-16-0.1-22c6.1-6.1,15.9-6,22.1,0.1
		C133.9,12.1,133.9,22,127.9,28z"/>
	<path class="st0" d="M28.7,28c-6.1,6.1-15.9,6-22-0.1c-6.1-6.1-6.2-16-0.1-22c6.1-6.1,15.9-6,22.1,0.1C34.7,12.1,34.7,22,28.7,28z"
		/>
</g>
</svg>
