<?xml version="1.0" encoding="utf-8"?>
<!-- Generator: Adobe Illustrator 22.0.1, SVG Export Plug-In . SVG Version: 6.00 Build 0)  -->
<svg version="1.1" id="Layer_1" xmlns="http://www.w3.org/2000/svg" xmlns:xlink="http://www.w3.org/1999/xlink" x="0px" y="0px"
	 viewBox="0 0 72 76.3" style="enable-background:new 0 0 72 76.3;" xml:space="preserve">
<style type="text/css">
	.st0{fill:#023D50;}
</style>
<g>
	<g>
		<path class="st0" d="M36.8,71.5L5.7,40.4c-1.3-1.3-1.3-3.4,0-4.7c1.3-1.3,3.4-1.3,4.7,0l26.4,26.4l27.5-27.5
			c1.3-1.3,3.4-1.3,4.7,0c1.3,1.3,1.3,3.4,0,4.7L36.8,71.5z"/>
	</g>
	<g>
		<path class="st0" d="M36.8,43.3L5.7,12.2c-1.3-1.3-1.3-3.4,0-4.7c1.3-1.3,3.4-1.3,4.7,0l26.4,26.4L64.3,6.4c1.3-1.3,3.4-1.3,4.7,0
			c1.3,1.3,1.3,3.4,0,4.7L36.8,43.3z"/>
	</g>
</g>
</svg>
