<?xml version="1.0" encoding="utf-8"?>
<!-- Generator: Adobe Illustrator 22.0.1, SVG Export Plug-In . SVG Version: 6.00 Build 0)  -->
<svg version="1.1" id="Layer_1" xmlns="http://www.w3.org/2000/svg" xmlns:xlink="http://www.w3.org/1999/xlink" x="0px" y="0px"
	 viewBox="0 0 48 426.1" style="enable-background:new 0 0 48 426.1;" xml:space="preserve">
<style type="text/css">
	.st0{fill:#572E8D;}
	.st1{fill:#F7DF13;}
</style>
<g>
	<polygon id="XMLID_134_" class="st0" points="24.3,117.8 36,129.5 46.8,118.7 35.1,107 24.3,96.1 13.4,107 1.7,118.7 12.6,129.5 	
		"/>
	<polygon id="XMLID_133_" class="st0" points="24.3,166.7 36,178.4 46.8,167.6 35.1,155.9 24.3,145 13.4,155.9 1.7,167.6 
		12.6,178.4 	"/>
	<polygon id="XMLID_132_" class="st0" points="24.3,215.6 36,227.3 46.8,216.5 35.1,204.8 24.3,193.9 13.4,204.8 1.7,216.5 
		12.6,227.3 	"/>
	<polygon id="XMLID_131_" class="st0" points="24.3,264.5 36,276.2 46.8,265.4 35.1,253.7 24.3,242.8 13.4,253.7 1.7,265.4 
		12.6,276.2 	"/>
	<polygon id="XMLID_130_" class="st0" points="24.3,313.4 36,325.1 46.8,314.3 35.1,302.6 24.3,291.7 13.4,302.6 1.7,314.3 
		12.6,325.1 	"/>
	<polygon id="XMLID_129_" class="st0" points="24.3,362.3 36,374 46.8,363.2 35.1,351.5 24.3,340.6 13.4,351.5 1.7,363.2 12.6,374 	
		"/>
	<polygon id="XMLID_128_" class="st0" points="24.3,411.2 36,422.9 46.8,412.1 35.1,400.4 24.3,389.5 13.4,400.4 1.7,412.1 
		12.6,422.9 	"/>
	<polygon id="XMLID_127_" class="st1" points="24.3,24.4 36,36.1 46.8,25.3 35.1,13.6 24.3,2.7 13.4,13.6 1.7,25.3 12.6,36.1 	"/>
	<polygon id="XMLID_126_" class="st1" points="24.3,68.9 36,80.6 46.8,69.8 35.1,58.1 24.3,47.2 13.4,58.1 1.7,69.8 12.6,80.6 	"/>
</g>
</svg>
