<?xml version="1.0" encoding="utf-8"?>
<!-- Generator: Adobe Illustrator 22.0.1, SVG Export Plug-In . SVG Version: 6.00 Build 0)  -->
<svg version="1.1" id="Layer_1" xmlns="http://www.w3.org/2000/svg" xmlns:xlink="http://www.w3.org/1999/xlink" x="0px" y="0px"
	 viewBox="0 0 894 490.7" style="enable-background:new 0 0 894 490.7;" xml:space="preserve">
<style type="text/css">
	.st0{clip-path:url(#SVGID_2_);fill:url(#SVGID_3_);}
</style>
<g>
	<g>
		<defs>
			<rect id="SVGID_1_" x="-79" width="973" height="446"/>
		</defs>
		<clipPath id="SVGID_2_">
			<use xlink:href="#SVGID_1_"  style="overflow:visible;"/>
		</clipPath>
		
			<linearGradient id="SVGID_3_" gradientUnits="userSpaceOnUse" x1="-154.5801" y1="291.507" x2="1189.8241" y2="291.507" gradientTransform="matrix(1 0 0 -1 0 492)">
			<stop  offset="0" style="stop-color:#F15E60"/>
			<stop  offset="1" style="stop-color:#8C3A92"/>
		</linearGradient>
		<path class="st0" d="M914.1,204.2c0-11,0.5-22,1.5-32.9c-32.1-55.2-49.5-118.6-49.5-183.2c0-1.5,0-3.1,0.1-4.6
			c-26,5.9-52.8,8.9-79.8,8.9c-38.8,0-77.1-6.3-113.4-18.2c-21.9,4.1-44.2,6.2-66.7,6.2c-24.3,0-48.4-2.5-72-7.3
			c-23.6,4.8-47.8,7.3-72.1,7.3c-16.1,0-32.2-1.1-48.1-3.2c-15.8,2.1-31.9,3.2-48,3.2c-22.3,0-44.4-2.1-66.1-6.1
			c-21.7,4-43.7,6.1-66,6.1c-10,0-20-0.4-29.9-1.3c-10,0.8-20,1.3-30.1,1.3c-30.5,0-60.8-3.9-90-11.4c-29.2,7.5-59.5,11.4-90,11.4
			c-1.6,0-3.2,0-4.8-0.1c5.6,2.2,11.3,4.4,17.3,6.5c0,0-55.6,415.6,200.8,253.4c256.4-162.2,422.1,75.3,314.4-44
			s187,62.8,112.2-61.5c0,0,148.2,179.8,285.1,297.2c-3.3-19.6-5-39.6-5-59.7c0-28.5,3.4-56.7,9.9-84
			C917.5,260.8,914.1,232.6,914.1,204.2z"/>
	</g>
</g>
</svg>
