<?xml version="1.0" encoding="utf-8"?>
<!-- Generator: Adobe Illustrator 22.0.1, SVG Export Plug-In . SVG Version: 6.00 Build 0)  -->
<svg version="1.1" id="Layer_1" xmlns="http://www.w3.org/2000/svg" xmlns:xlink="http://www.w3.org/1999/xlink" x="0px" y="0px"
	 viewBox="0 0 124.9 733" style="enable-background:new 0 0 124.9 733;" xml:space="preserve">
<style type="text/css">
	.st0{fill:url(#SVGID_1_);}
	.st1{fill:url(#SVGID_2_);}
	.st2{fill:url(#SVGID_3_);}
	.st3{fill:url(#SVGID_4_);}
</style>
<g>
	<g>
		
			<linearGradient id="SVGID_1_" gradientUnits="userSpaceOnUse" x1="0.2832" y1="674.4912" x2="124.0352" y2="674.4912" gradientTransform="matrix(1 0 0 -1 0 737.2124)">
			<stop  offset="0" style="stop-color:#F15E60"/>
			<stop  offset="1" style="stop-color:#8C3A92"/>
		</linearGradient>
		<path class="st0" d="M124,62.7c0,34.2-27.7,61.9-61.9,61.9C28,124.6,0.3,96.9,0.3,62.7C0.3,28.5,28,0.9,62.2,0.9
			C96.3,0.9,124,28.5,124,62.7z"/>
	</g>
	<g>
		
			<linearGradient id="SVGID_2_" gradientUnits="userSpaceOnUse" x1="0.2832" y1="471.8422" x2="124.0352" y2="471.8422" gradientTransform="matrix(1 0 0 -1 0 737.2124)">
			<stop  offset="0" style="stop-color:#F15E60"/>
			<stop  offset="1" style="stop-color:#8C3A92"/>
		</linearGradient>
		<path class="st1" d="M124,265.4c0,34.2-27.7,61.9-61.9,61.9c-34.2,0-61.9-27.7-61.9-61.9c0-34.2,27.7-61.9,61.9-61.9
			C96.3,203.5,124,231.2,124,265.4z"/>
	</g>
	<g>
		
			<linearGradient id="SVGID_3_" gradientUnits="userSpaceOnUse" x1="0.2832" y1="269.1782" x2="124.0352" y2="269.1782" gradientTransform="matrix(1 0 0 -1 0 737.2124)">
			<stop  offset="0" style="stop-color:#F15E60"/>
			<stop  offset="1" style="stop-color:#8C3A92"/>
		</linearGradient>
		<path class="st2" d="M124,468c0,34.2-27.7,61.9-61.9,61.9C28,529.9,0.3,502.2,0.3,468c0-34.2,27.7-61.9,61.9-61.9
			C96.3,406.2,124,433.9,124,468z"/>
	</g>
	<g>
		
			<linearGradient id="SVGID_4_" gradientUnits="userSpaceOnUse" x1="0.2832" y1="66.5222" x2="124.0352" y2="66.5222" gradientTransform="matrix(1 0 0 -1 0 737.2124)">
			<stop  offset="0" style="stop-color:#F15E60"/>
			<stop  offset="1" style="stop-color:#8C3A92"/>
		</linearGradient>
		<path class="st3" d="M124,670.7c0,34.2-27.7,61.9-61.9,61.9c-34.2,0-61.9-27.7-61.9-61.9c0-34.2,27.7-61.9,61.9-61.9
			C96.3,608.8,124,636.5,124,670.7z"/>
	</g>
</g>
</svg>
