<?xml version="1.0" encoding="utf-8"?>
<!-- Generator: Adobe Illustrator 22.0.1, SVG Export Plug-In . SVG Version: 6.00 Build 0)  -->
<svg version="1.1" id="Layer_1" xmlns="http://www.w3.org/2000/svg" xmlns:xlink="http://www.w3.org/1999/xlink" x="0px" y="0px"
	 viewBox="0 0 919.4 748" style="enable-background:new 0 0 919.4 748;" xml:space="preserve">
<style type="text/css">
	.st0{fill:#EE5123;}
</style>
<path class="st0" d="M967.8,412.8c0-36.9,5.7-73.3,16.5-108.1c-10.8-34.7-16.5-71.2-16.5-108c0-6.7,0.2-13.4,0.6-20.1
	C847.6-124.3,742.2,95.9,541.9,20.8C327.6-59.5,630,189.7,264.6,172.2C-100.8,154.7-57.7,304.4,219,392.4
	c276.8,88,205.4,74.3,290.5-99.3c0,0-67.5,448.5,93.9,202c161.4-246.5,149.9-216.1,255.4-64c105.5,152.1-47.1-6.7,11.6,191.5
	c35.9,121.3,85,203.8,121.7,185.3c-16-41.5-24.5-85.9-24.5-131c0-45.4,8.6-90.2,24.9-132C976.4,503,967.8,458.2,967.8,412.8z"/>
</svg>
