<?xml version="1.0" encoding="utf-8"?>
<!-- Generator: Adobe Illustrator 22.0.1, SVG Export Plug-In . SVG Version: 6.00 Build 0)  -->
<svg version="1.1" id="Layer_1" xmlns="http://www.w3.org/2000/svg" xmlns:xlink="http://www.w3.org/1999/xlink" x="0px" y="0px"
	 viewBox="0 0 125.1 129.5" style="enable-background:new 0 0 125.1 129.5;" xml:space="preserve">
<style type="text/css">
	.st0{fill:url(#SVGID_1_);}
	.st1{fill:url(#SVGID_2_);}
</style>
<g>
	<g>
		
			<linearGradient id="SVGID_1_" gradientUnits="userSpaceOnUse" x1="0.6062" y1="74.1037" x2="124.6304" y2="74.1037" gradientTransform="matrix(1 0 0 -1 0 139.0251)">
			<stop  offset="0" style="stop-color:#F15E60"/>
			<stop  offset="1" style="stop-color:#8C3A92"/>
		</linearGradient>
		<path class="st0" d="M115,129.2c-2.5,0-5.1-1-7-3L3.3,17C-0.4,13.1-0.3,7,3.6,3.3c3.9-3.7,10-3.6,13.6,0.3l104.7,109.3
			c3.7,3.8,3.6,9.9-0.3,13.6C119.8,128.3,117.4,129.2,115,129.2z"/>
	</g>
	<g>
		
			<linearGradient id="SVGID_2_" gradientUnits="userSpaceOnUse" x1="0.6058" y1="74.1032" x2="124.6308" y2="74.1032" gradientTransform="matrix(1 0 0 -1 0 139.0251)">
			<stop  offset="0" style="stop-color:#F15E60"/>
			<stop  offset="1" style="stop-color:#8C3A92"/>
		</linearGradient>
		<path class="st1" d="M10.3,129.2c-2.4,0-4.8-0.9-6.7-2.7c-3.8-3.7-4-9.8-0.3-13.6L108,3.6c3.7-3.8,9.8-4,13.6-0.3
			c3.8,3.7,4,9.8,0.3,13.6L17.2,126.2C15.3,128.2,12.8,129.2,10.3,129.2z"/>
	</g>
</g>
</svg>
