<?xml version="1.0" encoding="utf-8"?>
<!-- Generator: Adobe Illustrator 16.0.0, SVG Export Plug-In . SVG Version: 6.00 Build 0)  -->
<!DOCTYPE svg PUBLIC "-//W3C//DTD SVG 1.1//EN" "http://www.w3.org/Graphics/SVG/1.1/DTD/svg11.dtd">
<svg version="1.1" id="Layer_1" xmlns="http://www.w3.org/2000/svg" xmlns:xlink="http://www.w3.org/1999/xlink" x="0px" y="0px"
	 width="88.495px" height="146.992px" viewBox="0 0 88.495 146.992" enable-background="new 0 0 88.495 146.992"
	 xml:space="preserve">
<g>
	<g>
		<path fill="#023D50" d="M40.646,132.794L9.526,101.679c-1.296-1.297-1.296-3.396,0-4.693c1.297-1.296,3.396-1.296,4.693,0
			l26.426,26.423L68.15,95.903c1.296-1.297,3.396-1.297,4.692,0c1.296,1.297,1.296,3.396,0,4.693L40.646,132.794z"/>
	</g>
	<g>
		<path fill="#023D50" d="M40.646,104.573L9.526,73.455c-1.296-1.298-1.296-3.397,0-4.693c1.297-1.297,3.396-1.297,4.693,0
			l26.426,26.425L68.15,67.679c1.296-1.296,3.396-1.296,4.692,0c1.296,1.297,1.296,3.396,0,4.692L40.646,104.573z"/>
	</g>
	<g>
		<path fill="#023D50" d="M40.646,76.345L9.526,45.228c-1.296-1.298-1.296-3.397,0-4.694c1.297-1.296,3.396-1.296,4.693,0
			l26.426,26.426L68.15,39.451c1.296-1.296,3.396-1.296,4.692,0c1.296,1.296,1.296,3.396,0,4.692L40.646,76.345z"/>
	</g>
	<g>
		<path fill="#023D50" d="M40.646,48.12L9.526,17.005c-1.296-1.296-1.296-3.396,0-4.691c1.297-1.297,3.396-1.297,4.693,0
			l26.426,26.422L68.15,11.23c1.296-1.297,3.396-1.297,4.692,0c1.296,1.296,1.296,3.397,0,4.692L40.646,48.12z"/>
	</g>
</g>
</svg>
