<?xml version="1.0" encoding="utf-8"?>
<!-- Generator: Adobe Illustrator 22.0.1, SVG Export Plug-In . SVG Version: 6.00 Build 0)  -->
<svg version="1.1" id="Layer_1" xmlns="http://www.w3.org/2000/svg" xmlns:xlink="http://www.w3.org/1999/xlink" x="0px" y="0px"
	 viewBox="0 0 1309.7 428.3" style="enable-background:new 0 0 1309.7 428.3;" xml:space="preserve">
<style type="text/css">
	.st0{fill:url(#SVGID_1_);}
</style>
<linearGradient id="SVGID_1_" gradientUnits="userSpaceOnUse" x1="-36.1284" y1="298.1643" x2="1308.2803" y2="298.1643" gradientTransform="matrix(1 0 0 -1 0 542.6157)">
	<stop  offset="0" style="stop-color:#F15E60"/>
	<stop  offset="1" style="stop-color:#8C3A92"/>
</linearGradient>
<path class="st0" d="M945.8,270.9c0,0-643.6,59.1-439.9-188.8C709.5-165.8-448.7,221.9,125,429.3c0,0-3.2,23.7-4.5,57.6
	C164.4,468.7,211.9,459,260,459c20.2,0,40.3,1.7,60,5.1c19.7-3.3,39.8-5.1,60-5.1c41.1,0,81.7,7.1,120,20.5
	c38.3-13.4,78.9-20.5,120-20.5c20.7,0,41.2,1.8,61.3,5.3c44.8-19.1,93.4-29.3,142.7-29.3c49.8,0,98.9,10.4,144.1,29.8
	c45.2-19.4,94.2-29.8,144.1-29.8c49.8,0,98.8,10.4,143.9,29.8C1305.2,149.7,1432.5-15.4,945.8,270.9z"/>
</svg>
