<?xml version="1.0" encoding="utf-8"?>
<!-- Generator: Adobe Illustrator 22.0.1, SVG Export Plug-In . SVG Version: 6.00 Build 0)  -->
<svg version="1.1" id="Layer_1" xmlns="http://www.w3.org/2000/svg" xmlns:xlink="http://www.w3.org/1999/xlink" x="0px" y="0px"
	 viewBox="0 0 65.7 66.6" style="enable-background:new 0 0 65.7 66.6;" xml:space="preserve">
<g>
	<g>
		<g>
			<path d="M32.4,66.4L1.3,35.3C0,34,0,31.9,1.3,30.6s3.4-1.3,4.7,0L32.4,57l27.5-27.5c1.3-1.3,3.4-1.3,4.7,0c1.3,1.3,1.3,3.4,0,4.7
				L32.4,66.4z"/>
		</g>
		<g>
			<path d="M32.4,38.2L1.3,7.1C0,5.8,0,3.7,1.3,2.4c1.3-1.3,3.4-1.3,4.7,0l26.4,26.4L59.9,1.3c1.3-1.3,3.4-1.3,4.7,0
				c1.3,1.3,1.3,3.4,0,4.7L32.4,38.2z"/>
		</g>
	</g>
</g>
</svg>
