<?xml version="1.0" encoding="utf-8"?>
<!-- Generator: Adobe Illustrator 16.0.0, SVG Export Plug-In . SVG Version: 6.00 Build 0)  -->
<!DOCTYPE svg PUBLIC "-//W3C//DTD SVG 1.1//EN" "http://www.w3.org/Graphics/SVG/1.1/DTD/svg11.dtd">
<svg version="1.1" id="Layer_1" xmlns="http://www.w3.org/2000/svg" xmlns:xlink="http://www.w3.org/1999/xlink" x="0px" y="0px"
	 width="70px" height="107px" viewBox="0 0 70 107" enable-background="new 0 0 70 107" xml:space="preserve">
<g>
	<g>
		<path d="M33.178,96.142L11.989,74.956c-0.881-0.883-0.881-2.312,0-3.195c0.883-0.883,2.312-0.883,3.197,0l17.992,17.991
			l18.727-18.728c0.883-0.883,2.312-0.883,3.195,0s0.883,2.312,0,3.194L33.178,96.142z"/>
	</g>
	<g>
		<path d="M33.178,76.927L11.989,55.739c-0.881-0.883-0.881-2.313,0-3.195c0.883-0.883,2.312-0.883,3.197,0l17.992,17.992
			l18.727-18.73c0.883-0.881,2.312-0.881,3.195,0c0.883,0.885,0.883,2.313,0,3.195L33.178,76.927z"/>
	</g>
	<g>
		<path d="M33.178,57.708L11.989,36.519c-0.881-0.882-0.881-2.312,0-3.195c0.883-0.881,2.312-0.881,3.197,0l17.992,17.993
			l18.727-18.729c0.883-0.883,2.312-0.883,3.195,0s0.883,2.312,0,3.195L33.178,57.708z"/>
	</g>
	<g>
		<path d="M33.178,38.489L11.989,17.304c-0.881-0.883-0.881-2.312,0-3.195c0.883-0.883,2.312-0.883,3.197,0L33.178,32.1
			l18.727-18.728c0.883-0.883,2.312-0.883,3.195,0s0.883,2.312,0,3.195L33.178,38.489z"/>
	</g>
</g>
</svg>
