<?xml version="1.0" encoding="utf-8"?>
<!-- Generator: Adobe Illustrator 16.0.0, SVG Export Plug-In . SVG Version: 6.00 Build 0)  -->
<!DOCTYPE svg PUBLIC "-//W3C//DTD SVG 1.1//EN" "http://www.w3.org/Graphics/SVG/1.1/DTD/svg11.dtd">
<svg version="1.1" id="Layer_1" xmlns="http://www.w3.org/2000/svg" xmlns:xlink="http://www.w3.org/1999/xlink" x="0px" y="0px"
	 width="369.859px" height="242.977px" viewBox="0 0 369.859 242.977" enable-background="new 0 0 369.859 242.977"
	 xml:space="preserve">
<g>
	<defs>
		<rect id="SVGID_137_" x="447.157" y="-84.459" width="303.514" height="620.042"/>
	</defs>
	<clipPath id="SVGID_2_">
		<use xlink:href="#SVGID_137_"  overflow="visible"/>
	</clipPath>
	<g clip-path="url(#SVGID_2_)">
		<path fill="#3C5A9B" d="M140.075-226.526c-0.893-0.644-1.781-1.285-2.667-1.933c50.271,45.506,103.441,88.022,164.354,117.824
			c35.378,17.314,72.155,31.733,107.035,50.028c12.809,6.718,26.802,23.349,15.997,32.961c-4.475,3.982-11.193,3.894-16.643,6.38
			c-9.912,4.533-13.918,17.257-11.676,27.928c2.242,10.666,9.275,19.635,16.506,27.793
			c46.527,52.479,110.844,88.896,179.781,101.787c27.926,5.221,60.57,6.018,85.287,21.555c48.327,30.377-45.214,51.778-65.6,54.04
			c-66.817,7.405-134.16,10.097-201.355,8.042c-12.457-0.383-30.045,4.635-27.476,16.831c0.811,3.851,3.728,6.882,6.677,9.492
			c18.363,16.257,41.871,24.578,63.988,34.255c11.027,4.822,21.938,9.952,31.987,16.619c4.265,2.836,14.261,9.027,13.513,15.215
			c-0.978,8.05-17.855,8.107-23.98,9.092c-22.965,3.689-46.521,2.609-69.252-2.131c-46.523-9.703-89.83-34.217-124.078-66.902
			c-58.468-55.791-94.115-132.121-113.266-210.637C150.055-36.798,142.969-145.761,140.075-226.526z"/>
		<path fill="#F7DF13" d="M227.766-153.096c-0.797-0.756-1.593-1.515-2.39-2.266c43.814,51.749,90.891,100.926,147.319,138.527
			c32.787,21.835,67.326,40.996,99.482,63.744c11.809,8.352,23.482,26.686,11.5,34.785c-4.961,3.359-11.607,2.378-17.338,4.125
			c-10.434,3.182-16.081,15.262-15.27,26.135c0.814,10.875,6.591,20.691,12.681,29.733
			c39.179,58.175,98.112,102.777,164.739,124.675c26.992,8.869,59.24,13.976,81.688,32.648c43.883,36.5-51.671,45.341-72.175,44.885
			c-67.211-1.496-134.316-7.734-200.648-18.664c-12.293-2.023-30.391,0.626-29.46,13.047c0.296,3.928,2.786,7.318,5.363,10.299
			c16.048,18.541,38.251,29.898,58.897,42.413c10.292,6.237,20.425,12.771,29.503,20.706c3.859,3.375,12.946,10.832,11.386,16.866
			c-2.034,7.854-18.773,5.68-24.97,5.845c-23.256,0.619-46.467-3.567-68.367-11.273c-44.831-15.771-84.512-45.8-114.138-82.725
			c-50.577-63.039-75.81-143.414-84.411-223.771C212.56,36.283,219.948-72.661,227.766-153.096z"/>
	</g>
</g>
<g>
	<defs>
		<rect id="SVGID_141_" x="53.846" y="-3.281" width="303.514" height="313.656"/>
	</defs>
	<clipPath id="SVGID_4_">
		<use xlink:href="#SVGID_141_"  overflow="visible"/>
	</clipPath>
	<path clip-path="url(#SVGID_4_)" fill="#D83181" d="M-155.734,216.416c0,0-70-278.318,224-178.318
		c0,0,504.686,188.801,153.343,162.4C221.609,200.498-39.734,64.734-155.734,216.416z"/>
</g>
</svg>
