<?xml version="1.0" encoding="utf-8"?>
<!-- Generator: Adobe Illustrator 22.0.1, SVG Export Plug-In . SVG Version: 6.00 Build 0)  -->
<svg version="1.1" id="Layer_1" xmlns="http://www.w3.org/2000/svg" xmlns:xlink="http://www.w3.org/1999/xlink" x="0px" y="0px"
	 viewBox="0 0 261.5 396.4" style="enable-background:new 0 0 261.5 396.4;" xml:space="preserve">
<style type="text/css">
	.st0{clip-path:url(#SVGID_2_);}
	.st1{fill:#F47A39;}
	.st2{fill:#22275C;}
</style>
<g>
	<g>
		<defs>
			<rect id="SVGID_1_" x="-38.2" y="-19.9" width="300.7" height="458.6"/>
		</defs>
		<clipPath id="SVGID_2_">
			<use xlink:href="#SVGID_1_"  style="overflow:visible;"/>
		</clipPath>
		<g class="st0">
			<path class="st1" d="M581.9-265.2c0.9-0.6,1.8-1.3,2.7-1.9c-50.3,45.5-103.4,88-164.4,117.8c-35.4,17.3-72.2,31.7-107,50
				c-12.8,6.7-26.8,23.3-16,33c4.5,4,11.2,3.9,16.6,6.4c9.9,4.5,13.9,17.3,11.7,27.9c-2.2,10.7-9.3,19.6-16.5,27.8
				C262.5,48.3,198.2,84.7,129.3,97.6c-27.9,5.2-60.6,6-85.3,21.6c-48.3,30.4,45.2,51.8,65.6,54c66.8,7.4,134.2,10.1,201.4,8
				c12.5-0.4,30,4.6,27.5,16.8c-0.8,3.9-3.7,6.9-6.7,9.5c-18.4,16.3-41.9,24.6-64,34.3c-11,4.8-21.9,10-32,16.6
				c-4.3,2.8-14.3,9-13.5,15.2c1,8,17.9,8.1,24,9.1c23,3.7,46.5,2.6,69.3-2.1c46.5-9.7,89.8-34.2,124.1-66.9
				C498,157.9,533.7,81.6,552.8,3.1C572-75.4,579-184.4,581.9-265.2z"/>
			<path class="st2" d="M494.3-191.7c0.8-0.8,1.6-1.5,2.4-2.3c-43.8,51.7-90.9,100.9-147.3,138.5c-32.8,21.8-67.3,41-99.5,63.7
				C238,16.6,226.4,35,238.3,43.1c5,3.4,11.6,2.4,17.3,4.1c10.4,3.2,16.1,15.3,15.3,26.1c-0.8,10.9-6.6,20.7-12.7,29.7
				c-39.2,58.2-98.1,102.8-164.7,124.7c-27,8.9-59.2,14-81.7,32.6C-32,296.9,63.5,305.7,84,305.3c67.2-1.5,134.3-7.7,200.6-18.7
				c12.3-2,30.4,0.6,29.5,13c-0.3,3.9-2.8,7.3-5.4,10.3c-16,18.5-38.3,29.9-58.9,42.4c-10.3,6.2-20.4,12.8-29.5,20.7
				c-3.9,3.4-12.9,10.8-11.4,16.9c2,7.9,18.8,5.7,25,5.8c23.3,0.6,46.5-3.6,68.4-11.3c44.8-15.8,84.5-45.8,114.1-82.7
				c50.6-63,75.8-143.4,84.4-223.8C509.5-2.4,502.1-111.3,494.3-191.7z"/>
		</g>
	</g>
</g>
</svg>
