<?xml version="1.0" encoding="utf-8"?>
<!-- Generator: Adobe Illustrator 22.0.1, SVG Export Plug-In . SVG Version: 6.00 Build 0)  -->
<svg version="1.1" id="Layer_1" xmlns="http://www.w3.org/2000/svg" xmlns:xlink="http://www.w3.org/1999/xlink" x="0px" y="0px"
	 viewBox="0 0 218.7 196.6" style="enable-background:new 0 0 218.7 196.6;" xml:space="preserve">
<style type="text/css">
	.st0{fill:#3B489D;}
	.st1{clip-path:url(#SVGID_2_);}
	.st2{fill:#3C5A9B;}
</style>
<g>
	<path class="st0" d="M176,149.8c-4,4-10.6,4-14.6-0.1c-4.1-4.1-4.1-10.6-0.1-14.6c4-4,10.6-4,14.6,0.1
		C180,139.2,180,145.8,176,149.8z"/>
	<path class="st0" d="M110.2,149.8c-4,4-10.6,4-14.6-0.1c-4.1-4.1-4.1-10.6-0.1-14.6c4-4,10.6-4,14.6,0.1
		C114.2,139.2,114.2,145.8,110.2,149.8z"/>
	<path class="st0" d="M44.4,149.8c-4,4-10.6,4-14.6-0.1c-4.1-4.1-4.1-10.6-0.1-14.6c4-4,10.6-4,14.6,0.1
		C48.4,139.2,48.4,145.8,44.4,149.8z"/>
	<path class="st0" d="M215.5,192.6c-4,4-10.6,4-14.6-0.1c-4.1-4.1-4.1-10.6-0.1-14.6c4-4,10.6-4,14.6,0.1
		C219.5,182,219.5,188.5,215.5,192.6z"/>
	<path class="st0" d="M149.7,192.6c-4,4-10.6,4-14.6-0.1c-4.1-4.1-4.1-10.6-0.1-14.6c4-4,10.6-4,14.6,0.1
		C153.7,182,153.7,188.5,149.7,192.6z"/>
	<path class="st0" d="M83.9,192.6c-4,4-10.6,4-14.6-0.1c-4.1-4.1-4.1-10.6-0.1-14.6c4-4,10.6-4,14.6,0.1
		C87.9,182,87.9,188.5,83.9,192.6z"/>
	<path class="st0" d="M18,192.6c-4,4-10.6,4-14.6-0.1c-4.1-4.1-4.1-10.6-0.1-14.6c4-4,10.6-4,14.6,0.1C22,182,22.1,188.5,18,192.6z"
		/>
	<path class="st0" d="M176,67.5c-4,4-10.6,4-14.6-0.1c-4.1-4.1-4.1-10.6-0.1-14.6c4-4,10.6-4,14.6,0.1C180,56.9,180,63.5,176,67.5z"
		/>
	<path class="st0" d="M110.2,67.5c-4,4-10.6,4-14.6-0.1c-4.1-4.1-4.1-10.6-0.1-14.6c4-4,10.6-4,14.6,0.1
		C114.2,56.9,114.2,63.5,110.2,67.5z"/>
	<path class="st0" d="M44.4,67.5c-4,4-10.6,4-14.6-0.1c-4.1-4.1-4.1-10.6-0.1-14.6c4-4,10.6-4,14.6,0.1
		C48.4,56.9,48.4,63.5,44.4,67.5z"/>
	<path class="st0" d="M215.5,110.3c-4,4-10.6,4-14.6-0.1c-4.1-4.1-4.1-10.6-0.1-14.6c4-4,10.6-4,14.6,0.1
		C219.5,99.7,219.5,106.3,215.5,110.3z"/>
	<path class="st0" d="M149.7,110.3c-4,4-10.6,4-14.6-0.1c-4.1-4.1-4.1-10.6-0.1-14.6c4-4,10.6-4,14.6,0.1
		C153.7,99.7,153.7,106.3,149.7,110.3z"/>
	<path class="st0" d="M83.9,110.3c-4,4-10.6,4-14.6-0.1c-4.1-4.1-4.1-10.6-0.1-14.6c4-4,10.6-4,14.6,0.1
		C87.9,99.7,87.9,106.3,83.9,110.3z"/>
	<ellipse transform="matrix(0.7072 -0.707 0.707 0.7072 -69.6414 37.6953)" class="st0" cx="10.7" cy="102.9" rx="10.3" ry="10.4"/>
	<path class="st0" d="M215.5,18.1c-4,4-10.6,4-14.6-0.1c-4.1-4.1-4.1-10.6-0.1-14.6c4-4,10.6-4,14.6,0.1
		C219.5,7.6,219.5,14.1,215.5,18.1z"/>
	<path class="st0" d="M149.7,18.1c-4,4-10.6,4-14.6-0.1C131,14,131,7.4,135,3.4c4-4,10.6-4,14.6,0.1
		C153.7,7.6,153.7,14.1,149.7,18.1z"/>
	<path class="st0" d="M83.9,18.1c-4,4-10.6,4-14.6-0.1C65.2,14,65.1,7.4,69.2,3.4c4-4,10.6-4,14.6,0.1C87.9,7.6,87.9,14.1,83.9,18.1
		z"/>
	<path class="st0" d="M18,18.1c-4,4-10.6,4-14.6-0.1C-0.6,14-0.7,7.4,3.3,3.4c4-4,10.6-4,14.6,0.1C22,7.6,22.1,14.1,18,18.1z"/>
</g>
<g>
	<g>
		<defs>
			<rect id="SVGID_1_" x="420.6" y="342.2" width="303.5" height="620"/>
		</defs>
		<clipPath id="SVGID_2_">
			<use xlink:href="#SVGID_1_"  style="overflow:visible;"/>
		</clipPath>
		<g class="st1">
			<path class="st2" d="M113.5,200.1c-0.9-0.6-1.8-1.3-2.7-1.9c50.3,45.5,103.4,88,164.4,117.8c35.4,17.3,72.2,31.7,107,50
				c12.8,6.7,26.8,23.3,16,33c-4.5,4-11.2,3.9-16.6,6.4c-9.9,4.5-13.9,17.3-11.7,27.9c2.2,10.7,9.3,19.6,16.5,27.8
				c46.5,52.5,110.8,88.9,179.8,101.8c27.9,5.2,60.6,6,85.3,21.6c48.3,30.4-45.2,51.8-65.6,54c-66.8,7.4-134.2,10.1-201.4,8
				c-12.5-0.4-30,4.6-27.5,16.8c0.8,3.9,3.7,6.9,6.7,9.5c18.4,16.3,41.9,24.6,64,34.3c11,4.8,21.9,10,32,16.6
				c4.3,2.8,14.3,9,13.5,15.2c-1,8-17.9,8.1-24,9.1c-23,3.7-46.5,2.6-69.3-2.1c-46.5-9.7-89.8-34.2-124.1-66.9
				c-58.5-55.8-94.1-132.1-113.3-210.6C123.5,389.9,116.4,280.9,113.5,200.1z"/>
		</g>
	</g>
</g>
</svg>
