<?xml version="1.0" encoding="utf-8"?>
<!-- Generator: Adobe Illustrator 22.0.1, SVG Export Plug-In . SVG Version: 6.00 Build 0)  -->
<svg version="1.1" id="Layer_1" xmlns="http://www.w3.org/2000/svg" xmlns:xlink="http://www.w3.org/1999/xlink" x="0px" y="0px"
	 viewBox="0 0 87.4 87" style="enable-background:new 0 0 87.4 87;" xml:space="preserve">
<style type="text/css">
	.st0{clip-path:url(#SVGID_2_);}
	.st1{fill:#F47A39;}
	.st2{fill:#22275C;}
</style>
<g>
	<g>
		<polygon points="87.1,38.2 48.8,38.2 48.8,-0.1 38.6,-0.1 38.6,38.2 0.4,38.2 0.4,48.4 38.6,48.4 38.6,86.6 48.8,86.6 48.8,48.4 
			87.1,48.4 		"/>
	</g>
</g>
<g>
	<g>
		<defs>
			<rect id="SVGID_1_" x="-388.1" y="-303.9" width="300.7" height="458.6"/>
		</defs>
		<clipPath id="SVGID_2_">
			<use xlink:href="#SVGID_1_"  style="overflow:visible;"/>
		</clipPath>
		<g class="st0">
			<path class="st1" d="M232.1-549.1c0.9-0.6,1.8-1.3,2.7-1.9c-50.3,45.5-103.4,88-164.4,117.8c-35.4,17.3-72.2,31.7-107,50
				c-12.8,6.7-26.8,23.3-16,33c4.5,4,11.2,3.9,16.6,6.4c9.9,4.5,13.9,17.3,11.7,27.9c-2.2,10.7-9.3,19.6-16.5,27.8
				c-46.5,52.5-110.8,88.9-179.8,101.8c-27.9,5.2-60.6,6-85.3,21.6c-48.3,30.4,45.2,51.8,65.6,54c66.8,7.4,134.2,10.1,201.4,8
				c12.5-0.4,30,4.6,27.5,16.8c-0.8,3.9-3.7,6.9-6.7,9.5c-18.4,16.3-41.9,24.6-64,34.3c-11,4.8-21.9,10-32,16.6
				c-4.3,2.8-14.3,9-13.5,15.2c1,8,17.9,8.1,24,9.1c23,3.7,46.5,2.6,69.3-2.1C12.1-13,55.4-37.6,89.7-70.2
				C148.2-126,183.8-202.4,203-280.9C222.1-359.4,229.2-468.4,232.1-549.1z"/>
			<path class="st2" d="M144.4-475.7c0.8-0.8,1.6-1.5,2.4-2.3C103-426.2,55.9-377-0.5-339.4c-32.8,21.8-67.3,41-99.5,63.7
				c-11.8,8.4-23.5,26.7-11.5,34.8c5,3.4,11.6,2.4,17.3,4.1c10.4,3.2,16.1,15.3,15.3,26.1c-0.8,10.9-6.6,20.7-12.7,29.7
				c-39.2,58.2-98.1,102.8-164.7,124.7c-27,8.9-59.2,14-81.7,32.6c-43.9,36.5,51.7,45.3,72.2,44.9c67.2-1.5,134.3-7.7,200.6-18.7
				c12.3-2,30.4,0.6,29.5,13C-36,19.6-38.5,23-41.1,26c-16,18.5-38.3,29.9-58.9,42.4c-10.3,6.2-20.4,12.8-29.5,20.7
				c-3.9,3.4-12.9,10.8-11.4,16.9c2,7.9,18.8,5.7,25,5.8c23.3,0.6,46.5-3.6,68.4-11.3C-2.7,84.8,37,54.7,66.6,17.8
				c50.6-63,75.8-143.4,84.4-223.8C159.6-286.3,152.2-395.2,144.4-475.7z"/>
		</g>
	</g>
</g>
</svg>
