<?xml version="1.0" encoding="utf-8"?>
<!-- Generator: Adobe Illustrator 22.0.1, SVG Export Plug-In . SVG Version: 6.00 Build 0)  -->
<svg version="1.1" id="Layer_1" xmlns="http://www.w3.org/2000/svg" xmlns:xlink="http://www.w3.org/1999/xlink" x="0px" y="0px"
	 viewBox="0 0 310.7 8" style="enable-background:new 0 0 310.7 8;" xml:space="preserve">
<style type="text/css">
	.st0{fill:#FFFFFF;}
	.st1{clip-path:url(#SVGID_2_);}
	.st2{fill:#3C5A9B;}
	.st3{fill:#F7DF13;}
</style>
<rect class="st0" width="310.7" height="8"/>
<g>
	<g>
		<defs>
			<rect id="SVGID_1_" x="424.4" y="11.6" width="303.5" height="620"/>
		</defs>
		<clipPath id="SVGID_2_">
			<use xlink:href="#SVGID_1_"  style="overflow:visible;"/>
		</clipPath>
		<g class="st1">
			<path class="st2" d="M117.3-130.4c-0.9-0.6-1.8-1.3-2.7-1.9c50.3,45.5,103.4,88,164.4,117.8c35.4,17.3,72.2,31.7,107,50
				c12.8,6.7,26.8,23.3,16,33c-4.5,4-11.2,3.9-16.6,6.4c-9.9,4.5-13.9,17.3-11.7,27.9c2.2,10.7,9.3,19.6,16.5,27.8
				C436.8,183,501.1,219.4,570,232.3c27.9,5.2,60.6,6,85.3,21.6c48.3,30.4-45.2,51.8-65.6,54c-66.8,7.4-134.2,10.1-201.4,8
				c-12.5-0.4-30,4.6-27.5,16.8c0.8,3.9,3.7,6.9,6.7,9.5c18.4,16.3,41.9,24.6,64,34.3c11,4.8,21.9,10,32,16.6
				c4.3,2.8,14.3,9,13.5,15.2c-1,8-17.9,8.1-24,9.1c-23,3.7-46.5,2.6-69.3-2.1c-46.5-9.7-89.8-34.2-124.1-66.9
				c-58.5-55.8-94.1-132.1-113.3-210.6C127.3,59.3,120.2-49.7,117.3-130.4z"/>
			<path class="st3" d="M205-57c-0.8-0.8-1.6-1.5-2.4-2.3C246.4-7.5,293.5,41.7,350,79.3c32.8,21.8,67.3,41,99.5,63.7
				c11.8,8.4,23.5,26.7,11.5,34.8c-5,3.4-11.6,2.4-17.3,4.1c-10.4,3.2-16.1,15.3-15.3,26.1c0.8,10.9,6.6,20.7,12.7,29.7
				c39.2,58.2,98.1,102.8,164.7,124.7c27,8.9,59.2,14,81.7,32.6c43.9,36.5-51.7,45.3-72.2,44.9c-67.2-1.5-134.3-7.7-200.6-18.7
				c-12.3-2-30.4,0.6-29.5,13c0.3,3.9,2.8,7.3,5.4,10.3c16,18.5,38.3,29.9,58.9,42.4c10.3,6.2,20.4,12.8,29.5,20.7
				c3.9,3.4,12.9,10.8,11.4,16.9c-2,7.9-18.8,5.7-25,5.8c-23.3,0.6-46.5-3.6-68.4-11.3c-44.8-15.8-84.5-45.8-114.1-82.7
				c-50.6-63-75.8-143.4-84.4-223.8C189.8,132.4,197.2,23.4,205-57z"/>
		</g>
	</g>
</g>
</svg>
