<?xml version="1.0" encoding="utf-8"?>
<!-- Generator: Adobe Illustrator 22.0.1, SVG Export Plug-In . SVG Version: 6.00 Build 0)  -->
<svg version="1.1" id="Layer_1" xmlns="http://www.w3.org/2000/svg" xmlns:xlink="http://www.w3.org/1999/xlink" x="0px" y="0px"
	 viewBox="0 0 211 415" style="enable-background:new 0 0 211 415;" xml:space="preserve">
<style type="text/css">
	.st0{fill:#DF0077;stroke:#CC0066;stroke-width:20;stroke-miterlimit:10;}
</style>
<path class="st0" d="M192.9,27.1L27.2,215.7c-3.1,3.5-8.5,3.9-12,0.8h0c-3.5-3.1-3.9-8.5-0.8-12L180.1,15.9c3.1-3.5,8.5-3.9,12-0.8
	l0,0C195.6,18.2,195.9,23.6,192.9,27.1z"/>
<path class="st0" d="M196.3,388.7L27,203.4c-3.2-3.5-8.6-3.7-12-0.5l0,0c-3.5,3.2-3.7,8.6-0.5,12l169.2,185.4
	c3.2,3.5,8.6,3.7,12,0.5h0C199.2,397.6,199.4,392.2,196.3,388.7z"/>
</svg>
