<?xml version="1.0" encoding="utf-8"?>
<!-- Generator: Adobe Illustrator 22.0.1, SVG Export Plug-In . SVG Version: 6.00 Build 0)  -->
<svg version="1.1" id="Layer_1" xmlns="http://www.w3.org/2000/svg" xmlns:xlink="http://www.w3.org/1999/xlink" x="0px" y="0px"
	 viewBox="0 0 211 415" style="enable-background:new 0 0 211 415;" xml:space="preserve">
<style type="text/css">
	.st0{fill:#DF0077;stroke:#CC0066;stroke-width:20;stroke-miterlimit:10;}
</style>
<path class="st0" d="M18.4,27.6l165.7,188.5c3.1,3.5,8.5,3.9,12,0.8h0c3.5-3.1,3.9-8.5,0.8-12L31.2,16.4c-3.1-3.5-8.5-3.9-12-0.8
	l0,0C15.7,18.7,15.3,24.1,18.4,27.6z"/>
<path class="st0" d="M15,389.2l169.2-185.4c3.2-3.5,8.6-3.7,12-0.5l0,0c3.5,3.2,3.7,8.6,0.5,12L27.5,400.7c-3.2,3.5-8.6,3.7-12,0.5
	h0C12.1,398.1,11.8,392.7,15,389.2z"/>
</svg>
