<?xml version="1.0" encoding="utf-8"?>
<!-- Generator: Adobe Illustrator 16.0.0, SVG Export Plug-In . SVG Version: 6.00 Build 0)  -->
<!DOCTYPE svg PUBLIC "-//W3C//DTD SVG 1.1//EN" "http://www.w3.org/Graphics/SVG/1.1/DTD/svg11.dtd">
<svg version="1.1" id="Layer_1" xmlns="http://www.w3.org/2000/svg" xmlns:xlink="http://www.w3.org/1999/xlink" x="0px" y="0px"
	 width="150.324px" height="713.857px" viewBox="0 0 150.324 713.857" enable-background="new 0 0 150.324 713.857"
	 xml:space="preserve">
<g>
	<polygon id="XMLID_86_" points="78.055,509.604 59.911,491.462 43.07,508.3 61.214,526.444 78.055,543.284 94.895,526.444 
		113.038,508.3 96.197,491.462 	"/>
	<polygon id="XMLID_55_" points="78.055,433.755 59.911,415.612 43.07,432.454 61.214,450.597 78.055,467.437 94.895,450.597 
		113.038,432.454 96.197,415.612 	"/>
	<polygon id="XMLID_54_" points="78.055,357.911 59.911,339.765 43.07,356.604 61.214,374.749 78.055,391.591 94.895,374.749 
		113.038,356.604 96.197,339.765 	"/>
	<polygon id="XMLID_53_" points="78.055,282.063 59.911,263.919 43.07,280.761 61.214,298.903 78.055,315.745 94.895,298.903 
		113.038,280.761 96.197,263.919 	"/>
	<polygon id="XMLID_52_" points="78.055,206.216 59.911,188.071 43.07,204.913 61.214,223.056 78.055,239.897 94.895,223.056 
		113.038,204.913 96.197,188.071 	"/>
	<polygon id="XMLID_51_" points="78.055,130.37 59.911,112.226 43.07,129.065 61.214,147.211 78.055,164.05 94.895,147.211 
		113.038,129.065 96.197,112.226 	"/>
	<polygon id="XMLID_50_" points="78.055,54.522 59.911,36.378 43.07,53.22 61.214,71.362 78.055,88.204 94.895,71.362 
		113.038,53.22 96.197,36.378 	"/>
	<polygon id="XMLID_49_" fill="#F3F3F3" points="78.055,654.442 59.911,636.298 43.07,653.138 61.214,671.28 78.055,688.122 
		94.895,671.28 113.038,653.138 96.197,636.298 	"/>
	<polygon id="XMLID_48_" fill="#F3F3F3" points="78.055,585.45 59.911,567.306 43.07,584.147 61.214,602.292 78.055,619.132 
		94.895,602.292 113.038,584.147 96.197,567.306 	"/>
</g>
</svg>
