<?xml version="1.0" encoding="utf-8"?>
<!-- Generator: Adobe Illustrator 16.0.0, SVG Export Plug-In . SVG Version: 6.00 Build 0)  -->
<!DOCTYPE svg PUBLIC "-//W3C//DTD SVG 1.1//EN" "http://www.w3.org/Graphics/SVG/1.1/DTD/svg11.dtd">
<svg version="1.1" id="Layer_1" xmlns="http://www.w3.org/2000/svg" xmlns:xlink="http://www.w3.org/1999/xlink" x="0px" y="0px"
	 width="896.518px" height="1662.03px" viewBox="0 0 896.518 1662.03" enable-background="new 0 0 896.518 1662.03"
	 xml:space="preserve">
<path fill="#292771" d="M598.501,1146.814C112.977,351.449,372.271-86.793,117.57,123.348c2.428,16.924,3.69,34.064,3.69,51.301
	c0,35.844-5.373,71.283-15.618,105.166c2.381,16.764,3.621,33.736,3.621,50.803c0,20.195-1.726,40.256-5.045,59.988
	c3.319,19.734,5.045,39.795,5.045,59.988c0,29.481-3.645,58.684-10.639,86.975c6.991,28.297,10.639,57.508,10.639,86.992
	c0,23.258-2.281,46.344-6.667,68.949c4.396,22.627,6.667,45.74,6.667,69.021c0,34.627-5.033,68.872-14.611,101.708
	c5.66,25.559,8.611,51.795,8.611,78.257c0,45.579-8.688,90.509-25.046,132.413C701.961,1549.344,1131.727,2020.324,598.501,1146.814
	z"/>
</svg>
