<?xml version="1.0" encoding="utf-8"?>
<!-- Generator: Adobe Illustrator 16.0.0, SVG Export Plug-In . SVG Version: 6.00 Build 0)  -->
<!DOCTYPE svg PUBLIC "-//W3C//DTD SVG 1.1//EN" "http://www.w3.org/Graphics/SVG/1.1/DTD/svg11.dtd">
<svg version="1.1" id="Layer_1" xmlns="http://www.w3.org/2000/svg" xmlns:xlink="http://www.w3.org/1999/xlink" x="0px" y="0px"
	 width="373.162px" height="389.922px" viewBox="0 0 373.162 389.922" enable-background="new 0 0 373.162 389.922"
	 xml:space="preserve">
<g>
	<path fill="#212121" d="M88.522,291.952c3.746,4.098,7.75,7.953,11.957,11.604h187.184c4.207-3.65,8.207-7.506,11.953-11.604
		H88.522z"/>
	<path fill="#212121" d="M84.202,104.065H303.94c-3.404-4.073-7.028-7.934-10.845-11.604H95.046
		C91.227,96.132,87.603,99.992,84.202,104.065z"/>
	<path fill="#212121" d="M250.531,64.169c-17.323-7.457-36.402-11.602-56.462-11.602c-20.056,0-39.136,4.145-56.459,11.602H250.531z
		"/>
	<path fill="#212121" d="M62.729,252.052c1.709,3.959,3.576,7.838,5.617,11.607h251.447c2.044-3.77,3.911-7.648,5.62-11.607H62.729z
		"/>
	<path fill="#212121" d="M150.897,331.849c13.624,4.311,28.121,6.65,43.172,6.65s29.551-2.34,43.176-6.65H150.897z"/>
	<path fill="#212121" d="M52.095,212.147c0.457,3.918,1.042,7.797,1.809,11.609h280.335c0.764-3.812,1.352-7.691,1.806-11.609
		H52.095z"/>
	<path fill="#212121" d="M65.808,132.358c-1.86,3.775-3.547,7.648-5.079,11.603h266.685c-1.531-3.954-3.219-7.827-5.078-11.603
		H65.808z"/>
	<path fill="#212121" d="M53.019,172.255c-0.618,3.818-1.078,7.691-1.406,11.602h284.917c-0.327-3.91-0.78-7.783-1.406-11.602
		H53.019z"/>
</g>
</svg>
