<?xml version="1.0" encoding="utf-8"?>
<!-- Generator: Adobe Illustrator 16.0.0, SVG Export Plug-In . SVG Version: 6.00 Build 0)  -->
<!DOCTYPE svg PUBLIC "-//W3C//DTD SVG 1.1//EN" "http://www.w3.org/Graphics/SVG/1.1/DTD/svg11.dtd">
<svg version="1.1" id="Layer_1" xmlns="http://www.w3.org/2000/svg" xmlns:xlink="http://www.w3.org/1999/xlink" x="0px" y="0px"
	 width="623.876px" height="1536.948px" viewBox="0 0 623.876 1536.948" enable-background="new 0 0 623.876 1536.948"
	 xml:space="preserve">
<g>
	<path d="M389.054,170.353l23.864-28.506c15.468,12.152,32.262,18.561,50.161,18.561c11.71,0,17.898-3.977,17.898-10.605v-0.443
		c0-6.629-5.083-9.941-26.297-15.025c-32.924-7.514-58.336-16.793-58.336-48.393v-0.439c0-28.728,22.76-49.498,59.883-49.498
		c26.296,0,46.845,7.071,63.64,20.55l-21.435,30.272c-14.142-10.164-29.609-15.246-43.309-15.246
		c-10.386,0-15.469,4.197-15.469,9.941v0.445c0,7.068,5.303,10.164,26.958,15.025c35.355,7.732,57.452,19.223,57.452,48.17v0.441
		c0,31.6-24.969,50.381-62.534,50.381C434.131,195.983,408.278,187.366,389.054,170.353z"/>
	<path d="M338.429,545.528h41.984v81.76l32.481-39.996h47.508l-41.541,47.73l42.647,71.814h-46.404l-23.865-40.878l-10.826,12.593
		v28.285h-41.984V545.528z"/>
	<path d="M496.895,1062.153h43.53v30.936h-43.53V1062.153z M497.778,1103.915h41.763v119.547h-41.763V1103.915z"/>
	<path d="M59.987,1365.577h41.984v16.795c7.733-9.945,18.781-19.447,35.797-19.447c25.411,0,40.658,16.795,40.658,43.975v78.223
		h-41.764v-64.744c0-13.26-6.85-20.33-17.014-20.33c-10.165,0-17.678,7.07-17.678,20.33v64.744H59.987V1365.577z"/>
</g>
</svg>
