<?xml version="1.0" encoding="utf-8"?>
<!-- Generator: Adobe Illustrator 16.0.0, SVG Export Plug-In . SVG Version: 6.00 Build 0)  -->
<!DOCTYPE svg PUBLIC "-//W3C//DTD SVG 1.1//EN" "http://www.w3.org/Graphics/SVG/1.1/DTD/svg11.dtd">
<svg version="1.1" id="Layer_1" xmlns="http://www.w3.org/2000/svg" xmlns:xlink="http://www.w3.org/1999/xlink" x="0px" y="0px"
	 width="129.167px" height="708.333px" viewBox="0 0 129.167 708.333" enable-background="new 0 0 129.167 708.333"
	 xml:space="preserve">
<g>
	<polygon id="XMLID_18_" points="65.017,508.743 46.874,490.601 30.033,507.438 48.176,525.583 65.017,542.423 81.857,525.583 
		100,507.438 83.16,490.601 	"/>
	<polygon id="XMLID_17_" points="65.017,432.894 46.874,414.751 30.033,431.593 48.176,449.735 65.017,466.575 81.857,449.735 
		100,431.593 83.16,414.751 	"/>
	<polygon id="XMLID_16_" points="65.017,357.05 46.874,338.903 30.033,355.743 48.176,373.888 65.017,390.729 81.857,373.888 
		100,355.743 83.16,338.903 	"/>
	<polygon id="XMLID_15_" points="65.017,281.202 46.874,263.058 30.033,279.899 48.176,298.042 65.017,314.884 81.857,298.042 
		100,279.899 83.16,263.058 	"/>
	<polygon id="XMLID_14_" points="65.017,205.354 46.874,187.21 30.033,204.052 48.176,222.194 65.017,239.036 81.857,222.194 
		100,204.052 83.16,187.21 	"/>
	<polygon id="XMLID_13_" points="65.017,129.509 46.874,111.364 30.033,128.204 48.176,146.349 65.017,163.188 81.857,146.349 
		100,128.204 83.16,111.364 	"/>
	<polygon id="XMLID_12_" points="65.017,53.661 46.874,35.517 30.033,52.358 48.176,70.501 65.017,87.343 81.857,70.501 100,52.358 
		83.16,35.517 	"/>
	<polygon id="XMLID_11_" fill="#F3F3F3" points="65.017,653.581 46.874,635.437 30.033,652.276 48.176,670.419 65.017,687.261 
		81.857,670.419 100,652.276 83.16,635.437 	"/>
	<polygon id="XMLID_10_" fill="#F3F3F3" points="65.017,584.589 46.874,566.444 30.033,583.286 48.176,601.431 65.017,618.271 
		81.857,601.431 100,583.286 83.16,566.444 	"/>
</g>
</svg>
