<?xml version="1.0" encoding="utf-8"?>
<!-- Generator: Adobe Illustrator 16.0.0, SVG Export Plug-In . SVG Version: 6.00 Build 0)  -->
<!DOCTYPE svg PUBLIC "-//W3C//DTD SVG 1.1//EN" "http://www.w3.org/Graphics/SVG/1.1/DTD/svg11.dtd">
<svg version="1.1" id="Layer_1" xmlns="http://www.w3.org/2000/svg" xmlns:xlink="http://www.w3.org/1999/xlink" x="0px" y="0px"
	 width="1045.833px" height="934.469px" viewBox="0 0 1045.833 934.469" enable-background="new 0 0 1045.833 934.469"
	 xml:space="preserve">
<path fill="#F6EC13" d="M1011.279,318.156c0-19.174,1.553-38.229,4.555-56.993c-2.994-18.765-4.555-37.815-4.555-56.983
	c0-0.416,0.015-0.832,0.016-1.248c-11.799-36.154-18.012-74.209-18.012-112.729c0-5.521,0.133-11.033,0.386-16.531
	c-3.513-18.52-5.605-37.357-6.192-56.343C859.91,144.053,700.085,297.166,499.08,353.646
	c-536.147,150.652-702.408,325.059-61.333,339.998s-521.605,416.873,457.259,103.527c40.598-12.996,77.743-24.143,111.685-33.588
	c-0.917-10.451-1.409-20.961-1.409-31.51c0-17.127,1.247-34.158,3.649-50.975c-2.399-16.828-3.649-33.869-3.649-51.006
	c0-34.527,5.01-68.676,14.539-101.424c-1.67-14.072-2.541-28.275-2.541-42.547c0-24.08,2.445-47.977,7.148-71.342
	C1015.792,383.5,1011.279,350.998,1011.279,318.156z"/>
</svg>
