<?xml version="1.0" encoding="utf-8"?>
<!-- Generator: Adobe Illustrator 16.0.0, SVG Export Plug-In . SVG Version: 6.00 Build 0)  -->
<!DOCTYPE svg PUBLIC "-//W3C//DTD SVG 1.1//EN" "http://www.w3.org/Graphics/SVG/1.1/DTD/svg11.dtd">
<svg version="1.1" id="Layer_1" xmlns="http://www.w3.org/2000/svg" xmlns:xlink="http://www.w3.org/1999/xlink" x="0px" y="0px"
	 width="310.328px" height="690.283px" viewBox="0 0 310.328 690.283" enable-background="new 0 0 310.328 690.283"
	 xml:space="preserve">
<g>
	<defs>
		<rect id="SVGID_146_" x="-20" y="53.455" width="308.758" height="742.512"/>
	</defs>
	<clipPath id="SVGID_2_">
		<use xlink:href="#SVGID_146_"  overflow="visible"/>
	</clipPath>
	<g clip-path="url(#SVGID_2_)">
		<linearGradient id="SVGID_4_" gradientUnits="userSpaceOnUse" x1="304.0327" y1="518.3481" x2="360.0821" y2="518.3481">
			<stop  offset="0" style="stop-color:#F15E60"/>
			<stop  offset="1" style="stop-color:#8C3A92"/>
		</linearGradient>
		<path fill="url(#SVGID_4_)" d="M323,517.843c0-8.801,0.33-17.576,0.971-26.311c-4.34,1.256-8.428,3.576-11.84,6.986
			c-10.885,10.883-10.781,28.625,0.215,39.629c3.39,3.389,7.426,5.705,11.696,7.016C323.353,536.095,323,526.982,323,517.843z"/>
		<linearGradient id="SVGID_5_" gradientUnits="userSpaceOnUse" x1="125.7173" y1="518.438" x2="181.7676" y2="518.438">
			<stop  offset="0" style="stop-color:#F15E60"/>
			<stop  offset="1" style="stop-color:#8C3A92"/>
		</linearGradient>
		<path fill="url(#SVGID_5_)" d="M173.654,538.367c-10.881,10.881-28.615,10.779-39.621-0.219
			c-10.998-11.004-11.104-28.746-0.219-39.629c10.891-10.889,28.635-10.799,39.641,0.219
			C184.461,509.732,184.549,527.476,173.654,538.367z"/>
		<linearGradient id="SVGID_7_" gradientUnits="userSpaceOnUse" x1="232.7056" y1="634.3442" x2="288.7578" y2="634.3442">
			<stop  offset="0" style="stop-color:#F15E60"/>
			<stop  offset="1" style="stop-color:#8C3A92"/>
		</linearGradient>
		<path fill="url(#SVGID_7_)" d="M280.643,654.275c-10.883,10.881-28.617,10.775-39.623-0.221
			c-10.998-11.004-11.1-28.75-0.217-39.631c10.893-10.883,28.635-10.799,39.643,0.217
			C291.451,625.636,291.539,643.38,280.643,654.275z"/>
		<linearGradient id="SVGID_8_" gradientUnits="userSpaceOnUse" x1="54.3916" y1="634.3442" x2="110.4414" y2="634.3442">
			<stop  offset="0" style="stop-color:#F15E60"/>
			<stop  offset="1" style="stop-color:#8C3A92"/>
		</linearGradient>
		<path fill="url(#SVGID_8_)" d="M102.326,654.275c-10.881,10.881-28.617,10.775-39.621-0.221
			c-10.996-11.004-11.1-28.75-0.219-39.631c10.893-10.883,28.639-10.799,39.645,0.217
			C113.135,625.636,113.222,643.38,102.326,654.275z"/>
		<linearGradient id="SVGID_10_" gradientUnits="userSpaceOnUse" x1="304.0327" y1="295.2876" x2="360.0819" y2="295.2876">
			<stop  offset="0" style="stop-color:#F15E60"/>
			<stop  offset="1" style="stop-color:#8C3A92"/>
		</linearGradient>
		<path fill="url(#SVGID_10_)" d="M318.705,270.773c-2.365,1.25-4.586,2.861-6.574,4.848c-10.885,10.887-10.781,28.633,0.215,39.637
			c1.815,1.814,3.817,3.324,5.938,4.545c0.756-9.023,1.853-17.998,3.273-26.906C320.387,285.562,319.425,278.185,318.705,270.773z"
			/>
		<linearGradient id="SVGID_11_" gradientUnits="userSpaceOnUse" x1="125.7173" y1="295.5454" x2="181.7676" y2="295.5454">
			<stop  offset="0" style="stop-color:#F15E60"/>
			<stop  offset="1" style="stop-color:#8C3A92"/>
		</linearGradient>
		<path fill="url(#SVGID_11_)" d="M173.654,315.474c-10.881,10.883-28.615,10.779-39.621-0.217
			c-10.998-11.004-11.104-28.75-0.219-39.637c10.891-10.883,28.635-10.791,39.641,0.219
			C184.461,286.841,184.549,304.578,173.654,315.474z"/>
		<linearGradient id="SVGID_13_" gradientUnits="userSpaceOnUse" x1="232.7056" y1="411.4487" x2="288.7578" y2="411.4487">
			<stop  offset="0" style="stop-color:#F15E60"/>
			<stop  offset="1" style="stop-color:#8C3A92"/>
		</linearGradient>
		<path fill="url(#SVGID_13_)" d="M280.643,431.375c-10.883,10.887-28.617,10.785-39.623-0.213
			c-10.998-11.006-11.1-28.75-0.217-39.637c10.893-10.883,28.635-10.795,39.643,0.217
			C291.451,402.74,291.539,420.49,280.643,431.375z"/>
		<linearGradient id="SVGID_14_" gradientUnits="userSpaceOnUse" x1="54.3916" y1="411.4487" x2="110.4414" y2="411.4487">
			<stop  offset="0" style="stop-color:#F15E60"/>
			<stop  offset="1" style="stop-color:#8C3A92"/>
		</linearGradient>
		<path fill="url(#SVGID_14_)" d="M102.326,431.375c-10.881,10.887-28.617,10.785-39.621-0.213
			c-10.996-11.006-11.1-28.75-0.219-39.637c10.893-10.883,28.639-10.795,39.645,0.217
			C113.135,402.74,113.222,420.49,102.326,431.375z"/>
		<linearGradient id="SVGID_15_" gradientUnits="userSpaceOnUse" x1="232.7056" y1="161.8101" x2="288.7578" y2="161.8101">
			<stop  offset="0" style="stop-color:#F15E60"/>
			<stop  offset="1" style="stop-color:#8C3A92"/>
		</linearGradient>
		<path fill="url(#SVGID_15_)" d="M280.643,181.738c-10.883,10.887-28.617,10.781-39.623-0.221
			c-10.998-11.006-11.1-28.746-0.217-39.629c10.893-10.883,28.635-10.799,39.643,0.217
			C291.451,153.1,291.539,170.845,280.643,181.738z"/>
		<linearGradient id="SVGID_16_" gradientUnits="userSpaceOnUse" x1="54.3916" y1="161.8101" x2="110.4414" y2="161.8101">
			<stop  offset="0" style="stop-color:#F15E60"/>
			<stop  offset="1" style="stop-color:#8C3A92"/>
		</linearGradient>
		<path fill="url(#SVGID_16_)" d="M102.326,181.738c-10.881,10.887-28.617,10.781-39.621-0.221
			c-10.996-11.006-11.1-28.746-0.219-39.629c10.893-10.883,28.639-10.799,39.645,0.217
			C113.135,153.1,113.222,170.845,102.326,181.738z"/>
	</g>
</g>
</svg>
