<?xml version="1.0" encoding="utf-8"?>
<!-- Generator: Adobe Illustrator 16.0.0, SVG Export Plug-In . SVG Version: 6.00 Build 0)  -->
<!DOCTYPE svg PUBLIC "-//W3C//DTD SVG 1.1//EN" "http://www.w3.org/Graphics/SVG/1.1/DTD/svg11.dtd">
<svg version="1.1" id="Layer_1" xmlns="http://www.w3.org/2000/svg" xmlns:xlink="http://www.w3.org/1999/xlink" x="0px" y="0px"
	 width="345.833px" height="365.908px" viewBox="0 0 345.833 365.908" enable-background="new 0 0 345.833 365.908"
	 xml:space="preserve">
<g>
	<path fill="#212121" d="M59.015,279.421c3.746,4.098,7.75,7.953,11.957,11.604h187.184c4.207-3.65,8.207-7.506,11.953-11.604
		H59.015z"/>
	<path fill="#212121" d="M54.695,91.534h219.738c-3.404-4.074-7.028-7.934-10.845-11.604H65.539
		C61.719,83.601,58.095,87.46,54.695,91.534z"/>
	<path fill="#212121" d="M221.024,51.638c-17.323-7.457-36.402-11.602-56.462-11.602c-20.056,0-39.136,4.145-56.459,11.602H221.024z
		"/>
	<path fill="#212121" d="M33.221,239.521c1.709,3.959,3.576,7.838,5.617,11.607h251.447c2.044-3.77,3.911-7.648,5.62-11.607H33.221z
		"/>
	<path fill="#212121" d="M121.39,319.317c13.624,4.311,28.121,6.65,43.172,6.65s29.551-2.34,43.176-6.65H121.39z"/>
	<path fill="#212121" d="M22.587,199.616c0.457,3.918,1.042,7.797,1.809,11.609h280.335c0.764-3.812,1.352-7.691,1.806-11.609
		H22.587z"/>
	<path fill="#212121" d="M36.3,119.827c-1.86,3.775-3.547,7.648-5.079,11.602h266.685c-1.532-3.953-3.219-7.826-5.078-11.602H36.3z"
		/>
	<path fill="#212121" d="M23.511,159.724c-0.618,3.818-1.078,7.691-1.406,11.602h284.917c-0.327-3.91-0.78-7.783-1.406-11.602
		H23.511z"/>
</g>
</svg>
