<?xml version="1.0" encoding="utf-8"?>
<!-- Generator: Adobe Illustrator 16.0.0, SVG Export Plug-In . SVG Version: 6.00 Build 0)  -->
<!DOCTYPE svg PUBLIC "-//W3C//DTD SVG 1.1//EN" "http://www.w3.org/Graphics/SVG/1.1/DTD/svg11.dtd">
<svg version="1.1" id="Layer_1" xmlns="http://www.w3.org/2000/svg" xmlns:xlink="http://www.w3.org/1999/xlink" x="0px" y="0px"
	 width="750px" height="750px" viewBox="0 0 750 750" enable-background="new 0 0 750 750" xml:space="preserve">
<g>
	<g>
		<g>
			<linearGradient id="SVGID_2_" gradientUnits="userSpaceOnUse" x1="116.2158" y1="342.1006" x2="652.8818" y2="342.1006">
				<stop  offset="0.0143" style="stop-color:#FFFFFF"/>
				<stop  offset="0.2156" style="stop-color:#FEE98C"/>
				<stop  offset="0.4176" style="stop-color:#FDD5A0"/>
				<stop  offset="0.5865" style="stop-color:#FCC7AB"/>
				<stop  offset="0.6738" style="stop-color:#F9C4AD"/>
				<stop  offset="0.7735" style="stop-color:#F2BDB3"/>
				<stop  offset="0.8792" style="stop-color:#EAB3BC"/>
				<stop  offset="0.9884" style="stop-color:#DEA5C7"/>
				<stop  offset="1" style="stop-color:#DDA3CA"/>
			</linearGradient>
			<path fill="url(#SVGID_2_)" d="M652.882,342.117c0,148.184-120.136,268.312-268.322,268.312
				c-148.201,0-268.344-120.129-268.344-268.312c0-148.219,120.143-268.346,268.344-268.346
				C532.746,73.771,652.882,193.898,652.882,342.117z"/>
			<linearGradient id="SVGID_4_" gradientUnits="userSpaceOnUse" x1="116.2158" y1="342.1006" x2="652.8818" y2="342.1006">
				<stop  offset="0.0143" style="stop-color:#FFFFFF"/>
				<stop  offset="0.2156" style="stop-color:#FEE98C"/>
				<stop  offset="0.4176" style="stop-color:#FDD5A0"/>
				<stop  offset="0.5865" style="stop-color:#FCC7AB"/>
				<stop  offset="0.6738" style="stop-color:#F9C4AD"/>
				<stop  offset="0.7735" style="stop-color:#F2BDB3"/>
				<stop  offset="0.8792" style="stop-color:#EAB3BC"/>
				<stop  offset="0.9884" style="stop-color:#DEA5C7"/>
				<stop  offset="1" style="stop-color:#DDA3CA"/>
			</linearGradient>
			<path fill="url(#SVGID_4_)" d="M652.882,342.117c0,148.184-120.136,268.312-268.322,268.312
				c-148.201,0-268.344-120.129-268.344-268.312c0-148.219,120.143-268.346,268.344-268.346
				C532.746,73.771,652.882,193.898,652.882,342.117z"/>
		</g>
		<g>
			<defs>
				<rect id="SVGID_160_" x="384.56" y="73.771" width="293.492" height="557.389"/>
			</defs>
			<clipPath id="SVGID_5_">
				<use xlink:href="#SVGID_160_"  overflow="visible"/>
			</clipPath>
			<g clip-path="url(#SVGID_5_)">
				<linearGradient id="SVGID_7_" gradientUnits="userSpaceOnUse" x1="116.2158" y1="342.1006" x2="652.8818" y2="342.1006">
					<stop  offset="0.0143" style="stop-color:#FFFFFF"/>
					<stop  offset="0.2156" style="stop-color:#FEE98C"/>
					<stop  offset="0.4176" style="stop-color:#FDD5A0"/>
					<stop  offset="0.5865" style="stop-color:#FCC7AB"/>
					<stop  offset="0.6738" style="stop-color:#F9C4AD"/>
					<stop  offset="0.7735" style="stop-color:#F2BDB3"/>
					<stop  offset="0.8792" style="stop-color:#EAB3BC"/>
					<stop  offset="0.9884" style="stop-color:#DEA5C7"/>
					<stop  offset="1" style="stop-color:#DDA3CA"/>
				</linearGradient>
				<path fill="url(#SVGID_7_)" d="M652.882,342.117c0,148.184-120.136,268.312-268.322,268.312
					c-148.201,0-268.344-120.129-268.344-268.312c0-148.219,120.143-268.346,268.344-268.346
					C532.746,73.771,652.882,193.898,652.882,342.117z"/>
				<linearGradient id="SVGID_8_" gradientUnits="userSpaceOnUse" x1="116.2158" y1="342.1006" x2="652.8818" y2="342.1006">
					<stop  offset="0.0143" style="stop-color:#FFFFFF"/>
					<stop  offset="0.2156" style="stop-color:#FEE98C"/>
					<stop  offset="0.4176" style="stop-color:#FDD5A0"/>
					<stop  offset="0.5865" style="stop-color:#FCC7AB"/>
					<stop  offset="0.6738" style="stop-color:#F9C4AD"/>
					<stop  offset="0.7735" style="stop-color:#F2BDB3"/>
					<stop  offset="0.8792" style="stop-color:#EAB3BC"/>
					<stop  offset="0.9884" style="stop-color:#DEA5C7"/>
					<stop  offset="1" style="stop-color:#DDA3CA"/>
				</linearGradient>
				<path fill="url(#SVGID_8_)" d="M652.882,342.117c0,148.184-120.136,268.312-268.322,268.312
					c-148.201,0-268.344-120.129-268.344-268.312c0-148.219,120.143-268.346,268.344-268.346
					C532.746,73.771,652.882,193.898,652.882,342.117z"/>
			</g>
		</g>
	</g>
	<g>
		<defs>
			<rect id="SVGID_164_" x="323.588" y="93.119" width="371.3" height="784.729"/>
		</defs>
		<clipPath id="SVGID_10_">
			<use xlink:href="#SVGID_164_"  overflow="visible"/>
		</clipPath>
		<g clip-path="url(#SVGID_10_)">
			<path fill="#FFFFFF" d="M658.897,559.232c-9.756,9.758-25.656,9.668-35.523-0.193c-9.858-9.865-9.951-25.771-0.193-35.529
				c9.765-9.762,25.672-9.68,35.538,0.195C668.583,533.562,668.663,549.471,658.897,559.232z"/>
			<path fill="#FFFFFF" d="M499.035,559.232c-9.757,9.758-25.657,9.668-35.524-0.193c-9.858-9.865-9.951-25.771-0.193-35.529
				c9.765-9.762,25.672-9.68,35.538,0.195C508.721,533.562,508.8,549.471,499.035,559.232z"/>
			<path fill="#FFFFFF" d="M754.815,663.148c-9.757,9.756-25.657,9.662-35.523-0.195c-9.859-9.865-9.951-25.775-0.194-35.533
				c9.764-9.758,25.671-9.682,35.537,0.193C764.504,637.473,764.581,653.381,754.815,663.148z"/>
			<path fill="#FFFFFF" d="M594.952,663.148c-9.757,9.756-25.656,9.662-35.523-0.195c-9.859-9.865-9.951-25.775-0.194-35.533
				c9.764-9.758,25.671-9.682,35.54,0.193C604.641,637.473,604.719,653.381,594.952,663.148z"/>
			<path fill="#FFFFFF" d="M435.089,663.148c-9.757,9.756-25.656,9.662-35.523-0.195c-9.856-9.865-9.951-25.775-0.194-35.533
				c9.765-9.758,25.672-9.682,35.54,0.193C444.777,637.473,444.855,653.381,435.089,663.148z"/>
			<path fill="#FFFFFF" d="M658.897,359.408c-9.756,9.756-25.656,9.66-35.523-0.195c-9.858-9.865-9.951-25.775-0.193-35.533
				c9.765-9.758,25.672-9.678,35.538,0.193C668.583,333.736,668.663,349.641,658.897,359.408z"/>
			<path fill="#FFFFFF" d="M499.035,359.408c-9.757,9.756-25.657,9.66-35.524-0.195c-9.858-9.865-9.951-25.775-0.193-35.533
				c9.765-9.758,25.672-9.678,35.538,0.193C508.721,333.736,508.8,349.641,499.035,359.408z"/>
			<path fill="#FFFFFF" d="M754.815,463.318c-9.757,9.756-25.657,9.666-35.523-0.195c-9.859-9.867-9.951-25.775-0.194-35.533
				c9.764-9.758,25.671-9.678,35.537,0.193C764.504,437.645,764.581,453.555,754.815,463.318z"/>
			<path fill="#FFFFFF" d="M594.952,463.318c-9.757,9.756-25.656,9.666-35.523-0.195c-9.859-9.867-9.951-25.775-0.194-35.533
				c9.764-9.758,25.671-9.678,35.54,0.193C604.641,437.645,604.719,453.555,594.952,463.318z"/>
			<path fill="#FFFFFF" d="M435.089,463.318c-9.757,9.756-25.656,9.666-35.523-0.195c-9.856-9.867-9.951-25.775-0.194-35.533
				c9.765-9.758,25.672-9.678,35.54,0.193C444.777,437.645,444.855,453.555,435.089,463.318z"/>
			<path fill="#FFFFFF" d="M754.815,239.512c-9.757,9.758-25.657,9.664-35.523-0.199c-9.859-9.867-9.951-25.771-0.194-35.527
				c9.764-9.758,25.671-9.682,35.537,0.193C764.504,213.836,764.581,229.746,754.815,239.512z"/>
			<path fill="#FFFFFF" d="M594.952,239.512c-9.757,9.758-25.656,9.664-35.523-0.199c-9.859-9.867-9.951-25.771-0.194-35.527
				c9.764-9.758,25.671-9.682,35.54,0.193C604.641,213.836,604.719,229.746,594.952,239.512z"/>
			<path fill="#FFFFFF" d="M435.089,239.512c-9.757,9.758-25.656,9.664-35.523-0.199c-9.856-9.867-9.951-25.771-0.194-35.527
				c9.765-9.758,25.672-9.682,35.54,0.193C444.777,213.836,444.855,229.746,435.089,239.512z"/>
		</g>
	</g>
</g>
<g>
	<polygon fill="#212121" points="163.817,115.146 124.87,115.146 124.87,76.193 114.48,76.193 114.48,115.146 75.521,115.146 
		75.521,125.537 114.48,125.537 114.48,164.49 124.87,164.49 124.87,125.537 163.817,125.537 	"/>
</g>
</svg>
