<?xml version="1.0" encoding="utf-8"?>
<!-- Generator: Adobe Illustrator 16.0.0, SVG Export Plug-In . SVG Version: 6.00 Build 0)  -->
<!DOCTYPE svg PUBLIC "-//W3C//DTD SVG 1.1//EN" "http://www.w3.org/Graphics/SVG/1.1/DTD/svg11.dtd">
<svg version="1.1" id="Layer_1" xmlns="http://www.w3.org/2000/svg" xmlns:xlink="http://www.w3.org/1999/xlink" x="0px" y="0px"
	 width="850px" height="1597.678px" viewBox="0 0 850 1597.678" enable-background="new 0 0 850 1597.678" xml:space="preserve">
<path fill="#292771" d="M559.689,1096C74.165,300.633,333.46-137.609,78.758,72.531c2.428,16.924,3.69,34.064,3.69,51.301
	c0,35.844-5.373,71.283-15.618,105.166c2.38,16.764,3.621,33.736,3.621,50.803c0,20.195-1.726,40.256-5.045,59.988
	c3.319,19.734,5.045,39.795,5.045,59.988c0,29.48-3.645,58.684-10.639,86.975c6.991,28.297,10.639,57.508,10.639,86.992
	c0,23.258-2.282,46.344-6.667,68.949c4.396,22.627,6.667,45.74,6.667,69.021c0,34.627-5.033,68.873-14.611,101.709
	c5.66,25.559,8.611,51.795,8.611,78.256c0,45.58-8.688,90.51-25.046,132.414C663.149,1498.527,1092.915,1969.508,559.689,1096z"/>
<g>
	<g>
		<defs>
			<rect id="SVGID_164_" x="-588.913" y="-417.535" width="371.3" height="784.729"/>
		</defs>
		<clipPath id="SVGID_2_">
			<use xlink:href="#SVGID_164_"  overflow="visible"/>
		</clipPath>
		<g clip-path="url(#SVGID_2_)">
			<path fill="#FFFFFF" d="M2.178,152.494c-9.758,9.756-25.657,9.662-35.523-0.195c-9.86-9.865-9.951-25.775-0.195-35.533
				c9.765-9.758,25.672-9.682,35.538,0.193C11.864,126.818,11.944,142.727,2.178,152.494z"/>
		</g>
	</g>
</g>
</svg>
