<?xml version="1.0" encoding="utf-8"?>
<!-- Generator: Adobe Illustrator 22.0.1, SVG Export Plug-In . SVG Version: 6.00 Build 0)  -->
<svg version="1.1" id="Layer_1" xmlns="http://www.w3.org/2000/svg" xmlns:xlink="http://www.w3.org/1999/xlink" x="0px" y="0px"
	 viewBox="0 0 221.9 198.6" style="enable-background:new 0 0 221.9 198.6;" xml:space="preserve">
<style type="text/css">
	.st0{fill:#FFFFFF;}
</style>
<g>
	<path class="st0" d="M177.6,151.2c-4,4-10.6,4-14.6-0.1c-4.1-4.1-4.1-10.6-0.1-14.6c4-4,10.6-4,14.6,0.1
		C181.6,140.6,181.6,147.2,177.6,151.2z"/>
	<path class="st0" d="M111.8,151.2c-4,4-10.6,4-14.6-0.1c-4.1-4.1-4.1-10.6-0.1-14.6c4-4,10.6-4,14.6,0.1
		C115.8,140.6,115.8,147.2,111.8,151.2z"/>
	<path class="st0" d="M45.9,151.2c-4,4-10.6,4-14.6-0.1c-4.1-4.1-4.1-10.6-0.1-14.6c4-4,10.6-4,14.6,0.1
		C49.9,140.6,50,147.2,45.9,151.2z"/>
	<path class="st0" d="M217.1,194c-4,4-10.6,4-14.6-0.1c-4.1-4.1-4.1-10.6-0.1-14.6c4-4,10.6-4,14.6,0.1
		C221.1,183.4,221.1,190,217.1,194z"/>
	<path class="st0" d="M151.3,194c-4,4-10.6,4-14.6-0.1c-4.1-4.1-4.1-10.6-0.1-14.6c4-4,10.6-4,14.6,0.1
		C155.2,183.4,155.3,190,151.3,194z"/>
	<path class="st0" d="M85.4,194c-4,4-10.6,4-14.6-0.1c-4.1-4.1-4.1-10.6-0.1-14.6c4-4,10.6-4,14.6,0.1C89.4,183.4,89.5,190,85.4,194
		z"/>
	<path class="st0" d="M19.6,194c-4,4-10.6,4-14.6-0.1c-4.1-4.1-4.1-10.6-0.1-14.6c4-4,10.6-4,14.6,0.1C23.6,183.4,23.6,190,19.6,194
		z"/>
	<path class="st0" d="M177.6,68.9c-4,4-10.6,4-14.6-0.1c-4.1-4.1-4.1-10.6-0.1-14.6c4-4,10.6-4,14.6,0.1
		C181.6,58.4,181.6,64.9,177.6,68.9z"/>
	<path class="st0" d="M111.8,68.9c-4,4-10.6,4-14.6-0.1c-4.1-4.1-4.1-10.6-0.1-14.6c4-4,10.6-4,14.6,0.1
		C115.8,58.4,115.8,64.9,111.8,68.9z"/>
	<path class="st0" d="M45.9,68.9c-4,4-10.6,4-14.6-0.1c-4.1-4.1-4.1-10.6-0.1-14.6c4-4,10.6-4,14.6,0.1C49.9,58.4,50,64.9,45.9,68.9
		z"/>
	<path class="st0" d="M217.1,111.7c-4,4-10.6,4-14.6-0.1c-4.1-4.1-4.1-10.6-0.1-14.6c4-4,10.6-4,14.6,0.1
		C221.1,101.2,221.1,107.7,217.1,111.7z"/>
	<path class="st0" d="M151.3,111.7c-4,4-10.6,4-14.6-0.1c-4.1-4.1-4.1-10.6-0.1-14.6c4-4,10.6-4,14.6,0.1
		C155.2,101.2,155.3,107.7,151.3,111.7z"/>
	<path class="st0" d="M85.4,111.7c-4,4-10.6,4-14.6-0.1c-4.1-4.1-4.1-10.6-0.1-14.6c4-4,10.6-4,14.6,0.1
		C89.4,101.2,89.5,107.7,85.4,111.7z"/>
	<path class="st0" d="M19.6,111.7c-4,4-10.6,4-14.6-0.1C0.9,107.6,0.9,101,4.9,97c4-4,10.6-4,14.6,0.1
		C23.6,101.2,23.6,107.7,19.6,111.7z"/>
	<path class="st0" d="M217.1,19.6c-4,4-10.6,4-14.6-0.1c-4.1-4.1-4.1-10.6-0.1-14.6c4-4,10.6-4,14.6,0.1
		C221.1,9,221.1,15.6,217.1,19.6z"/>
	<path class="st0" d="M151.3,19.6c-4,4-10.6,4-14.6-0.1c-4.1-4.1-4.1-10.6-0.1-14.6c4-4,10.6-4,14.6,0.1
		C155.2,9,155.3,15.6,151.3,19.6z"/>
	<path class="st0" d="M85.4,19.6c-4,4-10.6,4-14.6-0.1c-4.1-4.1-4.1-10.6-0.1-14.6c4-4,10.6-4,14.6,0.1C89.4,9,89.5,15.6,85.4,19.6z
		"/>
	<path class="st0" d="M19.6,19.6c-4,4-10.6,4-14.6-0.1C0.9,15.4,0.9,8.9,4.9,4.9c4-4,10.6-4,14.6,0.1C23.6,9,23.6,15.6,19.6,19.6z"
		/>
</g>
</svg>
