<?xml version="1.0" encoding="utf-8"?>
<!-- Generator: Adobe Illustrator 22.0.1, SVG Export Plug-In . SVG Version: 6.00 Build 0)  -->
<svg version="1.1" id="Layer_1" xmlns="http://www.w3.org/2000/svg" xmlns:xlink="http://www.w3.org/1999/xlink" x="0px" y="0px"
	 viewBox="0 0 916.9 388.1" style="enable-background:new 0 0 916.9 388.1;" xml:space="preserve">
<style type="text/css">
	.st0{clip-path:url(#SVGID_2_);fill:url(#SVGID_3_);}
</style>
<g>
	<g>
		<defs>
			<rect id="SVGID_1_" x="-311.6" y="1" width="1327.3" height="400"/>
		</defs>
		<clipPath id="SVGID_2_">
			<use xlink:href="#SVGID_1_"  style="overflow:visible;"/>
		</clipPath>
		
			<linearGradient id="SVGID_3_" gradientUnits="userSpaceOnUse" x1="-291.4518" y1="512.6791" x2="1312.5178" y2="512.6791" gradientTransform="matrix(1 0 0 -1 0 413)">
			<stop  offset="0" style="stop-color:#F15E60"/>
			<stop  offset="1" style="stop-color:#8C3A92"/>
		</linearGradient>
		<path class="st0" d="M342.5,140.1C62.3,71,317.6,615.5,582.8,272.4C848-70.8,837.2,567.5,893.2,90.2
			c56-477.3,1047.7-459.1-230.9-384.7s-184-226.8-91.3-130.6s221.8-215.9-227.3-152.4s-822,54.4-533.7,270.3
			c0,0-83.3,410.6,95.5,277.3C84.2-163.3-54.2,322.4,63.8,174.5s180.9,294.8,189.5,147.4c8.5-147.4,61.3,3,98.6-77.2
			S383.2,150.1,342.5,140.1z"/>
	</g>
</g>
</svg>
