<?xml version="1.0" encoding="utf-8"?>
<!-- Generator: Adobe Illustrator 16.0.0, SVG Export Plug-In . SVG Version: 6.00 Build 0)  -->
<!DOCTYPE svg PUBLIC "-//W3C//DTD SVG 1.1//EN" "http://www.w3.org/Graphics/SVG/1.1/DTD/svg11.dtd">
<svg version="1.1" id="Layer_1" xmlns="http://www.w3.org/2000/svg" xmlns:xlink="http://www.w3.org/1999/xlink" x="0px" y="0px"
	 width="45.111px" height="427.849px" viewBox="0 0 45.111 427.849" enable-background="new 0 0 45.111 427.849"
	 xml:space="preserve">
<g>
	<polygon id="XMLID_18_" points="22.555,118.657 34.254,130.354 45.111,119.497 33.412,107.8 22.555,96.942 11.698,107.8 0,119.497 
		10.858,130.354 	"/>
	<polygon id="XMLID_17_" points="22.555,167.558 34.254,179.255 45.111,168.397 33.412,156.7 22.555,145.843 11.698,156.7 
		0,168.397 10.858,179.255 	"/>
	<polygon id="XMLID_16_" points="22.555,216.457 34.254,228.155 45.111,217.298 33.412,205.6 22.555,194.742 11.698,205.6 
		0,217.298 10.858,228.155 	"/>
	<polygon id="XMLID_15_" points="22.555,265.356 34.254,277.055 45.111,266.197 33.412,254.499 22.555,243.642 11.698,254.499 
		0,266.197 10.858,277.055 	"/>
	<polygon id="XMLID_14_" points="22.555,314.257 34.254,325.954 45.111,315.097 33.412,303.399 22.555,292.542 11.698,303.399 
		0,315.097 10.858,325.954 	"/>
	<polygon id="XMLID_13_" points="22.555,363.156 34.254,374.854 45.111,363.997 33.412,352.299 22.555,341.442 11.698,352.299 
		0,363.997 10.858,374.854 	"/>
	<polygon id="XMLID_12_" points="22.555,412.057 34.254,423.754 45.111,412.896 33.412,401.199 22.555,390.342 11.698,401.199 
		0,412.896 10.858,423.754 	"/>
	<polygon id="XMLID_11_" fill="#F3E94B" points="22.555,25.277 34.254,36.976 45.111,26.118 33.412,14.421 22.555,3.563 
		11.698,14.421 0,26.118 10.858,36.976 	"/>
	<polygon id="XMLID_10_" fill="#F3E94B" points="22.555,69.757 34.254,81.455 45.111,70.598 33.412,58.899 22.555,48.042 
		11.698,58.899 0,70.598 10.858,81.455 	"/>
</g>
</svg>
