<?xml version="1.0" encoding="utf-8"?>
<!-- Generator: Adobe Illustrator 22.0.1, SVG Export Plug-In . SVG Version: 6.00 Build 0)  -->
<svg version="1.1" id="Layer_1" xmlns="http://www.w3.org/2000/svg" xmlns:xlink="http://www.w3.org/1999/xlink" x="0px" y="0px"
	 viewBox="0 0 988 400" style="enable-background:new 0 0 988 400;" xml:space="preserve">
<style type="text/css">
	.st0{clip-path:url(#SVGID_2_);fill:url(#SVGID_3_);}
</style>
<g>
	<g>
		<defs>
			<rect id="SVGID_1_" x="-335.4" width="1427.9" height="400"/>
		</defs>
		<clipPath id="SVGID_2_">
			<use xlink:href="#SVGID_1_"  style="overflow:visible;"/>
		</clipPath>
		
			<linearGradient id="SVGID_3_" gradientUnits="userSpaceOnUse" x1="-313.6869" y1="502.1181" x2="1411.9252" y2="502.1181" gradientTransform="matrix(1 0 0 -1 0 401.439)">
			<stop  offset="0" style="stop-color:#F15E60"/>
			<stop  offset="1" style="stop-color:#8C3A92"/>
		</linearGradient>
		<path class="st0" d="M368.4,139.1C66.9,70,341.6,614.5,626.9,271.4C912.2-71.8,900.5,566.5,960.8,89.2
			C1021.1-388,2088-369.9,712.4-295.5s-198-226.8-98.2-130.6s238.7-215.9-244.5-152.4s-884.3,54.4-574.2,270.3
			c0,0-89.6,410.6,102.7,277.3C90.5-164.3-58.4,321.4,68.6,173.5s194.7,294.8,203.9,147.4c9.2-147.4,66,3,106-77.2
			S412.1,149.1,368.4,139.1z"/>
	</g>
</g>
</svg>
