<?xml version="1.0" encoding="utf-8"?>
<!-- Generator: Adobe Illustrator 16.0.0, SVG Export Plug-In . SVG Version: 6.00 Build 0)  -->
<!DOCTYPE svg PUBLIC "-//W3C//DTD SVG 1.1//EN" "http://www.w3.org/Graphics/SVG/1.1/DTD/svg11.dtd">
<svg version="1.1" id="Layer_1" xmlns="http://www.w3.org/2000/svg" xmlns:xlink="http://www.w3.org/1999/xlink" x="0px" y="0px"
	 width="221.942px" height="198.562px" viewBox="0 0 221.942 198.562" enable-background="new 0 0 221.942 198.562"
	 xml:space="preserve">
<g>
	<linearGradient id="SVGID_2_" gradientUnits="userSpaceOnUse" x1="159.8926" y1="143.8633" x2="180.585" y2="143.8633">
		<stop  offset="0" style="stop-color:#F15E60"/>
		<stop  offset="1" style="stop-color:#8C3A92"/>
	</linearGradient>
	<path fill="url(#SVGID_2_)" d="M177.59,151.22c-4.018,4.018-10.564,3.979-14.627-0.08c-4.061-4.062-4.1-10.613-0.082-14.631
		c4.021-4.018,10.572-3.986,14.635,0.08C181.578,140.649,181.611,147.198,177.59,151.22z"/>
	<linearGradient id="SVGID_3_" gradientUnits="userSpaceOnUse" x1="94.0703" y1="143.8633" x2="114.7598" y2="143.8633">
		<stop  offset="0" style="stop-color:#F15E60"/>
		<stop  offset="1" style="stop-color:#8C3A92"/>
	</linearGradient>
	<path fill="url(#SVGID_3_)" d="M111.766,151.22c-4.018,4.018-10.564,3.979-14.627-0.08c-4.06-4.062-4.098-10.613-0.08-14.631
		c4.021-4.018,10.57-3.986,14.633,0.08C115.754,140.649,115.786,147.198,111.766,151.22z"/>
	<linearGradient id="SVGID_5_" gradientUnits="userSpaceOnUse" x1="28.2451" y1="143.8633" x2="48.9355" y2="143.8633">
		<stop  offset="0" style="stop-color:#F15E60"/>
		<stop  offset="1" style="stop-color:#8C3A92"/>
	</linearGradient>
	<path fill="url(#SVGID_5_)" d="M45.941,151.22c-4.018,4.018-10.564,3.979-14.627-0.08c-4.06-4.062-4.098-10.613-0.08-14.631
		c4.021-4.018,10.57-3.986,14.633,0.08C49.93,140.649,49.961,147.198,45.941,151.22z"/>
	<linearGradient id="SVGID_6_" gradientUnits="userSpaceOnUse" x1="199.3877" y1="186.6484" x2="220.0791" y2="186.6484">
		<stop  offset="0" style="stop-color:#F15E60"/>
		<stop  offset="1" style="stop-color:#8C3A92"/>
	</linearGradient>
	<path fill="url(#SVGID_6_)" d="M217.084,194.005c-4.018,4.018-10.564,3.979-14.627-0.08c-4.06-4.062-4.098-10.613-0.08-14.631
		c4.021-4.018,10.57-3.984,14.633,0.08C221.072,183.435,221.105,189.985,217.084,194.005z"/>
	<linearGradient id="SVGID_8_" gradientUnits="userSpaceOnUse" x1="133.5635" y1="186.6484" x2="154.2539" y2="186.6484">
		<stop  offset="0" style="stop-color:#F15E60"/>
		<stop  offset="1" style="stop-color:#8C3A92"/>
	</linearGradient>
	<path fill="url(#SVGID_8_)" d="M151.26,194.005c-4.018,4.018-10.564,3.979-14.627-0.08c-4.06-4.062-4.098-10.613-0.08-14.631
		c4.021-4.018,10.57-3.984,14.633,0.08C155.248,183.435,155.281,189.985,151.26,194.005z"/>
	<linearGradient id="SVGID_9_" gradientUnits="userSpaceOnUse" x1="67.7393" y1="186.6484" x2="88.4307" y2="186.6484">
		<stop  offset="0" style="stop-color:#F15E60"/>
		<stop  offset="1" style="stop-color:#8C3A92"/>
	</linearGradient>
	<path fill="url(#SVGID_9_)" d="M85.436,194.005c-4.018,4.018-10.564,3.979-14.627-0.08c-4.061-4.062-4.098-10.613-0.08-14.631
		c4.02-4.018,10.57-3.984,14.634,0.08C89.425,183.435,89.457,189.985,85.436,194.005z"/>
	<linearGradient id="SVGID_10_" gradientUnits="userSpaceOnUse" x1="1.916" y1="186.6484" x2="22.6064" y2="186.6484">
		<stop  offset="0" style="stop-color:#F15E60"/>
		<stop  offset="1" style="stop-color:#8C3A92"/>
	</linearGradient>
	<path fill="url(#SVGID_10_)" d="M19.611,194.005c-4.018,4.018-10.564,3.979-14.627-0.08c-4.059-4.062-4.098-10.613-0.08-14.631
		c4.021-4.018,10.571-3.984,14.634,0.08C23.601,183.435,23.633,189.985,19.611,194.005z"/>
	<linearGradient id="SVGID_12_" gradientUnits="userSpaceOnUse" x1="159.8926" y1="61.583" x2="180.585" y2="61.583">
		<stop  offset="0" style="stop-color:#F15E60"/>
		<stop  offset="1" style="stop-color:#8C3A92"/>
	</linearGradient>
	<path fill="url(#SVGID_12_)" d="M177.59,68.938c-4.018,4.02-10.564,3.98-14.627-0.08c-4.061-4.062-4.1-10.611-0.082-14.629
		c4.021-4.018,10.572-3.986,14.635,0.08C181.578,58.368,181.611,64.919,177.59,68.938z"/>
	<linearGradient id="SVGID_13_" gradientUnits="userSpaceOnUse" x1="94.0703" y1="61.583" x2="114.7598" y2="61.583">
		<stop  offset="0" style="stop-color:#F15E60"/>
		<stop  offset="1" style="stop-color:#8C3A92"/>
	</linearGradient>
	<path fill="url(#SVGID_13_)" d="M111.766,68.938c-4.018,4.02-10.564,3.98-14.627-0.08c-4.06-4.062-4.098-10.611-0.08-14.629
		c4.021-4.018,10.57-3.986,14.633,0.08C115.754,58.368,115.786,64.919,111.766,68.938z"/>
	<linearGradient id="SVGID_15_" gradientUnits="userSpaceOnUse" x1="28.2451" y1="61.583" x2="48.9355" y2="61.583">
		<stop  offset="0" style="stop-color:#F15E60"/>
		<stop  offset="1" style="stop-color:#8C3A92"/>
	</linearGradient>
	<path fill="url(#SVGID_15_)" d="M45.941,68.938c-4.018,4.02-10.564,3.98-14.627-0.08c-4.06-4.062-4.098-10.611-0.08-14.629
		c4.021-4.018,10.57-3.986,14.633,0.08C49.93,58.368,49.961,64.919,45.941,68.938z"/>
	<linearGradient id="SVGID_16_" gradientUnits="userSpaceOnUse" x1="199.3877" y1="104.3682" x2="220.0791" y2="104.3682">
		<stop  offset="0" style="stop-color:#F15E60"/>
		<stop  offset="1" style="stop-color:#8C3A92"/>
	</linearGradient>
	<path fill="url(#SVGID_16_)" d="M217.084,111.726c-4.018,4.018-10.564,3.979-14.627-0.08c-4.06-4.062-4.098-10.613-0.08-14.631
		c4.021-4.018,10.57-3.986,14.633,0.08C221.072,101.153,221.105,107.704,217.084,111.726z"/>
	<linearGradient id="SVGID_17_" gradientUnits="userSpaceOnUse" x1="133.5635" y1="104.3682" x2="154.2539" y2="104.3682">
		<stop  offset="0" style="stop-color:#F15E60"/>
		<stop  offset="1" style="stop-color:#8C3A92"/>
	</linearGradient>
	<path fill="url(#SVGID_17_)" d="M151.26,111.726c-4.018,4.018-10.564,3.979-14.627-0.08c-4.06-4.062-4.098-10.613-0.08-14.631
		c4.021-4.018,10.57-3.986,14.633,0.08C155.248,101.153,155.281,107.704,151.26,111.726z"/>
	<linearGradient id="SVGID_18_" gradientUnits="userSpaceOnUse" x1="67.7393" y1="104.3682" x2="88.4307" y2="104.3682">
		<stop  offset="0" style="stop-color:#F15E60"/>
		<stop  offset="1" style="stop-color:#8C3A92"/>
	</linearGradient>
	<path fill="url(#SVGID_18_)" d="M85.436,111.726c-4.018,4.018-10.564,3.979-14.627-0.08c-4.061-4.062-4.098-10.613-0.08-14.631
		c4.02-4.018,10.57-3.986,14.634,0.08C89.425,101.153,89.457,107.704,85.436,111.726z"/>
	<linearGradient id="SVGID_20_" gradientUnits="userSpaceOnUse" x1="1.916" y1="104.3682" x2="22.6064" y2="104.3682">
		<stop  offset="0" style="stop-color:#F15E60"/>
		<stop  offset="1" style="stop-color:#8C3A92"/>
	</linearGradient>
	<path fill="url(#SVGID_20_)" d="M19.611,111.726c-4.018,4.018-10.564,3.979-14.627-0.08c-4.059-4.062-4.098-10.613-0.08-14.631
		c4.021-4.018,10.571-3.986,14.634,0.08C23.601,101.153,23.633,107.704,19.611,111.726z"/>
	<linearGradient id="SVGID_22_" gradientUnits="userSpaceOnUse" x1="199.3877" y1="12.2148" x2="220.0791" y2="12.2148">
		<stop  offset="0" style="stop-color:#F15E60"/>
		<stop  offset="1" style="stop-color:#8C3A92"/>
	</linearGradient>
	<path fill="url(#SVGID_22_)" d="M217.084,19.571c-4.018,4.018-10.564,3.979-14.627-0.08c-4.06-4.062-4.098-10.613-0.08-14.631
		c4.021-4.018,10.57-3.984,14.633,0.08C221.072,9.001,221.105,15.55,217.084,19.571z"/>
	<linearGradient id="SVGID_23_" gradientUnits="userSpaceOnUse" x1="133.5635" y1="12.2148" x2="154.2539" y2="12.2148">
		<stop  offset="0" style="stop-color:#F15E60"/>
		<stop  offset="1" style="stop-color:#8C3A92"/>
	</linearGradient>
	<path fill="url(#SVGID_23_)" d="M151.26,19.571c-4.018,4.018-10.564,3.979-14.627-0.08c-4.06-4.062-4.098-10.613-0.08-14.631
		c4.021-4.018,10.57-3.984,14.633,0.08C155.248,9.001,155.281,15.55,151.26,19.571z"/>
	<linearGradient id="SVGID_25_" gradientUnits="userSpaceOnUse" x1="67.7393" y1="12.2148" x2="88.4307" y2="12.2148">
		<stop  offset="0" style="stop-color:#F15E60"/>
		<stop  offset="1" style="stop-color:#8C3A92"/>
	</linearGradient>
	<path fill="url(#SVGID_25_)" d="M85.436,19.571c-4.018,4.018-10.564,3.979-14.627-0.08c-4.061-4.062-4.098-10.613-0.08-14.631
		c4.02-4.018,10.57-3.984,14.634,0.08C89.425,9.001,89.457,15.55,85.436,19.571z"/>
	<linearGradient id="SVGID_26_" gradientUnits="userSpaceOnUse" x1="1.916" y1="12.2148" x2="22.6064" y2="12.2148">
		<stop  offset="0" style="stop-color:#F15E60"/>
		<stop  offset="1" style="stop-color:#8C3A92"/>
	</linearGradient>
	<path fill="url(#SVGID_26_)" d="M19.611,19.571c-4.018,4.018-10.564,3.979-14.627-0.08C0.926,15.429,0.887,8.878,4.904,4.86
		c4.021-4.018,10.571-3.984,14.634,0.08C23.601,9.001,23.633,15.55,19.611,19.571z"/>
</g>
</svg>
