<?xml version="1.0" encoding="UTF-8" standalone="no"?>
<!DOCTYPE svg PUBLIC "-//W3C//DTD SVG 1.1//EN" "http://www.w3.org/Graphics/SVG/1.1/DTD/svg11.dtd">
<svg version="1.1" xmlns="http://www.w3.org/2000/svg" xmlns:xlink="http://www.w3.org/1999/xlink" preserveAspectRatio="xMidYMid meet" viewBox="107.60465116279076 20.395348837209365 72 61.78865116279063" width="68" height="57.79"><defs><path d="M145.39 21.51L146.76 21.65L148.12 21.84L149.45 22.09L150.77 22.38L152.07 22.73L153.35 23.13L154.6 23.58L155.83 24.07L157.04 24.61L158.22 25.19L159.38 25.82L160.51 26.49L161.61 27.21L162.68 27.96L163.72 28.75L164.73 29.58L165.7 30.45L166.64 31.36L167.55 32.3L168.42 33.27L169.25 34.28L170.04 35.32L170.79 36.39L171.51 37.49L172.18 38.62L172.81 39.78L173.39 40.96L173.93 42.17L174.42 43.4L174.87 44.65L175.27 45.93L175.62 47.23L175.91 48.55L176.16 49.88L176.35 51.24L176.49 52.61L176.58 53.99L176.6 55.4L176.58 56.8L176.49 58.18L176.35 59.55L176.16 60.91L175.91 62.24L175.62 63.56L175.27 64.86L174.87 66.14L174.42 67.39L173.93 68.62L173.39 69.83L172.81 71.01L172.18 72.17L171.51 73.3L170.79 74.4L170.04 75.47L169.25 76.51L168.42 77.52L167.55 78.49L166.9 79.16L157.71 69.97L158.3 69.34L159.1 68.39L159.84 67.39L160.52 66.35L161.14 65.26L161.7 64.14L162.19 62.98L162.61 61.79L162.96 60.56L163.24 59.31L163.44 58.03L163.56 56.72L163.6 55.4L163.56 54.07L163.44 52.76L163.24 51.48L162.96 50.23L162.61 49L162.19 47.81L161.7 46.65L161.14 45.53L160.52 44.44L159.84 43.4L159.1 42.4L158.3 41.45L157.45 40.55L156.55 39.7L155.6 38.9L154.6 38.16L153.56 37.48L152.47 36.86L151.35 36.3L150.19 35.81L149 35.39L147.77 35.04L146.52 34.76L145.24 34.56L143.93 34.44L142.6 34.4L141.28 34.44L139.97 34.56L138.69 34.76L137.44 35.04L136.21 35.39L135.02 35.81L133.86 36.3L132.74 36.86L131.65 37.48L130.61 38.16L129.61 38.9L128.66 39.7L127.76 40.55L126.91 41.45L126.11 42.4L125.37 43.4L124.69 44.44L124.07 45.53L123.51 46.65L123.02 47.81L122.6 49L122.25 50.23L121.97 51.48L121.77 52.76L121.65 54.07L121.6 55.4L121.65 56.72L121.77 58.03L121.97 59.31L122.25 60.56L122.6 61.79L123.02 62.98L123.51 64.14L124.07 65.26L124.69 66.35L125.37 67.39L126.11 68.39L126.91 69.34L127.52 69.99L118.33 79.18L117.66 78.49L116.79 77.52L115.96 76.51L115.17 75.47L114.41 74.4L113.7 73.3L113.03 72.17L112.4 71.01L111.82 69.83L111.28 68.62L110.79 67.39L110.34 66.14L109.94 64.86L109.59 63.56L109.3 62.24L109.05 60.91L108.86 59.55L108.72 58.18L108.63 56.8L108.6 55.4L108.63 53.99L108.72 52.61L108.86 51.24L109.05 49.88L109.3 48.55L109.59 47.23L109.94 45.93L110.34 44.65L110.79 43.4L111.28 42.17L111.82 40.96L112.4 39.78L113.03 38.62L113.7 37.49L114.41 36.39L115.17 35.32L115.96 34.28L116.79 33.27L117.66 32.3L118.57 31.36L119.51 30.45L120.48 29.58L121.49 28.75L122.53 27.96L123.6 27.21L124.7 26.49L125.83 25.82L126.99 25.19L128.17 24.61L129.38 24.07L130.61 23.58L131.86 23.13L133.14 22.73L134.44 22.38L135.76 22.09L137.09 21.84L138.45 21.65L139.82 21.51L141.2 21.42L142.6 21.4L144.01 21.42L145.39 21.51Z" id="gMJTV6jNN"></path><path d="M157.77 54.59L127.33 54.59" id="b4CNAlZvBR"></path><path d="M157.77 61.59L127.33 61.59" id="d37tGCb9nG"></path><path d="M157.77 47.59L127.33 47.59" id="ey6SuU693"></path></defs><g><g><g><use xlink:href="#gMJTV6jNN" opacity="1" fill-opacity="0" stroke="#000000" stroke-width="2" stroke-opacity="1"></use></g></g><g><g><use xlink:href="#b4CNAlZvBR" opacity="1" fill-opacity="0" stroke="#000000" stroke-width="2" stroke-opacity="1"></use></g></g><g><g><use xlink:href="#d37tGCb9nG" opacity="1" fill-opacity="0" stroke="#000000" stroke-width="2" stroke-opacity="1"></use></g></g><g><g><use xlink:href="#ey6SuU693" opacity="1" fill-opacity="0" stroke="#000000" stroke-width="2" stroke-opacity="1"></use></g></g></g></svg>